<svg width="17" height="15" viewBox="0 0 17 15" fill="none" xmlns="http://www.w3.org/2000/svg">
<path d="M8.20414 10.5408C7.7454 10.5408 7.36087 10.9253 7.36087 11.3841C7.36087 11.8428 7.7454 12.2273 8.20414 12.2273C8.64601 12.2273 9.0474 11.8428 9.02716 11.4043C9.0474 10.922 8.66624 10.5408 8.20414 10.5408Z" fill="white"/>
<path d="M16.0094 13.5293C16.539 12.6152 16.5423 11.5257 16.0162 10.615L10.7339 1.46728C10.2111 0.546436 9.26666 0 8.20751 0C7.14837 0 6.20392 0.549809 5.68109 1.46391L0.392134 10.6218C-0.134063 11.5426 -0.13069 12.6389 0.402254 13.553C0.928451 14.4569 1.86953 15 2.92193 15H13.4729C14.5286 15 15.4765 14.4502 16.0094 13.5293ZM14.8626 12.8682C14.5691 13.3742 14.0497 13.6744 13.4695 13.6744H2.91856C2.34514 13.6744 1.82906 13.3809 1.54235 12.8851C1.25226 12.3825 1.24889 11.7821 1.53897 11.2761L6.82793 2.12165C7.11464 1.61907 7.62735 1.32224 8.20751 1.32224C8.78431 1.32224 9.30039 1.62244 9.5871 2.12503L14.8727 11.2795C15.156 11.772 15.1526 12.3656 14.8626 12.8682Z" fill="white"/>
<path d="M7.99502 4.6211C7.59363 4.73578 7.34402 5.10007 7.34402 5.54194C7.36426 5.80841 7.38113 6.07826 7.40137 6.34473C7.45871 7.36002 7.51605 8.35507 7.57339 9.37037C7.59363 9.71442 7.8601 9.96403 8.20416 9.96403C8.54821 9.96403 8.81805 9.69755 8.83492 9.35013C8.83492 9.141 8.83492 8.94873 8.85516 8.73623C8.89226 8.08523 8.93274 7.43423 8.96984 6.78323C8.99008 6.3616 9.02718 5.93996 9.04742 5.51833C9.04742 5.36654 9.02718 5.23162 8.96984 5.0967C8.79781 4.71892 8.39642 4.52665 7.99502 4.6211Z" fill="white"/>
</svg>
