<svg width="10" height="9" viewBox="0 0 10 9" fill="E3E3E3" xmlns="http://www.w3.org/2000/svg">
<path d="M5.21061 4.5L9.03675 8.25658C9.20997 8.42665 9.20997 8.70238 9.03675 8.87245C8.86354 9.04252 8.5827 9.04252 8.40948 8.87245L4.58333 5.11587L0.757185 8.87245C0.583968 9.04252 0.303129 9.04252 0.129912 8.87245C-0.0433041 8.70238 -0.0433041 8.42665 0.129912 8.25658L3.95606 4.5L0.129912 0.743417C-0.0433041 0.57335 -0.0433041 0.297617 0.129912 0.12755C0.303129 -0.0425168 0.583968 -0.0425168 0.757185 0.12755L4.58333 3.88413L8.40948 0.12755C8.5827 -0.0425168 8.86354 -0.0425168 9.03675 0.12755C9.20997 0.297617 9.20997 0.57335 9.03675 0.743417L5.21061 4.5Z" fill="#E3E3E3"/>
</svg>
