<svg width="10" height="9" viewBox="0 0 10 9" fill="none" xmlns="http://www.w3.org/2000/svg">
<path d="M5.87284 4.5L9.69899 8.25658C9.8722 8.42665 9.8722 8.70238 9.69899 8.87245C9.52577 9.04252 9.24493 9.04252 9.07171 8.87245L5.24556 5.11587L1.41942 8.87245C1.2462 9.04252 0.96536 9.04252 0.792144 8.87245C0.618927 8.70238 0.618927 8.42665 0.792144 8.25658L4.61829 4.5L0.792144 0.743417C0.618927 0.57335 0.618927 0.297617 0.792144 0.12755C0.96536 -0.0425168 1.2462 -0.0425168 1.41942 0.12755L5.24556 3.88413L9.07171 0.12755C9.24493 -0.0425168 9.52577 -0.0425168 9.69899 0.12755C9.8722 0.297617 9.8722 0.57335 9.69899 0.743417L5.87284 4.5Z" fill="white"/>
</svg>
