<svg width="24" height="24" viewBox="0 0 24 24" fill="none" xmlns="http://www.w3.org/2000/svg">
<path d="M12 0C5.34857 0 0 5.28387 0 11.8548C0 15.5129 1.71429 18.8323 4.32 21C5.14286 17.5452 8.29714 15.0387 12 15.0387C15.7029 15.0387 18.8571 17.5452 19.68 21C22.3543 18.8323 24 15.5129 24 11.8548C24 5.28387 18.6514 0 12 0ZM12 14.2935C9.6 14.2935 7.61143 12.329 7.61143 9.95807C7.61143 7.5871 9.6 5.62258 12 5.62258C14.4 5.62258 16.3886 7.5871 16.3886 9.95807C16.3886 12.329 14.4 14.2935 12 14.2935Z" fill="#34495E"/>
</svg>
