<svg width="24" height="25" viewBox="0 0 24 25" fill="none" xmlns="http://www.w3.org/2000/svg">
<g clip-path="url(#clip0)">
<path d="M22.1511 15.3644C21.8209 15.3644 21.5533 15.632 21.5533 15.9621V21.2693C21.5522 22.2593 20.7501 23.0615 19.7602 23.0625H2.98862C1.99864 23.0615 1.19662 22.2593 1.19545 21.2693V5.6932C1.19662 4.70345 1.99864 3.90119 2.98862 3.90002H8.29576C8.62591 3.90002 8.89349 3.63245 8.89349 3.3023C8.89349 2.97238 8.62591 2.70457 8.29576 2.70457H2.98862C1.33881 2.70644 0.00186789 4.04338 0 5.6932V21.2695C0.00186789 22.9193 1.33881 24.2563 2.98862 24.2581H19.7602C21.41 24.2563 22.7469 22.9193 22.7488 21.2695V15.9621C22.7488 15.632 22.4812 15.3644 22.1511 15.3644Z" fill="#34495E"/>
<path d="M22.5121 1.16662C21.4616 0.116171 19.7586 0.116171 18.7081 1.16662L8.04433 11.8304C7.97124 11.9035 7.91848 11.9941 7.89093 12.0935L6.48861 17.1562C6.43094 17.3638 6.48954 17.5861 6.64178 17.7385C6.79424 17.8908 7.01652 17.9494 7.22409 17.8919L12.2868 16.4894C12.3862 16.4618 12.4768 16.4091 12.5499 16.336L23.2134 5.67197C24.2623 4.62082 24.2623 2.91917 23.2134 1.86802L22.5121 1.16662ZM9.34671 12.2189L18.0742 3.49121L20.8889 6.30589L12.1612 15.0336L9.34671 12.2189ZM8.78448 13.3471L11.0332 15.5961L7.92268 16.4579L8.78448 13.3471ZM22.3682 4.82675L21.7343 5.46067L18.9194 2.64576L19.5536 2.01184C20.137 1.42836 21.0831 1.42836 21.6666 2.01184L22.3682 2.71324C22.9508 3.29742 22.9508 4.2428 22.3682 4.82675Z" fill="#34495E"/>
</g>
<defs>
<clipPath id="clip0">
<rect width="24" height="24" fill="white" transform="translate(0 0.287781)"/>
</clipPath>
</defs>
</svg>
