<svg width="87" height="111" viewBox="0 0 87 111" fill="none" xmlns="http://www.w3.org/2000/svg">
<path d="M76.3658 4.65043V97.9113C76.3658 98.6718 75.7262 99.3122 74.9666 99.3122H4.24542C3.48584 99.3122 2.84619 98.6718 2.84619 97.9113V27.1051C2.84619 26.5047 3.08606 25.9443 3.52582 25.504L25.074 3.92996C25.5138 3.48967 26.0734 3.24951 26.6731 3.24951H74.9666C75.7262 3.28954 76.3658 3.88993 76.3658 4.65043Z" fill="white" stroke="#BFBFBF" stroke-width="5.3303" stroke-miterlimit="10" stroke-linecap="round" stroke-linejoin="round"/>
<path d="M82.4824 17.3389H41.5049C39.7059 17.3389 38.2667 18.7798 38.2667 20.581V38.913C38.2667 40.7141 39.7059 42.1551 41.5049 42.1551H82.4824C84.2814 42.1551 85.7206 40.7141 85.7206 38.913V20.581C85.7206 18.7798 84.2814 17.3389 82.4824 17.3389Z" fill="url(#paint0_linear)" stroke="white" stroke-width="6.3964" stroke-miterlimit="10"/>
<path d="M64.9321 57.885H14.2799C13.6802 57.885 13.2005 57.4047 13.2005 56.8044V53.8824C13.2005 53.2821 13.6802 52.8018 14.2799 52.8018H64.9321C65.5318 52.8018 66.0115 53.2821 66.0115 53.8824V56.8044C66.0515 57.4047 65.5318 57.885 64.9321 57.885Z" fill="#C7C7C7"/>
<path d="M64.9321 72.4144H14.2799C13.6802 72.4144 13.2005 71.9341 13.2005 71.3337V68.4118C13.2005 67.8114 13.6802 67.3311 14.2799 67.3311H64.9321C65.5318 67.3311 66.0115 67.8114 66.0115 68.4118V71.3337C66.0515 71.8941 65.5318 72.4144 64.9321 72.4144Z" fill="#C7C7C7"/>
<path d="M64.9321 86.9041H14.2799C13.6802 86.9041 13.2005 86.4238 13.2005 85.8234V82.9015C13.2005 82.3011 13.6802 81.8208 14.2799 81.8208H64.9321C65.5318 81.8208 66.0115 82.3011 66.0115 82.9015V85.8234C66.0515 86.4238 65.5318 86.9041 64.9321 86.9041Z" fill="#C7C7C7"/>
<path d="M25.7536 4.33036V24.7037C25.7536 25.5042 25.114 26.1846 24.2744 26.1846H3.92561C3.52583 26.1846 3.32595 25.7043 3.60579 25.4241L24.9541 4.05017C25.2739 3.76999 25.7536 3.9301 25.7536 4.33036Z" fill="#EFEFEF" stroke="#BFBFBF" stroke-width="5.3303" stroke-miterlimit="10" stroke-linecap="round" stroke-linejoin="round"/>
<path d="M65.8516 36.2711H63.333L62.2936 33.1491H57.2563L56.2169 36.2711H54.218L58.5356 23.1826H61.454L65.8516 36.2711ZM61.6539 31.2679L59.7749 25.4241L57.856 31.2679H61.6539Z" fill="white"/>
<path d="M69.7695 36.2711H67.4108V23.1826H69.7695V36.2711Z" fill="white"/>
<path d="M69.4096 109.719C78.44 109.719 85.7607 102.39 85.7607 93.3485C85.7607 84.3072 78.44 76.9778 69.4096 76.9778C60.3792 76.9778 53.0586 84.3072 53.0586 93.3485C53.0586 102.39 60.3792 109.719 69.4096 109.719Z" fill="url(#paint1_linear)" stroke="white" stroke-width="6.3964" stroke-miterlimit="10"/>
<path d="M71.5285 93.3083V84.1423C71.5285 83.7421 71.2086 83.3818 70.7689 83.3818H68.0104C67.6106 83.3818 67.2508 83.7021 67.2508 84.1423V93.3083C67.2508 93.7086 66.931 94.0688 66.4912 94.0688H63.4129C62.7733 94.0688 62.4534 94.7893 62.8532 95.2696L68.8099 102.554C69.0898 102.915 69.6495 102.915 69.9693 102.554L75.9261 95.2696C76.3258 94.7893 75.966 94.0688 75.3664 94.0688H72.2881C71.8483 94.0688 71.5285 93.7486 71.5285 93.3083Z" fill="white"/>
<defs>
<linearGradient id="paint0_linear" x1="62.0081" y1="17.3211" x2="62.0081" y2="42.142" gradientUnits="userSpaceOnUse">
<stop stop-color="#FA9B52"/>
<stop offset="1" stop-color="#E67100"/>
</linearGradient>
<linearGradient id="paint1_linear" x1="69.3955" y1="76.9964" x2="69.3955" y2="109.711" gradientUnits="userSpaceOnUse">
<stop stop-color="#FA9549"/>
<stop offset="1" stop-color="#E67100"/>
</linearGradient>
</defs>
</svg>
