<svg width="89" height="111" viewBox="0 0 89 111" fill="none" xmlns="http://www.w3.org/2000/svg">
<path d="M76.295 2.44144V95.7023C76.295 96.4628 75.6554 97.1032 74.8958 97.1032H4.17462C3.41504 97.1032 2.77539 96.4628 2.77539 95.7023V24.8961C2.77539 24.2957 3.01525 23.7353 3.45501 23.2951L25.0032 1.72097C25.4429 1.28068 26.0026 1.04053 26.6023 1.04053H74.8958C75.6554 1.08055 76.295 1.68095 76.295 2.44144Z" fill="white" stroke="#BFBFBF" stroke-width="5.3303" stroke-miterlimit="10" stroke-linecap="round" stroke-linejoin="round"/>
<path d="M82.4116 15.1296H41.4341C39.6351 15.1296 38.1959 16.5706 38.1959 18.3718V36.7037C38.1959 38.5049 39.6351 39.9458 41.4341 39.9458H82.4116C84.2106 39.9458 85.6499 38.5049 85.6499 36.7037V18.3317C85.6499 16.5706 84.2106 15.1296 82.4116 15.1296Z" fill="url(#paint0_linear)" stroke="white" stroke-width="6.3964" stroke-miterlimit="10"/>
<path d="M64.8612 55.6761H14.2091C13.6094 55.6761 13.1296 55.1958 13.1296 54.5954V51.6735C13.1296 51.0731 13.6094 50.5928 14.2091 50.5928H64.8612C65.4609 50.5928 65.9406 51.0731 65.9406 51.6735V54.5954C65.9806 55.1958 65.4609 55.6761 64.8612 55.6761Z" fill="#C7C7C7"/>
<path d="M64.8612 70.2056H14.2091C13.6094 70.2056 13.1296 69.7253 13.1296 69.1249V66.203C13.1296 65.6026 13.6094 65.1223 14.2091 65.1223H64.8612C65.4609 65.1223 65.9406 65.6026 65.9406 66.203V69.1249C65.9806 69.6853 65.4609 70.2056 64.8612 70.2056Z" fill="#C7C7C7"/>
<path d="M64.8612 84.6951H14.2091C13.6094 84.6951 13.1296 84.2148 13.1296 83.6144V80.6925C13.1296 80.0921 13.6094 79.6118 14.2091 79.6118H64.8612C65.4609 79.6118 65.9406 80.0921 65.9406 80.6925V83.6144C65.9806 84.2148 65.4609 84.6951 64.8612 84.6951Z" fill="#C7C7C7"/>
<path d="M25.6828 2.12128V22.4946C25.6828 23.2951 25.0432 23.9755 24.2037 23.9755H3.85481C3.45503 23.9755 3.25515 23.4952 3.53499 23.215L24.9233 1.80107C25.2031 1.56091 25.6828 1.72102 25.6828 2.12128Z" fill="#EFEFEF" stroke="#BFBFBF" stroke-width="5.3303" stroke-miterlimit="10" stroke-linecap="round" stroke-linejoin="round"/>
<path d="M44.9122 34.0619V20.9734H49.7096C51.5086 20.9734 52.9078 21.6138 53.9872 22.8546C55.0667 24.1355 55.5864 25.6564 55.5864 27.5377C55.5864 29.3789 55.0267 30.9399 53.9073 32.1807C52.7879 33.4215 51.1888 34.0619 49.1499 34.0619H44.9122ZM47.3109 32.1407H49.2698C50.3093 32.1407 51.2288 31.7404 51.9484 30.9399C52.668 30.1394 53.0677 28.9786 53.0677 27.4176C53.0677 26.1368 52.7479 25.0561 52.1083 24.1755C51.4686 23.2949 50.6291 22.8546 49.5497 22.8546H47.3109V32.1407Z" fill="white"/>
<path d="M62.6225 34.2622C60.9034 34.2622 59.5442 33.6218 58.5847 32.301C57.6252 30.9801 57.1455 29.3791 57.1455 27.4578C57.1455 25.5365 57.6652 23.9755 58.7047 22.6947C59.7441 21.4139 61.1033 20.7734 62.7824 20.7734C64.4615 20.7734 65.8208 21.4139 66.8202 22.6947C67.8197 23.9755 68.2994 25.5766 68.2994 27.4978C68.2994 29.4991 67.7797 31.1402 66.7802 32.381C65.7808 33.6218 64.3016 34.2622 62.6225 34.2622ZM62.6225 32.381C63.462 32.381 64.1817 32.0208 64.7813 31.3403C65.381 30.6199 65.6608 29.3791 65.6608 27.4978C65.6608 25.9768 65.421 24.8161 64.9412 23.9755C64.4615 23.135 63.7019 22.6947 62.6625 22.6947C60.6636 22.6947 59.6241 24.3358 59.6241 27.5779C59.6241 29.1389 59.864 30.3397 60.3837 31.1802C60.9434 31.9407 61.703 32.381 62.6225 32.381Z" fill="white"/>
<path d="M77.7341 29.4991L79.9329 29.7393C79.773 31.0601 79.2933 32.1408 78.4138 32.9814C77.5342 33.8219 76.4149 34.2622 74.9757 34.2622C73.7763 34.2622 72.8168 33.942 72.0572 33.3416C71.2977 32.7412 70.738 31.9407 70.3382 30.9C69.9384 29.8594 69.7385 28.7386 69.7385 27.4978C69.7385 25.4965 70.2183 23.8955 71.1378 22.6146C72.0972 21.3738 73.3765 20.7334 75.0156 20.7334C76.2949 20.7334 77.3743 21.1337 78.2539 21.9342C79.1334 22.7347 79.6531 23.8955 79.893 25.3764L77.6942 25.6166C77.2944 23.6553 76.4149 22.6547 75.0156 22.6547C74.1361 22.6547 73.4565 23.0549 72.9768 23.8955C72.497 24.736 72.2571 25.8968 72.2571 27.4578C72.2571 29.0588 72.537 30.2196 73.0567 31.0601C73.5764 31.8607 74.256 32.2609 75.1356 32.2609C75.8152 32.2609 76.4149 31.9807 76.8946 31.4604C77.3743 30.9401 77.6542 30.2596 77.7341 29.4991Z" fill="white"/>
<path d="M69.3388 107.51C78.3692 107.51 85.6898 100.181 85.6898 91.1392C85.6898 82.098 78.3692 74.7686 69.3388 74.7686C60.3084 74.7686 52.9878 82.098 52.9878 91.1392C52.9878 100.181 60.3084 107.51 69.3388 107.51Z" fill="url(#paint1_linear)" stroke="white" stroke-width="6.3964" stroke-miterlimit="10"/>
<path d="M71.4576 91.0991V81.9331C71.4576 81.5328 71.1378 81.1726 70.6981 81.1726H67.9396C67.5398 81.1726 67.18 81.4928 67.18 81.9331V91.0991C67.18 91.4993 66.8602 91.8596 66.4204 91.8596H63.3421C62.7024 91.8596 62.3826 92.5801 62.7824 93.0604L68.7391 100.345C69.019 100.705 69.5787 100.705 69.8985 100.345L75.8552 93.0604C76.255 92.5801 75.8952 91.8596 75.2955 91.8596H72.2172C71.7775 91.8596 71.4576 91.5394 71.4576 91.0991Z" fill="white"/>
<defs>
<linearGradient id="paint0_linear" x1="61.9373" y1="15.1119" x2="61.9373" y2="39.9328" gradientUnits="userSpaceOnUse">
<stop stop-color="#6193FA"/>
<stop offset="1" stop-color="#0054FF"/>
</linearGradient>
<linearGradient id="paint1_linear" x1="69.3247" y1="74.7872" x2="69.3247" y2="107.501" gradientUnits="userSpaceOnUse">
<stop stop-color="#6294FA"/>
<stop offset="1" stop-color="#0054FF"/>
</linearGradient>
</defs>
</svg>
