<svg width="90" height="113" viewBox="0 0 90 113" fill="none" xmlns="http://www.w3.org/2000/svg">
<path d="M76.63 4.54593V97.8068C76.63 98.5673 75.9903 99.2077 75.2307 99.2077H4.50958C3.75 99.2077 3.11035 98.5673 3.11035 97.8068V27.0006C3.11035 26.4002 3.35022 25.8398 3.78998 25.3995L25.3382 3.82546C25.7779 3.38517 26.3376 3.14502 26.9373 3.14502H75.2307C75.9903 3.18505 76.63 3.78544 76.63 4.54593Z" fill="white" stroke="#BFBFBF" stroke-width="5.3303" stroke-miterlimit="10" stroke-linecap="round" stroke-linejoin="round"/>
<path d="M82.7466 17.2341H41.7691C39.9701 17.2341 38.5309 18.6751 38.5309 20.4762V38.8082C38.5309 40.6094 39.9701 42.0503 41.7691 42.0503H82.7466C84.5456 42.0503 85.9848 40.6094 85.9848 38.8082V20.4762C85.9848 18.6751 84.5456 17.2341 82.7466 17.2341Z" fill="url(#paint0_linear)" stroke="white" stroke-width="6.3964" stroke-miterlimit="10"/>
<path d="M65.1963 57.7806H14.5441C13.9445 57.7806 13.4647 57.3003 13.4647 56.6999V53.778C13.4647 53.1776 13.9445 52.6973 14.5441 52.6973H65.1963C65.796 52.6973 66.2757 53.1776 66.2757 53.778V56.6999C66.3157 57.3003 65.796 57.7806 65.1963 57.7806Z" fill="#C7C7C7"/>
<path d="M65.1963 72.3101H14.5441C13.9445 72.3101 13.4647 71.8298 13.4647 71.2294V68.3075C13.4647 67.7071 13.9445 67.2268 14.5441 67.2268H65.1963C65.796 67.2268 66.2757 67.7071 66.2757 68.3075V71.2294C66.3157 71.7897 65.796 72.3101 65.1963 72.3101Z" fill="#C7C7C7"/>
<path d="M65.1963 86.7996H14.5441C13.9445 86.7996 13.4647 86.3193 13.4647 85.7189V82.797C13.4647 82.1966 13.9445 81.7163 14.5441 81.7163H65.1963C65.796 81.7163 66.2757 82.1966 66.2757 82.797V85.7189C66.3157 86.3193 65.796 86.7996 65.1963 86.7996Z" fill="#C7C7C7"/>
<path d="M26.0178 4.22561V24.5989C26.0178 25.3994 25.3781 26.0799 24.5386 26.0799H4.18977C3.78999 26.0799 3.59011 25.5996 3.86995 25.3194L25.2182 3.94544C25.5381 3.66525 26.0178 3.82535 26.0178 4.22561Z" fill="#EFEFEF" stroke="#BFBFBF" stroke-width="5.3303" stroke-miterlimit="10" stroke-linecap="round" stroke-linejoin="round"/>
<path d="M51.3638 35.2459H49.3649V30.3627H45.0873V35.2459H43.0884V24.0386H45.0873V28.6416H49.3649V24.0386H51.3638V35.2459Z" fill="white"/>
<path d="M57.7603 35.2459H55.6015V25.7597H52.6431V24.0386H60.7586V25.7597H57.8002V35.2459H57.7603Z" fill="white"/>
<path d="M72.912 35.2459H70.8731V25.4395L67.7548 35.2459H66.7154L63.5971 25.4395V35.2459H61.958V24.0386H65.1163L67.475 31.2433L69.7937 24.0386H72.952V35.2459H72.912Z" fill="white"/>
<path d="M82.2668 35.2459H75.3906V24.0386H77.5095V33.4047H82.2668V35.2459V35.2459Z" fill="white"/>
<path d="M69.6738 109.614C78.7042 109.614 86.0248 102.285 86.0248 93.2437C86.0248 84.2025 78.7042 76.873 69.6738 76.873C60.6433 76.873 53.3228 84.2025 53.3228 93.2437C53.3228 102.285 60.6433 109.614 69.6738 109.614Z" fill="url(#paint1_linear)" stroke="white" stroke-width="6.3964" stroke-miterlimit="10"/>
<path d="M71.7926 93.2038V84.0378C71.7926 83.6376 71.4728 83.2773 71.033 83.2773H68.2745C67.8747 83.2773 67.515 83.5976 67.515 84.0378V93.2038C67.515 93.6041 67.1951 93.9643 66.7554 93.9643H63.677C63.0374 93.9643 62.7176 94.6848 63.1174 95.1651L69.0741 102.45C69.3539 102.81 69.9136 102.81 70.2335 102.45L76.1902 95.1651C76.59 94.6848 76.2302 93.9643 75.6305 93.9643H72.5522C72.1124 93.9643 71.7926 93.6441 71.7926 93.2038Z" fill="white"/>
<defs>
<linearGradient id="paint0_linear" x1="62.2723" y1="17.2164" x2="62.2723" y2="42.0373" gradientUnits="userSpaceOnUse">
<stop stop-color="#FA6C44"/>
<stop offset="1" stop-color="#FF3700"/>
</linearGradient>
<linearGradient id="paint1_linear" x1="69.6596" y1="76.8917" x2="69.6596" y2="109.606" gradientUnits="userSpaceOnUse">
<stop stop-color="#FA6941"/>
<stop offset="1" stop-color="#FF3700"/>
</linearGradient>
</defs>
</svg>
