<svg width="88" height="111" viewBox="0 0 88 111" fill="none" xmlns="http://www.w3.org/2000/svg">
<path d="M74.5591 4.65043V97.9113C74.5591 98.6718 73.9194 99.3122 73.1598 99.3122H2.43866C1.67908 99.3122 1.03943 98.6718 1.03943 97.9113V27.1051C1.03943 26.5047 1.2793 25.9443 1.71906 25.504L23.2672 3.92996C23.707 3.48967 24.2667 3.24951 24.8663 3.24951H73.1598C73.9194 3.28954 74.5591 3.88993 74.5591 4.65043Z" fill="white" stroke="#BFBFBF" stroke-width="5.3303" stroke-miterlimit="10" stroke-linecap="round" stroke-linejoin="round"/>
<path d="M80.6757 17.3389H39.6982C37.8992 17.3389 36.46 18.7798 36.46 20.581V38.913C36.46 40.7141 37.8992 42.1551 39.6982 42.1551H80.6757C82.4747 42.1551 83.9139 40.7141 83.9139 38.913V20.581C83.9139 18.7798 82.4747 17.3389 80.6757 17.3389Z" fill="url(#paint0_linear)" stroke="white" stroke-width="6.3964" stroke-miterlimit="10"/>
<path d="M63.1253 57.885H12.4731C11.8734 57.885 11.3937 57.4047 11.3937 56.8044V53.8824C11.3937 53.2821 11.8734 52.8018 12.4731 52.8018H63.1253C63.7249 52.8018 64.2047 53.2821 64.2047 53.8824V56.8044C64.2447 57.4047 63.7249 57.885 63.1253 57.885Z" fill="#C7C7C7"/>
<path d="M63.1253 72.4144H12.4731C11.8734 72.4144 11.3937 71.9341 11.3937 71.3337V68.4118C11.3937 67.8114 11.8734 67.3311 12.4731 67.3311H63.1253C63.7249 67.3311 64.2047 67.8114 64.2047 68.4118V71.3337C64.2447 71.8941 63.7249 72.4144 63.1253 72.4144Z" fill="#C7C7C7"/>
<path d="M63.1253 86.9041H12.4731C11.8734 86.9041 11.3937 86.4238 11.3937 85.8234V82.9015C11.3937 82.3011 11.8734 81.8208 12.4731 81.8208H63.1253C63.7249 81.8208 64.2047 82.3011 64.2047 82.9015V85.8234C64.2447 86.4238 63.7249 86.9041 63.1253 86.9041Z" fill="#C7C7C7"/>
<path d="M23.9469 4.33026V24.7036C23.9469 25.5041 23.3072 26.1846 22.4677 26.1846H2.11886C1.71907 26.1846 1.51918 25.7042 1.79903 25.4241L23.1873 4.01005C23.4671 3.7699 23.9469 3.93 23.9469 4.33026Z" fill="#EFEFEF" stroke="#BFBFBF" stroke-width="5.3303" stroke-miterlimit="10" stroke-linecap="round" stroke-linejoin="round"/>
<path d="M50.972 23.1826V32.2285C50.972 33.7495 50.6522 34.8302 50.0125 35.4706C49.3729 36.151 48.3334 36.4713 46.9342 36.4713C46.1346 36.4713 45.495 36.3912 45.0153 36.2711V34.3899C45.7349 34.4299 46.2146 34.4699 46.5344 34.4699C47.334 34.4699 47.8537 34.3099 48.1335 34.0297C48.4134 33.7495 48.5733 33.1491 48.5733 32.2285V23.1826H50.972Z" fill="white"/>
<path d="M56.0892 36.2711H53.7305V23.1826H59.0875C60.6067 23.1826 61.7261 23.5829 62.4857 24.3434C63.2053 25.1039 63.6051 26.0244 63.6051 27.0651C63.6051 28.2659 63.2053 29.2266 62.4057 29.987C61.6062 30.7475 60.6067 31.1078 59.3674 31.1078H56.0892V36.2711V36.2711ZM56.0892 29.0664H58.8876C59.6072 29.0664 60.1669 28.9063 60.5667 28.5461C60.9665 28.1859 61.1264 27.7056 61.1264 27.1052C61.1264 26.5848 60.9665 26.1045 60.6067 25.7443C60.2469 25.344 59.6072 25.1839 58.6878 25.1839H56.1292V29.0664H56.0892Z" fill="white"/>
<path d="M75.3986 29.5867V36.2711H74.3592L73.6396 34.5099C72.88 35.8308 71.7206 36.4712 70.1215 36.4712C68.3225 36.4712 67.0032 35.7908 66.1237 34.4299C65.2442 33.069 64.8044 31.508 64.8044 29.7068C64.8044 27.8256 65.2842 26.2245 66.2836 24.9037C67.2831 23.5828 68.6423 22.9424 70.4014 22.9424C71.7206 22.9424 72.8001 23.3427 73.6396 24.1031C74.4791 24.8636 75.0388 25.8243 75.2387 26.945L73.1998 27.3052C72.8001 25.7042 71.9205 24.9037 70.4413 24.9037C69.5219 24.9037 68.7623 25.2639 68.1626 26.0244C67.5629 26.7849 67.2831 27.9457 67.2831 29.5067C67.2831 32.8288 68.3225 34.4699 70.4014 34.4699C71.2009 34.4699 71.8806 34.1897 72.4003 33.6293C72.92 33.069 73.1998 32.3485 73.1998 31.4279H70.4813V29.5467H75.3986V29.5867Z" fill="white"/>
<path d="M67.6029 109.719C76.6333 109.719 83.9539 102.39 83.9539 93.3485C83.9539 84.3072 76.6333 76.9778 67.6029 76.9778C58.5724 76.9778 51.2518 84.3072 51.2518 93.3485C51.2518 102.39 58.5724 109.719 67.6029 109.719Z" fill="url(#paint1_linear)" stroke="white" stroke-width="6.3964" stroke-miterlimit="10"/>
<path d="M69.7217 93.3083V84.1423C69.7217 83.7421 69.4018 83.3818 68.9621 83.3818H66.2036C65.8038 83.3818 65.444 83.7021 65.444 84.1423V93.3083C65.444 93.7086 65.1242 94.0688 64.6844 94.0688H61.6061C60.9665 94.0688 60.6467 94.7893 61.0464 95.2696L67.0032 102.554C67.283 102.915 67.8427 102.915 68.1625 102.554L74.1193 95.2696C74.519 94.7893 74.1592 94.0688 73.5596 94.0688H70.4813C70.0415 94.0688 69.7217 93.7486 69.7217 93.3083Z" fill="white"/>
<defs>
<linearGradient id="paint0_linear" x1="60.2013" y1="17.3211" x2="60.2013" y2="42.142" gradientUnits="userSpaceOnUse">
<stop stop-color="#90FA82"/>
<stop offset="1" stop-color="#16BF00"/>
</linearGradient>
<linearGradient id="paint1_linear" x1="67.5887" y1="76.9964" x2="67.5887" y2="109.711" gradientUnits="userSpaceOnUse">
<stop stop-color="#79FA69"/>
<stop offset="1" stop-color="#16BF00"/>
</linearGradient>
</defs>
</svg>
