<svg width="89" height="113" viewBox="0 0 89 113" fill="none" xmlns="http://www.w3.org/2000/svg">
<path d="M76.3658 4.44144V97.7023C76.3658 98.4628 75.7262 99.1032 74.9666 99.1032H4.24542C3.48584 99.1032 2.84619 98.4628 2.84619 97.7023V26.8961C2.84619 26.2957 3.08606 25.7353 3.52582 25.2951L25.074 3.72097C25.5138 3.28068 26.0734 3.04053 26.6731 3.04053H74.9666C75.7262 3.08055 76.3658 3.68095 76.3658 4.44144Z" fill="white" stroke="#BFBFBF" stroke-width="5.3303" stroke-miterlimit="10" stroke-linecap="round" stroke-linejoin="round"/>
<path d="M82.2157 17.1296H41.2382C39.4392 17.1296 38 18.5706 38 20.3718V38.7037C38 40.5049 39.4392 41.9458 41.2382 41.9458H82.2157C84.0147 41.9458 85.4539 40.5049 85.4539 38.7037V20.3317C85.4539 18.5706 84.0147 17.1296 82.2157 17.1296Z" fill="url(#paint0_linear)" stroke="white" stroke-width="6.3964" stroke-miterlimit="10"/>
<path d="M64.9321 57.6761H14.2799C13.6802 57.6761 13.2004 57.1958 13.2004 56.5954V53.6735C13.2004 53.0731 13.6802 52.5928 14.2799 52.5928H64.9321C65.5318 52.5928 66.0115 53.0731 66.0115 53.6735V56.5954C66.0515 57.1958 65.5318 57.6761 64.9321 57.6761Z" fill="#C7C7C7"/>
<path d="M64.9321 72.2056H14.2799C13.6802 72.2056 13.2004 71.7253 13.2004 71.1249V68.203C13.2004 67.6026 13.6802 67.1223 14.2799 67.1223H64.9321C65.5318 67.1223 66.0115 67.6026 66.0115 68.203V71.1249C66.0515 71.6853 65.5318 72.2056 64.9321 72.2056Z" fill="#C7C7C7"/>
<path d="M64.9321 86.6951H14.2799C13.6802 86.6951 13.2004 86.2148 13.2004 85.6144V82.6925C13.2004 82.0921 13.6802 81.6118 14.2799 81.6118H64.9321C65.5318 81.6118 66.0115 82.0921 66.0115 82.6925V85.6144C66.0515 86.2148 65.5318 86.6951 64.9321 86.6951Z" fill="#C7C7C7"/>
<path d="M25.7536 4.12128V24.4946C25.7536 25.2951 25.114 25.9755 24.2744 25.9755H3.92561C3.52583 25.9755 3.32595 25.4952 3.60579 25.215L24.994 3.80107C25.2739 3.56091 25.7536 3.72102 25.7536 4.12128Z" fill="#EFEFEF" stroke="#BFBFBF" stroke-width="5.3303" stroke-miterlimit="10" stroke-linecap="round" stroke-linejoin="round"/>
<path d="M69.4096 109.51C78.44 109.51 85.7607 102.181 85.7607 93.1392C85.7607 84.098 78.44 76.7686 69.4096 76.7686C60.3792 76.7686 53.0586 84.098 53.0586 93.1392C53.0586 102.181 60.3792 109.51 69.4096 109.51Z" fill="url(#paint1_linear)" stroke="white" stroke-width="6.3964" stroke-miterlimit="10"/>
<path d="M71.5285 93.0991V83.9331C71.5285 83.5328 71.2086 83.1726 70.7689 83.1726H68.0104C67.6106 83.1726 67.2508 83.4928 67.2508 83.9331V93.0991C67.2508 93.4993 66.931 93.8596 66.4912 93.8596H63.4129C62.7733 93.8596 62.4534 94.5801 62.8532 95.0604L68.8099 102.345C69.0898 102.705 69.6495 102.705 69.9693 102.345L75.9261 95.0604C76.3258 94.5801 75.966 93.8596 75.3664 93.8596H72.2881C71.8483 93.8596 71.5285 93.5394 71.5285 93.0991Z" fill="white"/>
<path d="M47.1836 23.2031L50.875 33.0117L54.5576 23.2031H57.4316V36H55.2168V31.7812L55.4365 26.1387L51.6572 36H50.0664L46.2959 26.1475L46.5156 31.7812V36H44.3008V23.2031H47.1836ZM62.292 31.2451V36H60.0684V23.2031H64.9639C66.3936 23.2031 67.5273 23.5752 68.3652 24.3193C69.209 25.0635 69.6309 26.0479 69.6309 27.2725C69.6309 28.5264 69.2178 29.502 68.3916 30.1992C67.5713 30.8965 66.4199 31.2451 64.9375 31.2451H62.292ZM62.292 29.4609H64.9639C65.7549 29.4609 66.3584 29.2764 66.7744 28.9072C67.1904 28.5322 67.3984 27.9932 67.3984 27.29C67.3984 26.5986 67.1875 26.0479 66.7656 25.6377C66.3438 25.2217 65.7637 25.0078 65.0254 24.9961H62.292V29.4609ZM78.4639 31.4385H80.0547V33.1523H78.4639V36H76.3281V33.1523H70.7998L70.7383 31.8516L76.2578 23.2031H78.4639V31.4385ZM72.9795 31.4385H76.3281V26.0947L76.1699 26.376L72.9795 31.4385Z" fill="white"/>
<defs>
<linearGradient id="paint0_linear" x1="61.7414" y1="17.1119" x2="61.7414" y2="41.9328" gradientUnits="userSpaceOnUse">
<stop stop-color="#FA8A4F"/>
<stop offset="1" stop-color="#F55B03"/>
</linearGradient>
<linearGradient id="paint1_linear" x1="69.3955" y1="76.7872" x2="69.3955" y2="109.501" gradientUnits="userSpaceOnUse">
<stop stop-color="#FA8A51"/>
<stop offset="1" stop-color="#F55B03"/>
</linearGradient>
</defs>
</svg>
