<svg width="88" height="111" viewBox="0 0 88 111" fill="none" xmlns="http://www.w3.org/2000/svg">
<path d="M74.5591 2.44144V95.7023C74.5591 96.4628 73.9194 97.1032 73.1598 97.1032H2.43866C1.67908 97.1032 1.03943 96.4628 1.03943 95.7023V24.8961C1.03943 24.2957 1.2793 23.7353 1.71906 23.2951L23.2672 1.72097C23.707 1.28068 24.2667 1.04053 24.8663 1.04053H73.1598C73.9194 1.08055 74.5591 1.68095 74.5591 2.44144Z" fill="white" stroke="#BFBFBF" stroke-width="5.3303" stroke-miterlimit="10" stroke-linecap="round" stroke-linejoin="round"/>
<path d="M80.6757 15.1296H39.6982C37.8992 15.1296 36.46 16.5706 36.46 18.3718V36.7037C36.46 38.5049 37.8992 39.9458 39.6982 39.9458H80.6757C82.4747 39.9458 83.9139 38.5049 83.9139 36.7037V18.3317C83.9139 16.5706 82.4747 15.1296 80.6757 15.1296Z" fill="url(#paint0_linear)" stroke="white" stroke-width="6.3964" stroke-miterlimit="10"/>
<path d="M63.1253 55.6761H12.4731C11.8734 55.6761 11.3937 55.1958 11.3937 54.5954V51.6735C11.3937 51.0731 11.8734 50.5928 12.4731 50.5928H63.1253C63.7249 50.5928 64.2047 51.0731 64.2047 51.6735V54.5954C64.2447 55.1958 63.7249 55.6761 63.1253 55.6761Z" fill="#C7C7C7"/>
<path d="M63.1253 70.2056H12.4731C11.8734 70.2056 11.3937 69.7253 11.3937 69.1249V66.203C11.3937 65.6026 11.8734 65.1223 12.4731 65.1223H63.1253C63.7249 65.1223 64.2047 65.6026 64.2047 66.203V69.1249C64.2447 69.6853 63.7249 70.2056 63.1253 70.2056Z" fill="#C7C7C7"/>
<path d="M63.1253 84.6951H12.4731C11.8734 84.6951 11.3937 84.2148 11.3937 83.6144V80.6925C11.3937 80.0921 11.8734 79.6118 12.4731 79.6118H63.1253C63.7249 79.6118 64.2047 80.0921 64.2047 80.6925V83.6144C64.2447 84.2148 63.7249 84.6951 63.1253 84.6951Z" fill="#C7C7C7"/>
<path d="M23.9469 2.12128V22.4946C23.9469 23.2951 23.3072 23.9755 22.4677 23.9755H2.11886C1.71907 23.9755 1.51918 23.4952 1.79903 23.215L23.1873 1.80107C23.4671 1.56091 23.9469 1.72102 23.9469 2.12128Z" fill="#EFEFEF" stroke="#BFBFBF" stroke-width="5.3303" stroke-miterlimit="10" stroke-linecap="round" stroke-linejoin="round"/>
<path d="M46.5345 34.0622H44.1758V20.9736H49.5328C51.052 20.9736 52.1714 21.3739 52.931 22.1344C53.6506 22.8949 54.0504 23.8155 54.0504 24.8562C54.0504 26.0569 53.6506 27.0176 52.851 27.7781C52.0515 28.5386 51.052 28.8988 49.8127 28.8988H46.5345V34.0622V34.0622ZM46.5345 26.8575H49.333C50.0526 26.8575 50.6122 26.6974 51.012 26.3371C51.4118 25.9769 51.5717 25.4966 51.5717 24.8962C51.5717 24.3759 51.4118 23.8955 51.052 23.5353C50.6922 23.135 50.0526 22.9749 49.1331 22.9749H46.5745V26.8575H46.5345Z" fill="white"/>
<path d="M55.8494 34.0622V20.9736H60.6467C62.4457 20.9736 63.845 21.614 64.9244 22.8549C66.0038 24.1357 66.5235 25.6567 66.5235 27.5379C66.5235 29.3791 65.9638 30.9401 64.8444 32.1809C63.725 33.4218 62.1259 34.0622 60.087 34.0622H55.8494ZM58.288 32.1409H60.2469C61.2864 32.1409 62.2059 31.7407 62.9255 30.9401C63.6451 30.1396 64.0449 28.9789 64.0449 27.4178C64.0449 26.137 63.725 25.0563 63.0854 24.1757C62.4457 23.2951 61.6062 22.8549 60.5268 22.8549H58.288V32.1409Z" fill="white"/>
<path d="M71.201 34.0622H68.7623V20.9736H77.0378V23.015H71.201V26.5773H75.7985V28.5386H71.201V34.0622Z" fill="white"/>
<path d="M67.6029 107.51C76.6333 107.51 83.9539 100.181 83.9539 91.1392C83.9539 82.098 76.6333 74.7686 67.6029 74.7686C58.5724 74.7686 51.2518 82.098 51.2518 91.1392C51.2518 100.181 58.5724 107.51 67.6029 107.51Z" fill="url(#paint1_linear)" stroke="white" stroke-width="6.3964" stroke-miterlimit="10"/>
<path d="M69.7217 91.0991V81.9331C69.7217 81.5328 69.4018 81.1726 68.9621 81.1726H66.2036C65.8038 81.1726 65.444 81.4928 65.444 81.9331V91.0991C65.444 91.4993 65.1242 91.8596 64.6844 91.8596H61.6061C60.9665 91.8596 60.6467 92.5801 61.0464 93.0604L67.0032 100.345C67.283 100.705 67.8427 100.705 68.1625 100.345L74.1193 93.0604C74.519 92.5801 74.1592 91.8596 73.5596 91.8596H70.4813C70.0415 91.8596 69.7217 91.5394 69.7217 91.0991Z" fill="white"/>
<defs>
<linearGradient id="paint0_linear" x1="60.2013" y1="15.1119" x2="60.2013" y2="39.9328" gradientUnits="userSpaceOnUse">
<stop stop-color="#FA5555"/>
<stop offset="1" stop-color="#F20000"/>
</linearGradient>
<linearGradient id="paint1_linear" x1="67.5887" y1="74.7872" x2="67.5887" y2="107.501" gradientUnits="userSpaceOnUse">
<stop stop-color="#FA5555"/>
<stop offset="1" stop-color="#F20000"/>
</linearGradient>
</defs>
</svg>
