<svg width="89" height="111" viewBox="0 0 89 111" fill="none" xmlns="http://www.w3.org/2000/svg">
<path d="M76.295 4.65043V97.9113C76.295 98.6718 75.6554 99.3122 74.8958 99.3122H4.17462C3.41504 99.3122 2.77539 98.6718 2.77539 97.9113V27.1051C2.77539 26.5047 3.01525 25.9443 3.45501 25.504L25.0032 3.92996C25.4429 3.48967 26.0026 3.24951 26.6023 3.24951H74.8958C75.6554 3.28954 76.295 3.88993 76.295 4.65043Z" fill="white" stroke="#BFBFBF" stroke-width="5.3303" stroke-miterlimit="10" stroke-linecap="round" stroke-linejoin="round"/>
<path d="M82.4116 17.3389H41.4341C39.6351 17.3389 38.1959 18.7798 38.1959 20.581V38.913C38.1959 40.7141 39.6351 42.1551 41.4341 42.1551H82.4116C84.2106 42.1551 85.6499 40.7141 85.6499 38.913V20.581C85.6499 18.7798 84.2106 17.3389 82.4116 17.3389Z" fill="url(#paint0_linear)" stroke="white" stroke-width="6.3964" stroke-miterlimit="10"/>
<path d="M64.8612 57.885H14.2091C13.6094 57.885 13.1296 57.4047 13.1296 56.8044V53.8824C13.1296 53.2821 13.6094 52.8018 14.2091 52.8018H64.8612C65.4609 52.8018 65.9406 53.2821 65.9406 53.8824V56.8044C65.9806 57.4047 65.4609 57.885 64.8612 57.885Z" fill="#C7C7C7"/>
<path d="M64.8612 72.4144H14.2091C13.6094 72.4144 13.1296 71.9341 13.1296 71.3337V68.4118C13.1296 67.8114 13.6094 67.3311 14.2091 67.3311H64.8612C65.4609 67.3311 65.9406 67.8114 65.9406 68.4118V71.3337C65.9806 71.8941 65.4609 72.4144 64.8612 72.4144Z" fill="#C7C7C7"/>
<path d="M64.8612 86.9041H14.2091C13.6094 86.9041 13.1296 86.4238 13.1296 85.8234V82.9015C13.1296 82.3011 13.6094 81.8208 14.2091 81.8208H64.8612C65.4609 81.8208 65.9406 82.3011 65.9406 82.9015V85.8234C65.9806 86.4238 65.4609 86.9041 64.8612 86.9041Z" fill="#C7C7C7"/>
<path d="M25.6828 4.33036V24.7037C25.6828 25.5042 25.0432 26.1846 24.2037 26.1846H3.85481C3.45503 26.1846 3.25515 25.7043 3.53499 25.4241L24.8833 4.05017C25.2031 3.76999 25.6828 3.9301 25.6828 4.33036Z" fill="#EFEFEF" stroke="#BFBFBF" stroke-width="5.3303" stroke-miterlimit="10" stroke-linecap="round" stroke-linejoin="round"/>
<path d="M47.0711 36.2711H44.7124V23.1826H50.0695C51.5886 23.1826 52.708 23.5829 53.4676 24.3434C54.1872 25.1039 54.587 26.0244 54.587 27.0651C54.587 28.2659 54.1872 29.2266 53.3876 29.987C52.5881 30.7475 51.5886 31.1078 50.3493 31.1078H47.0711V36.2711ZM47.0711 29.0664H49.8696C50.5892 29.0664 51.1489 28.9063 51.5486 28.5461C51.9484 28.1859 52.1083 27.7056 52.1083 27.1052C52.1083 26.5848 51.9484 26.1045 51.5886 25.7443C51.2288 25.344 50.5892 25.1839 49.6697 25.1839H47.1111V29.0664H47.0711Z" fill="white"/>
<path d="M66.3405 36.2711H64.0617L59.1044 27.9057C59.0245 27.7856 58.9045 27.5855 58.7446 27.2653C58.6647 27.1452 58.5447 26.945 58.3848 26.6649V36.2311H56.5059V23.1426H59.1044L63.6619 30.8676C63.7019 30.9477 63.9817 31.3879 64.5015 32.2685V23.1426H66.3405V36.2711V36.2711Z" fill="white"/>
<path d="M79.1335 29.5867V36.2711H78.0941L77.3745 34.5099C76.6149 35.8308 75.4555 36.4712 73.8564 36.4712C72.0574 36.4712 70.7381 35.7908 69.8586 34.4299C68.9791 33.069 68.5393 31.508 68.5393 29.7068C68.5393 27.8256 69.019 26.2245 70.0185 24.9037C71.0179 23.5828 72.3772 22.9424 74.1362 22.9424C75.4555 22.9424 76.5349 23.3427 77.3745 24.1031C78.214 24.8636 78.7737 25.8243 78.9736 26.945L76.9347 27.3052C76.5349 25.7042 75.6554 24.9037 74.1762 24.9037C73.2567 24.9037 72.4971 25.2639 71.8975 26.0244C71.2978 26.7849 71.0179 27.9457 71.0179 29.5067C71.0179 32.8288 72.0574 34.4699 74.1362 34.4699C74.9358 34.4699 75.6154 34.1897 76.1351 33.6293C76.6548 33.069 76.9347 32.3485 76.9347 31.4279H74.2162V29.5467H79.1335V29.5867Z" fill="white"/>
<path d="M69.3388 109.719C78.3692 109.719 85.6898 102.39 85.6898 93.3485C85.6898 84.3072 78.3692 76.9778 69.3388 76.9778C60.3084 76.9778 52.9878 84.3072 52.9878 93.3485C52.9878 102.39 60.3084 109.719 69.3388 109.719Z" fill="url(#paint1_linear)" stroke="white" stroke-width="6.3964" stroke-miterlimit="10"/>
<path d="M71.4576 93.3083V84.1423C71.4576 83.7421 71.1378 83.3818 70.6981 83.3818H67.9396C67.5398 83.3818 67.18 83.7021 67.18 84.1423V93.3083C67.18 93.7086 66.8602 94.0688 66.4204 94.0688H63.3421C62.7024 94.0688 62.3826 94.7893 62.7824 95.2696L68.7391 102.554C69.019 102.915 69.5787 102.915 69.8985 102.554L75.8552 95.2696C76.255 94.7893 75.8952 94.0688 75.2955 94.0688H72.2172C71.7775 94.0688 71.4576 93.7486 71.4576 93.3083Z" fill="white"/>
<defs>
<linearGradient id="paint0_linear" x1="61.9373" y1="17.3211" x2="61.9373" y2="42.142" gradientUnits="userSpaceOnUse">
<stop stop-color="#44CEFA"/>
<stop offset="1" stop-color="#009ACC"/>
</linearGradient>
<linearGradient id="paint1_linear" x1="69.3247" y1="76.9964" x2="69.3247" y2="109.711" gradientUnits="userSpaceOnUse">
<stop stop-color="#41CDFA"/>
<stop offset="1" stop-color="#009ACC"/>
</linearGradient>
</defs>
</svg>
