<svg width="87" height="111" viewBox="0 0 87 111" fill="none" xmlns="http://www.w3.org/2000/svg">
<path d="M76.3658 2.44144V95.7023C76.3658 96.4628 75.7262 97.1032 74.9666 97.1032H4.24542C3.48584 97.1032 2.84619 96.4628 2.84619 95.7023V24.8961C2.84619 24.2957 3.08606 23.7353 3.52582 23.2951L25.074 1.72097C25.5138 1.28068 26.0734 1.04053 26.6731 1.04053H74.9666C75.7262 1.08055 76.3658 1.68095 76.3658 2.44144Z" fill="white" stroke="#BFBFBF" stroke-width="5.3303" stroke-miterlimit="10" stroke-linecap="round" stroke-linejoin="round"/>
<path d="M82.4824 15.1296H41.5049C39.7059 15.1296 38.2667 16.5706 38.2667 18.3718V36.7037C38.2667 38.5049 39.7059 39.9458 41.5049 39.9458H82.4824C84.2814 39.9458 85.7206 38.5049 85.7206 36.7037V18.3317C85.7206 16.5706 84.2814 15.1296 82.4824 15.1296Z" fill="url(#paint0_linear)" stroke="white" stroke-width="6.3964" stroke-miterlimit="10"/>
<path d="M64.9321 55.6761H14.2799C13.6802 55.6761 13.2005 55.1958 13.2005 54.5954V51.6735C13.2005 51.0731 13.6802 50.5928 14.2799 50.5928H64.9321C65.5318 50.5928 66.0115 51.0731 66.0115 51.6735V54.5954C66.0515 55.1958 65.5318 55.6761 64.9321 55.6761Z" fill="#C7C7C7"/>
<path d="M64.9321 70.2056H14.2799C13.6802 70.2056 13.2005 69.7253 13.2005 69.1249V66.203C13.2005 65.6026 13.6802 65.1223 14.2799 65.1223H64.9321C65.5318 65.1223 66.0115 65.6026 66.0115 66.203V69.1249C66.0515 69.6853 65.5318 70.2056 64.9321 70.2056Z" fill="#C7C7C7"/>
<path d="M64.9321 84.6951H14.2799C13.6802 84.6951 13.2005 84.2148 13.2005 83.6144V80.6925C13.2005 80.0921 13.6802 79.6118 14.2799 79.6118H64.9321C65.5318 79.6118 66.0115 80.0921 66.0115 80.6925V83.6144C66.0515 84.2148 65.5318 84.6951 64.9321 84.6951Z" fill="#C7C7C7"/>
<path d="M25.7536 2.12128V22.4946C25.7536 23.2951 25.114 23.9755 24.2744 23.9755H3.92561C3.52583 23.9755 3.32595 23.4952 3.60579 23.215L24.994 1.80107C25.2739 1.56091 25.7536 1.72102 25.7536 2.12128Z" fill="#EFEFEF" stroke="#BFBFBF" stroke-width="5.3303" stroke-miterlimit="10" stroke-linecap="round" stroke-linejoin="round"/>
<path d="M48.9809 34.0622H46.6222V20.9736H51.9793C53.4984 20.9736 54.6178 21.3739 55.3774 22.1344C56.097 22.8949 56.4968 23.8155 56.4968 24.8562C56.4968 26.0569 56.097 27.0176 55.2974 27.7781C54.4979 28.5386 53.4984 28.8988 52.2591 28.8988H48.9809V34.0622ZM48.9809 26.8575H51.7794C52.499 26.8575 53.0587 26.6974 53.4584 26.3371C53.8582 25.9769 54.0181 25.4966 54.0181 24.8962C54.0181 24.3759 53.8582 23.8955 53.4984 23.5353C53.1386 23.135 52.499 22.9749 51.5795 22.9749H48.9809V26.8575Z" fill="white"/>
<path d="M60.7345 34.0622H58.3757V20.9736H63.7328C65.252 20.9736 66.3714 21.3739 67.1309 22.1344C67.8506 22.8949 68.2503 23.8155 68.2503 24.8562C68.2503 26.0569 67.8505 27.0176 67.051 27.7781C66.2514 28.5386 65.252 28.8988 64.0126 28.8988H60.7345V34.0622ZM60.7345 26.8575H63.5329C64.2525 26.8575 64.8122 26.6974 65.212 26.3371C65.6118 25.9769 65.7717 25.4966 65.7717 24.8962C65.7717 24.3759 65.6118 23.8955 65.2519 23.5353C64.8921 23.135 64.2525 22.9749 63.333 22.9749H60.7744V26.8575H60.7345Z" fill="white"/>
<path d="M74.6868 34.0622H72.1681V23.015H68.6901V20.9736H78.1649V23.015H74.6868V34.0622Z" fill="white"/>
<path d="M69.4096 107.51C78.44 107.51 85.7607 100.181 85.7607 91.1392C85.7607 82.098 78.44 74.7686 69.4096 74.7686C60.3792 74.7686 53.0586 82.098 53.0586 91.1392C53.0586 100.181 60.3792 107.51 69.4096 107.51Z" fill="url(#paint1_linear)" stroke="white" stroke-width="6.3964" stroke-miterlimit="10"/>
<path d="M71.5285 91.0991V81.9331C71.5285 81.5328 71.2086 81.1726 70.7689 81.1726H68.0104C67.6106 81.1726 67.2508 81.4928 67.2508 81.9331V91.0991C67.2508 91.4993 66.931 91.8596 66.4912 91.8596H63.4129C62.7733 91.8596 62.4534 92.5801 62.8532 93.0604L68.8099 100.345C69.0898 100.705 69.6495 100.705 69.9693 100.345L75.9261 93.0604C76.3258 92.5801 75.966 91.8596 75.3664 91.8596H72.2881C71.8483 91.8596 71.5285 91.5394 71.5285 91.0991Z" fill="white"/>
<defs>
<linearGradient id="paint0_linear" x1="62.0081" y1="15.1119" x2="62.0081" y2="39.9328" gradientUnits="userSpaceOnUse">
<stop stop-color="#FA8A4F"/>
<stop offset="1" stop-color="#F55B03"/>
</linearGradient>
<linearGradient id="paint1_linear" x1="69.3955" y1="74.7872" x2="69.3955" y2="107.501" gradientUnits="userSpaceOnUse">
<stop stop-color="#FA8A51"/>
<stop offset="1" stop-color="#F55B03"/>
</linearGradient>
</defs>
</svg>
