<svg width="88" height="113" viewBox="0 0 88 113" fill="none" xmlns="http://www.w3.org/2000/svg">
<path d="M74.5591 4.54593V97.8068C74.5591 98.5673 73.9194 99.2077 73.1598 99.2077H2.43866C1.67908 99.2077 1.03943 98.5673 1.03943 97.8068V27.0006C1.03943 26.4002 1.2793 25.8398 1.71906 25.3995L23.2672 3.82546C23.707 3.38517 24.2667 3.14502 24.8663 3.14502H73.1598C73.9194 3.18505 74.5591 3.78544 74.5591 4.54593Z" fill="white" stroke="#BFBFBF" stroke-width="5.3303" stroke-miterlimit="10" stroke-linecap="round" stroke-linejoin="round"/>
<path d="M80.6757 17.2341H39.6982C37.8992 17.2341 36.46 18.6751 36.46 20.4762V38.8082C36.46 40.6094 37.8992 42.0503 39.6982 42.0503H80.6757C82.4747 42.0503 83.9139 40.6094 83.9139 38.8082V20.4762C83.9139 18.6751 82.4747 17.2341 80.6757 17.2341Z" fill="url(#paint0_linear)" stroke="white" stroke-width="6.3964" stroke-miterlimit="10"/>
<path d="M63.1253 57.7806H12.4731C11.8734 57.7806 11.3937 57.3003 11.3937 56.6999V53.778C11.3937 53.1776 11.8734 52.6973 12.4731 52.6973H63.1253C63.7249 52.6973 64.2047 53.1776 64.2047 53.778V56.6999C64.2447 57.3003 63.7249 57.7806 63.1253 57.7806Z" fill="#C7C7C7"/>
<path d="M63.1253 72.3101H12.4731C11.8734 72.3101 11.3937 71.8298 11.3937 71.2294V68.3075C11.3937 67.7071 11.8734 67.2268 12.4731 67.2268H63.1253C63.7249 67.2268 64.2047 67.7071 64.2047 68.3075V71.2294C64.2447 71.7897 63.7249 72.3101 63.1253 72.3101Z" fill="#C7C7C7"/>
<path d="M63.1253 86.7996H12.4731C11.8734 86.7996 11.3937 86.3193 11.3937 85.7189V82.797C11.3937 82.1966 11.8734 81.7163 12.4731 81.7163H63.1253C63.7249 81.7163 64.2047 82.1966 64.2047 82.797V85.7189C64.2447 86.3193 63.7249 86.7996 63.1253 86.7996Z" fill="#C7C7C7"/>
<path d="M23.9469 4.22577V24.5991C23.9469 25.3996 23.3072 26.08 22.4677 26.08H2.11886C1.71907 26.08 1.51918 25.5997 1.79903 25.3195L23.1873 3.90556C23.4671 3.66541 23.9469 3.82551 23.9469 4.22577Z" fill="#EFEFEF" stroke="#BFBFBF" stroke-width="5.3303" stroke-miterlimit="10" stroke-linecap="round" stroke-linejoin="round"/>
<path d="M53.0508 36.1664H50.5722L48.5333 30.8029H45.2152V36.1664H42.8564V23.0779H48.5333C50.0925 23.0779 51.2518 23.4381 52.0114 24.1586C52.771 24.8791 53.1308 25.7997 53.1308 26.9204C53.1308 28.6015 52.3312 29.7623 50.7721 30.4027L53.0508 36.1664ZM45.2152 28.9217H48.1335C48.9731 28.9217 49.6127 28.7616 50.0125 28.4014C50.4123 28.0411 50.6522 27.5608 50.6522 26.9204C50.6522 26.36 50.4523 25.8797 50.0525 25.5195C49.6527 25.1592 49.053 24.9991 48.3334 24.9991H45.2152V28.9217Z" fill="white"/>
<path d="M65.7239 36.1664H63.2053L62.1659 33.0444H57.1287L56.0892 36.1664H54.0903L58.408 23.0779H61.3264L65.7239 36.1664ZM61.5262 31.1632L59.6073 25.3193L57.6884 31.1632H61.5262Z" fill="white"/>
<path d="M77.4775 36.1664H74.9988L72.96 30.8029H69.6418V36.1664H67.2831V23.0779H72.96C74.5191 23.0779 75.6785 23.4381 76.4381 24.1586C77.1976 24.8791 77.5574 25.7997 77.5574 26.9204C77.5574 28.6015 76.7579 29.7623 75.1987 30.4027L77.4775 36.1664ZM69.6418 28.9217H72.5602C73.3997 28.9217 74.0394 28.7616 74.4392 28.4014C74.8389 28.0411 75.0788 27.5608 75.0788 26.9204C75.0788 26.36 74.8789 25.8797 74.4791 25.5195C74.0794 25.1592 73.4797 24.9991 72.7601 24.9991H69.6418V28.9217V28.9217Z" fill="white"/>
<path d="M67.6029 109.614C76.6333 109.614 83.9539 102.285 83.9539 93.2437C83.9539 84.2025 76.6333 76.873 67.6029 76.873C58.5724 76.873 51.2518 84.2025 51.2518 93.2437C51.2518 102.285 58.5724 109.614 67.6029 109.614Z" fill="url(#paint1_linear)" stroke="white" stroke-width="6.3964" stroke-miterlimit="10"/>
<path d="M69.7217 93.2038V84.0378C69.7217 83.6376 69.4018 83.2773 68.9621 83.2773H66.2036C65.8038 83.2773 65.444 83.5976 65.444 84.0378V93.2038C65.444 93.6041 65.1242 93.9643 64.6844 93.9643H61.6061C60.9665 93.9643 60.6467 94.6848 61.0464 95.1651L67.0032 102.45C67.283 102.81 67.8427 102.81 68.1625 102.45L74.1193 95.1651C74.519 94.6848 74.1592 93.9643 73.5596 93.9643H70.4813C70.0415 93.9643 69.7217 93.6441 69.7217 93.2038Z" fill="white"/>
<defs>
<linearGradient id="paint0_linear" x1="60.2013" y1="17.2164" x2="60.2013" y2="42.0373" gradientUnits="userSpaceOnUse">
<stop stop-color="#DE4ED9"/>
<stop offset="1" stop-color="#730070"/>
</linearGradient>
<linearGradient id="paint1_linear" x1="67.5887" y1="76.8917" x2="67.5887" y2="109.606" gradientUnits="userSpaceOnUse">
<stop stop-color="#DE4ED9"/>
<stop offset="1" stop-color="#730070"/>
</linearGradient>
</defs>
</svg>
