<svg width="90" height="111" viewBox="0 0 90 111" fill="none" xmlns="http://www.w3.org/2000/svg">
<path d="M76.63 4.65043V97.9113C76.63 98.6718 75.9903 99.3122 75.2307 99.3122H4.50958C3.75 99.3122 3.11035 98.6718 3.11035 97.9113V27.1051C3.11035 26.5047 3.35022 25.9443 3.78998 25.504L25.3382 3.92996C25.7779 3.48967 26.3376 3.24951 26.9373 3.24951H75.2307C75.9903 3.28954 76.63 3.88993 76.63 4.65043Z" fill="white" stroke="#BFBFBF" stroke-width="5.3303" stroke-miterlimit="10" stroke-linecap="round" stroke-linejoin="round"/>
<path d="M82.7466 17.3389H41.7691C39.9701 17.3389 38.5309 18.7798 38.5309 20.581V38.913C38.5309 40.7141 39.9701 42.1551 41.7691 42.1551H82.7466C84.5456 42.1551 85.9848 40.7141 85.9848 38.913V20.581C85.9848 18.7798 84.5456 17.3389 82.7466 17.3389Z" fill="url(#paint0_linear)" stroke="white" stroke-width="6.3964" stroke-miterlimit="10"/>
<path d="M65.1963 57.885H14.5441C13.9445 57.885 13.4647 57.4047 13.4647 56.8044V53.8824C13.4647 53.2821 13.9445 52.8018 14.5441 52.8018H65.1963C65.796 52.8018 66.2757 53.2821 66.2757 53.8824V56.8044C66.3157 57.4047 65.796 57.885 65.1963 57.885Z" fill="#C7C7C7"/>
<path d="M65.1963 72.4144H14.5441C13.9445 72.4144 13.4647 71.9341 13.4647 71.3337V68.4118C13.4647 67.8114 13.9445 67.3311 14.5441 67.3311H65.1963C65.796 67.3311 66.2757 67.8114 66.2757 68.4118V71.3337C66.3157 71.8941 65.796 72.4144 65.1963 72.4144Z" fill="#C7C7C7"/>
<path d="M65.1963 86.9041H14.5441C13.9445 86.9041 13.4647 86.4238 13.4647 85.8234V82.9015C13.4647 82.3011 13.9445 81.8208 14.5441 81.8208H65.1963C65.796 81.8208 66.2757 82.3011 66.2757 82.9015V85.8234C66.3157 86.4238 65.796 86.9041 65.1963 86.9041Z" fill="#C7C7C7"/>
<path d="M26.0178 4.33036V24.7037C26.0178 25.5042 25.3781 26.1846 24.5386 26.1846H4.18977C3.78999 26.1846 3.59011 25.7043 3.86995 25.4241L25.2182 4.05017C25.5381 3.76999 26.0178 3.9301 26.0178 4.33036Z" fill="#EFEFEF" stroke="#BFBFBF" stroke-width="5.3303" stroke-miterlimit="10" stroke-linecap="round" stroke-linejoin="round"/>
<path d="M46.0068 32.7089L48.2856 32.2286C48.5654 33.5094 49.6049 34.1899 51.4438 34.1899C52.2834 34.1899 52.923 34.0298 53.3628 33.7096C53.8025 33.3893 54.0424 32.949 54.0424 32.4687C54.0424 32.1085 53.9225 31.7883 53.7226 31.4681C53.5227 31.1479 53.083 30.9077 52.4033 30.7476L49.9247 30.1072C49.0851 29.8671 48.4455 29.6269 48.0457 29.3467C47.6459 29.0665 47.3261 28.6663 47.0463 28.1459C46.8064 27.6256 46.6864 27.0652 46.6864 26.5049C46.6864 25.3441 47.1262 24.3835 48.0057 23.703C48.8853 22.9826 49.9647 22.6624 51.3239 22.6624C52.4433 22.6624 53.4428 22.9025 54.3223 23.3828C55.2018 23.8632 55.7615 24.5836 56.0014 25.4642L53.7626 26.0245C53.4028 25.0239 52.6032 24.5436 51.3639 24.5436C50.6443 24.5436 50.0846 24.7037 49.6848 24.9839C49.285 25.3041 49.1251 25.6643 49.1251 26.1446C49.1251 26.9051 49.7248 27.4255 50.9241 27.7056L53.1629 28.266C54.5222 28.5862 55.4017 29.1065 55.8814 29.747C56.3212 30.4274 56.561 31.1479 56.561 31.9484C56.561 33.2292 56.0813 34.2299 55.1218 34.9904C54.1624 35.7109 52.8831 36.1111 51.3639 36.1111C50.0846 36.1111 48.9252 35.8309 47.9657 35.3106C46.9663 34.7102 46.3267 33.8697 46.0068 32.7089Z" fill="white"/>
<path d="M63.3973 35.8708H60.9986L56.9608 22.7822H59.4395L62.4378 32.7888L65.5161 22.7822H67.475L63.3973 35.8708Z" fill="white"/>
<path d="M78.549 29.1866V35.8709H77.5096L76.79 34.1098C76.0304 35.4307 74.871 36.0711 73.2719 36.0711C71.4728 36.0711 70.1536 35.3906 69.274 34.0298C68.3945 32.6689 67.9548 31.1078 67.9548 29.3067C67.9548 27.4254 68.4345 25.8244 69.434 24.5035C70.4334 23.1827 71.7927 22.5422 73.5517 22.5422C74.871 22.5422 75.9504 22.9425 76.79 23.703C77.6295 24.4635 78.1892 25.4241 78.3891 26.5449L76.3502 26.9051C75.9504 25.3041 75.0709 24.5035 73.5917 24.5035C72.6722 24.5035 71.9126 24.8638 71.3129 25.6243C70.7133 26.3848 70.4334 27.5455 70.4334 29.1065C70.4334 32.4287 71.4728 34.0698 73.5517 34.0698C74.3513 34.0698 75.0309 33.7896 75.5506 33.2292C76.0703 32.6689 76.3502 31.9484 76.3502 31.0278H73.6317V29.1466H78.549V29.1866Z" fill="white"/>
<path d="M69.6738 109.719C78.7042 109.719 86.0248 102.39 86.0248 93.3485C86.0248 84.3072 78.7042 76.9778 69.6738 76.9778C60.6433 76.9778 53.3228 84.3072 53.3228 93.3485C53.3228 102.39 60.6433 109.719 69.6738 109.719Z" fill="url(#paint1_linear)" stroke="white" stroke-width="6.3964" stroke-miterlimit="10"/>
<path d="M71.7926 93.3083V84.1423C71.7926 83.7421 71.4728 83.3818 71.033 83.3818H68.2745C67.8747 83.3818 67.515 83.7021 67.515 84.1423V93.3083C67.515 93.7086 67.1951 94.0688 66.7554 94.0688H63.677C63.0374 94.0688 62.7176 94.7893 63.1174 95.2696L69.0741 102.554C69.3539 102.915 69.9136 102.915 70.2335 102.554L76.1902 95.2696C76.59 94.7893 76.2302 94.0688 75.6305 94.0688H72.5522C72.1124 94.0688 71.7926 93.7486 71.7926 93.3083Z" fill="white"/>
<defs>
<linearGradient id="paint0_linear" x1="62.2722" y1="17.3211" x2="62.2722" y2="42.142" gradientUnits="userSpaceOnUse">
<stop stop-color="#FA64BC"/>
<stop offset="1" stop-color="#C7006C"/>
</linearGradient>
<linearGradient id="paint1_linear" x1="69.6596" y1="76.9964" x2="69.6596" y2="109.711" gradientUnits="userSpaceOnUse">
<stop stop-color="#FA62BB"/>
<stop offset="1" stop-color="#C7006C"/>
</linearGradient>
</defs>
</svg>
