<svg width="87" height="113" viewBox="0 0 87 113" fill="none" xmlns="http://www.w3.org/2000/svg">
<path d="M76.5196 4.40091V97.6617C76.5196 98.4222 75.88 99.0627 75.1204 99.0627H4.39923C3.63965 99.0627 3 98.4222 3 97.6617V26.8556C3 26.2552 3.23987 25.6948 3.67963 25.2545L25.2278 3.68044C25.6676 3.24015 26.2273 3 26.8269 3H75.1204C75.88 3.04003 76.5196 3.64042 76.5196 4.40091Z" fill="white" stroke="#BFBFBF" stroke-width="5.3303" stroke-miterlimit="10" stroke-linecap="round" stroke-linejoin="round"/>
<path d="M82.6362 17.0891H41.6587C39.8597 17.0891 38.4205 18.5301 38.4205 20.3312V38.6632C38.4205 40.4644 39.8597 41.9053 41.6587 41.9053H82.6362C84.4353 41.9053 85.8745 40.4644 85.8745 38.6632V20.3312C85.8745 18.5301 84.4353 17.0891 82.6362 17.0891Z" fill="url(#paint0_linear)" stroke="white" stroke-width="6.3964" stroke-miterlimit="10"/>
<path d="M65.086 57.6355H14.4337C13.8341 57.6355 13.3543 57.1552 13.3543 56.5549V53.6329C13.3543 53.0325 13.8341 52.5522 14.4337 52.5522H65.086C65.6856 52.5522 66.1653 53.0325 66.1653 53.6329V56.5549C66.2053 57.1552 65.6856 57.6355 65.086 57.6355Z" fill="#C7C7C7"/>
<path d="M65.086 72.1651H14.4337C13.8341 72.1651 13.3543 71.6848 13.3543 71.0844V68.1625C13.3543 67.5621 13.8341 67.0818 14.4337 67.0818H65.086C65.6856 67.0818 66.1653 67.5621 66.1653 68.1625V71.0844C66.2053 71.6447 65.6856 72.1651 65.086 72.1651Z" fill="#C7C7C7"/>
<path d="M65.086 86.6546H14.4337C13.8341 86.6546 13.3543 86.1743 13.3543 85.5739V82.652C13.3543 82.0516 13.8341 81.5713 14.4337 81.5713H65.086C65.6856 81.5713 66.1653 82.0516 66.1653 82.652V85.5739C66.2053 86.1743 65.6856 86.6546 65.086 86.6546Z" fill="#C7C7C7"/>
<path d="M25.9074 4.08059V24.4539C25.9074 25.2544 25.2678 25.9349 24.4282 25.9349H4.07942C3.67964 25.9349 3.47976 25.4545 3.7596 25.1744L25.1079 3.80042C25.4277 3.52023 25.9074 3.68033 25.9074 4.08059Z" fill="#EFEFEF" stroke="#BFBFBF" stroke-width="5.3303" stroke-miterlimit="10" stroke-linecap="round" stroke-linejoin="round"/>
<path d="M53.1325 36.0214H50.6139V24.9742H47.1358V22.9329H56.6106V24.9742H53.1325V36.0214Z" fill="white"/>
<path d="M67.6045 36.0214H64.8461L61.9676 30.858L58.8893 36.0214H56.6906L60.8083 29.217L57.2502 22.9329H59.9687L62.3674 27.2957L64.926 22.9329H67.1248L63.4868 28.8968L67.6045 36.0214Z" fill="white"/>
<path d="M73.7212 36.0214H71.2026V24.9742H67.7245V22.9329H77.1992V24.9742H73.7212V36.0214Z" fill="white"/>
<path d="M69.5634 109.469C78.5938 109.469 85.9145 102.14 85.9145 93.0987C85.9145 84.0574 78.5938 76.728 69.5634 76.728C60.533 76.728 53.2124 84.0574 53.2124 93.0987C53.2124 102.14 60.533 109.469 69.5634 109.469Z" fill="url(#paint1_linear)" stroke="white" stroke-width="6.3964" stroke-miterlimit="10"/>
<path d="M71.6823 93.0588V83.8928C71.6823 83.4926 71.3624 83.1323 70.9227 83.1323H68.1642C67.7644 83.1323 67.4046 83.4525 67.4046 83.8928V93.0588C67.4046 93.4591 67.0848 93.8193 66.6451 93.8193H63.5667C62.9271 93.8193 62.6072 94.5398 63.007 95.0201L68.9638 102.305C69.2436 102.665 69.8033 102.665 70.1231 102.305L76.0799 95.0201C76.4796 94.5398 76.1198 93.8193 75.5202 93.8193H72.4419C72.0021 93.8193 71.6823 93.4991 71.6823 93.0588Z" fill="white"/>
<defs>
<linearGradient id="paint0_linear" x1="62.1619" y1="17.0714" x2="62.1619" y2="41.8923" gradientUnits="userSpaceOnUse">
<stop stop-color="#44A4FA"/>
<stop offset="1" stop-color="#007AE8"/>
</linearGradient>
<linearGradient id="paint1_linear" x1="69.5493" y1="76.7467" x2="69.5493" y2="109.461" gradientUnits="userSpaceOnUse">
<stop stop-color="#41A2FA"/>
<stop offset="1" stop-color="#007AE8"/>
</linearGradient>
</defs>
</svg>
