<svg width="90" height="111" viewBox="0 0 90 111" fill="none" xmlns="http://www.w3.org/2000/svg">
<path d="M76.63 2.44144V95.7023C76.63 96.4628 75.9903 97.1032 75.2307 97.1032H4.50958C3.75 97.1032 3.11035 96.4628 3.11035 95.7023V24.8961C3.11035 24.2957 3.35022 23.7353 3.78998 23.2951L25.3382 1.72097C25.7779 1.28068 26.3376 1.04053 26.9373 1.04053H75.2307C75.9903 1.08055 76.63 1.68095 76.63 2.44144Z" fill="white" stroke="#BFBFBF" stroke-width="5.3303" stroke-miterlimit="10" stroke-linecap="round" stroke-linejoin="round"/>
<path d="M82.7466 15.1296H41.7691C39.9701 15.1296 38.5309 16.5706 38.5309 18.3718V36.7037C38.5309 38.5049 39.9701 39.9458 41.7691 39.9458H82.7466C84.5456 39.9458 85.9848 38.5049 85.9848 36.7037V18.3317C85.9848 16.5706 84.5456 15.1296 82.7466 15.1296Z" fill="url(#paint0_linear)" stroke="white" stroke-width="6.3964" stroke-miterlimit="10"/>
<path d="M65.1963 55.6761H14.5441C13.9445 55.6761 13.4647 55.1958 13.4647 54.5954V51.6735C13.4647 51.0731 13.9445 50.5928 14.5441 50.5928H65.1963C65.796 50.5928 66.2757 51.0731 66.2757 51.6735V54.5954C66.3157 55.1958 65.796 55.6761 65.1963 55.6761Z" fill="#C7C7C7"/>
<path d="M65.1963 70.2056H14.5441C13.9445 70.2056 13.4647 69.7253 13.4647 69.1249V66.203C13.4647 65.6026 13.9445 65.1223 14.5441 65.1223H65.1963C65.796 65.1223 66.2757 65.6026 66.2757 66.203V69.1249C66.3157 69.6853 65.796 70.2056 65.1963 70.2056Z" fill="#C7C7C7"/>
<path d="M65.1963 84.6951H14.5441C13.9445 84.6951 13.4647 84.2148 13.4647 83.6144V80.6925C13.4647 80.0921 13.9445 79.6118 14.5441 79.6118H65.1963C65.796 79.6118 66.2757 80.0921 66.2757 80.6925V83.6144C66.3157 84.2148 65.796 84.6951 65.1963 84.6951Z" fill="#C7C7C7"/>
<path d="M26.0178 2.12128V22.4946C26.0178 23.2951 25.3781 23.9755 24.5386 23.9755H4.18977C3.78999 23.9755 3.59011 23.4952 3.86995 23.215L25.2582 1.80107C25.538 1.56091 26.0178 1.72102 26.0178 2.12128Z" fill="#EFEFEF" stroke="#BFBFBF" stroke-width="5.3303" stroke-miterlimit="10" stroke-linecap="round" stroke-linejoin="round"/>
<path d="M57.2407 34.0622H54.4822L51.6038 28.8988L48.5255 34.0622H46.3267L50.4444 27.2577L46.8863 20.9736H49.6049L52.0035 25.3365L54.5621 20.9736H56.7609L53.1229 26.9375L57.2407 34.0622Z" fill="white"/>
<path d="M66.7953 34.0622H58.7598V20.9736H61.2384V31.9008H66.7953V34.0622Z" fill="white"/>
<path d="M67.1952 30.9001L69.4739 30.4198C69.7538 31.7006 70.7932 32.381 72.6322 32.381C73.4717 32.381 74.1114 32.2209 74.5511 31.9007C74.9909 31.5805 75.2308 31.1402 75.2308 30.6599C75.2308 30.2997 75.1108 29.9795 74.9109 29.6593C74.711 29.3391 74.2713 29.0989 73.5917 28.9388L71.113 28.2984C70.2735 28.0582 69.6338 27.8181 69.2341 27.5379C68.8343 27.2577 68.5145 26.8574 68.2346 26.3371C67.9947 25.8168 67.8748 25.2564 67.8748 24.696C67.8748 23.5353 68.3146 22.5746 69.1941 21.8942C70.0736 21.1737 71.153 20.8535 72.5123 20.8535C73.6316 20.8535 74.6311 21.0937 75.5106 21.574C76.3901 22.0543 76.9498 22.7748 77.1897 23.6553L74.9509 24.2157C74.5911 23.2151 73.7915 22.7347 72.5522 22.7347C71.8326 22.7347 71.2729 22.8948 70.8731 23.175C70.4734 23.4952 70.3135 23.8555 70.3135 24.3358C70.3135 25.0963 70.9131 25.6166 72.1125 25.8968L74.3512 26.4572C75.7105 26.7774 76.59 27.2977 77.0697 27.9381C77.5095 28.6186 77.7494 29.3391 77.7494 30.1396C77.7494 31.4204 77.2696 32.4211 76.3102 33.1816C75.3507 33.902 74.0714 34.3023 72.5522 34.3023C71.2729 34.3023 70.1136 34.0221 69.1541 33.5018C68.1546 32.9014 67.515 32.0608 67.1952 30.9001Z" fill="white"/>
<path d="M69.6738 107.51C78.7042 107.51 86.0248 100.181 86.0248 91.1392C86.0248 82.098 78.7042 74.7686 69.6738 74.7686C60.6433 74.7686 53.3228 82.098 53.3228 91.1392C53.3228 100.181 60.6433 107.51 69.6738 107.51Z" fill="url(#paint1_linear)" stroke="white" stroke-width="6.3964" stroke-miterlimit="10"/>
<path d="M71.7926 91.0991V81.9331C71.7926 81.5328 71.4728 81.1726 71.033 81.1726H68.2745C67.8747 81.1726 67.515 81.4928 67.515 81.9331V91.0991C67.515 91.4993 67.1951 91.8596 66.7554 91.8596H63.677C63.0374 91.8596 62.7176 92.5801 63.1174 93.0604L69.0741 100.345C69.3539 100.705 69.9136 100.705 70.2335 100.345L76.1902 93.0604C76.59 92.5801 76.2302 91.8596 75.6305 91.8596H72.5522C72.1124 91.8596 71.7926 91.5394 71.7926 91.0991Z" fill="white"/>
<defs>
<linearGradient id="paint0_linear" x1="62.2722" y1="15.1119" x2="62.2722" y2="39.9328" gradientUnits="userSpaceOnUse">
<stop stop-color="#57E351"/>
<stop offset="1" stop-color="#07BD00"/>
</linearGradient>
<linearGradient id="paint1_linear" x1="69.6596" y1="74.7872" x2="69.6596" y2="107.501" gradientUnits="userSpaceOnUse">
<stop stop-color="#55E651"/>
<stop offset="1" stop-color="#07BD00"/>
</linearGradient>
</defs>
</svg>
