<svg width="89" height="113" viewBox="0 0 89 113" fill="none" xmlns="http://www.w3.org/2000/svg">
<path d="M76.295 4.54593V97.8068C76.295 98.5673 75.6554 99.2077 74.8958 99.2077H4.17462C3.41504 99.2077 2.77539 98.5673 2.77539 97.8068V27.0006C2.77539 26.4002 3.01525 25.8398 3.45501 25.3995L25.0032 3.82546C25.4429 3.38517 26.0026 3.14502 26.6023 3.14502H74.8958C75.6554 3.18505 76.295 3.78544 76.295 4.54593Z" fill="white" stroke="#BFBFBF" stroke-width="5.3303" stroke-miterlimit="10" stroke-linecap="round" stroke-linejoin="round"/>
<path d="M82.4116 17.2341H41.4341C39.6351 17.2341 38.1959 18.6751 38.1959 20.4762V38.8082C38.1959 40.6094 39.6351 42.0503 41.4341 42.0503H82.4116C84.2106 42.0503 85.6499 40.6094 85.6499 38.8082V20.4762C85.6499 18.6751 84.2106 17.2341 82.4116 17.2341Z" fill="url(#paint0_linear)" stroke="white" stroke-width="6.3964" stroke-miterlimit="10"/>
<path d="M64.8612 57.7806H14.2091C13.6094 57.7806 13.1296 57.3003 13.1296 56.6999V53.778C13.1296 53.1776 13.6094 52.6973 14.2091 52.6973H64.8612C65.4609 52.6973 65.9406 53.1776 65.9406 53.778V56.6999C65.9806 57.3003 65.4609 57.7806 64.8612 57.7806Z" fill="#C7C7C7"/>
<path d="M64.8612 72.3101H14.2091C13.6094 72.3101 13.1296 71.8298 13.1296 71.2294V68.3075C13.1296 67.7071 13.6094 67.2268 14.2091 67.2268H64.8612C65.4609 67.2268 65.9406 67.7071 65.9406 68.3075V71.2294C65.9806 71.7897 65.4609 72.3101 64.8612 72.3101Z" fill="#C7C7C7"/>
<path d="M64.8612 86.7996H14.2091C13.6094 86.7996 13.1296 86.3193 13.1296 85.7189V82.797C13.1296 82.1966 13.6094 81.7163 14.2091 81.7163H64.8612C65.4609 81.7163 65.9406 82.1966 65.9406 82.797V85.7189C65.9806 86.3193 65.4609 86.7996 64.8612 86.7996Z" fill="#C7C7C7"/>
<path d="M25.6828 4.22561V24.5989C25.6828 25.3994 25.0432 26.0799 24.2037 26.0799H3.85481C3.45503 26.0799 3.25515 25.5996 3.53499 25.3194L24.8833 3.94544C25.2031 3.66525 25.6828 3.82535 25.6828 4.22561Z" fill="#EFEFEF" stroke="#BFBFBF" stroke-width="5.3303" stroke-miterlimit="10" stroke-linecap="round" stroke-linejoin="round"/>
<path d="M58.3049 34.1251V36.1664H48.6302V34.3252L55.3066 24.9591H49.07V23.0779H58.1051V24.9591L51.5087 34.1251H58.3049Z" fill="white"/>
<path d="M62.5026 36.1664H60.1439V23.0779H62.5026V36.1664Z" fill="white"/>
<path d="M67.7398 36.1664H65.3811V23.0779H70.7382C72.2573 23.0779 73.3767 23.4781 74.1363 24.2386C74.8559 24.9991 75.2557 25.9197 75.2557 26.9604C75.2557 28.1612 74.8559 29.1218 74.0563 29.8823C73.2568 30.6428 72.2573 31.0031 71.018 31.0031H67.7398V36.1664ZM67.7398 28.9617H70.5383C71.2579 28.9617 71.8176 28.8016 72.2173 28.4414C72.6171 28.0811 72.777 27.6008 72.777 27.0004C72.777 26.4801 72.6171 25.9998 72.2573 25.6396C71.8975 25.2393 71.2579 25.0792 70.3384 25.0792H67.7798V28.9617H67.7398Z" fill="white"/>
<path d="M69.3388 109.614C78.3692 109.614 85.6898 102.285 85.6898 93.2437C85.6898 84.2025 78.3692 76.873 69.3388 76.873C60.3084 76.873 52.9878 84.2025 52.9878 93.2437C52.9878 102.285 60.3084 109.614 69.3388 109.614Z" fill="url(#paint1_linear)" stroke="white" stroke-width="6.3964" stroke-miterlimit="10"/>
<path d="M71.4576 93.2038V84.0378C71.4576 83.6376 71.1378 83.2773 70.6981 83.2773H67.9396C67.5398 83.2773 67.18 83.5976 67.18 84.0378V93.2038C67.18 93.6041 66.8602 93.9643 66.4204 93.9643H63.3421C62.7024 93.9643 62.3826 94.6848 62.7824 95.1651L68.7391 102.45C69.019 102.81 69.5787 102.81 69.8985 102.45L75.8552 95.1651C76.255 94.6848 75.8952 93.9643 75.2955 93.9643H72.2172C71.7775 93.9643 71.4576 93.6441 71.4576 93.2038Z" fill="white"/>
<defs>
<linearGradient id="paint0_linear" x1="61.9373" y1="17.2164" x2="61.9373" y2="42.0373" gradientUnits="userSpaceOnUse">
<stop stop-color="#FACD50"/>
<stop offset="1" stop-color="#F2B200"/>
</linearGradient>
<linearGradient id="paint1_linear" x1="69.3246" y1="76.8917" x2="69.3246" y2="109.606" gradientUnits="userSpaceOnUse">
<stop stop-color="#FACD50"/>
<stop offset="1" stop-color="#F2B200"/>
</linearGradient>
</defs>
</svg>
