<svg width="31" height="31" viewBox="0 0 31 31" fill="none" xmlns="http://www.w3.org/2000/svg">
<path d="M19.8061 15.7411C19.4973 15.7411 19.2469 15.9915 19.2469 16.3003C19.2469 16.609 19.4973 16.8594 19.8061 16.8594C20.1148 16.8594 20.3652 16.609 20.3652 16.3003C20.3652 15.9915 20.1148 15.7411 19.8061 15.7411Z" fill="white"/>
<path d="M15.3938 3.75284C8.82371 3.75284 3.49756 9.07899 3.49756 15.6491C3.49756 22.2192 8.82371 27.5454 15.3938 27.5454C21.9639 27.5454 27.2901 22.2192 27.2901 15.6491C27.2912 9.07899 21.9651 3.75284 15.3938 3.75284ZM18.918 9.34956C19.6613 9.18564 20.4112 9.66392 20.574 10.4139L20.6358 10.7024C20.5965 10.6991 20.5538 10.6957 20.5145 10.6957H12.7678L13.0227 10.6396L18.5722 9.42478L18.918 9.34956ZM16.1741 8.29533C16.8354 7.91249 17.6931 8.13815 18.076 8.8028L18.2466 9.09695L12.6971 10.3117L16.1741 8.29533ZM21.9067 19.9962C21.9067 20.7619 21.278 21.3884 20.5156 21.3884H9.87457C9.59613 21.3884 9.33791 21.3064 9.12123 21.1627C8.73838 20.9169 8.4824 20.4846 8.4824 19.9974V12.4146C8.4824 12.2473 8.51159 12.0901 8.56773 11.943C8.76084 11.4064 9.27504 11.0224 9.87457 11.0224H20.5156C20.5549 11.0224 20.5976 11.0258 20.6369 11.0291C21.3442 11.0909 21.9067 11.6904 21.9067 12.4146V14.2974H20.0935C19.0393 14.2974 18.1748 15.0967 18.0704 16.1218C18.0636 16.1902 18.0603 16.2587 18.0603 16.3306C18.0603 17.4499 18.9708 18.3605 20.0935 18.3605H21.9067V19.9962ZM22.8464 17.4264C22.8464 17.6722 22.6499 17.8687 22.404 17.8687H20.0935C19.2425 17.8687 18.5509 17.1816 18.5509 16.3295C18.5509 15.904 18.7249 15.5177 19.0022 15.2393C19.2807 14.9609 19.6669 14.788 20.0924 14.788H22.4029C22.6488 14.788 22.8453 14.9845 22.8453 15.2303V17.4264H22.8464Z" fill="white"/>
<path d="M15.3944 30.1497C7.38622 30.1497 0.894409 23.6599 0.894409 15.6497C0.894409 7.64361 7.38631 1.14966 15.3944 1.14966C23.4025 1.14966 29.8944 7.64361 29.8944 15.6497C29.8944 23.6599 23.4026 30.1497 15.3944 30.1497Z" stroke="white"/>
</svg>
