<svg width="20" height="20" viewBox="0 0 20 20" fill="none" xmlns="http://www.w3.org/2000/svg">
<g clip-path="url(#clip0)">
<path d="M19.3578 9.69092C19.3578 14.8308 15.2511 18.9409 10.1164 18.9409C4.98333 18.9409 0.875 14.7365 0.875 9.69092C0.875 4.551 4.98169 0.440918 10.1164 0.440918C15.1569 0.440918 19.3578 4.55264 19.3578 9.69092Z" stroke="#147CA3" stroke-width="0.5"/>
<path fill-rule="evenodd" clip-rule="evenodd" d="M10.1231 17.3677C14.3453 17.3677 17.7998 13.9131 17.7998 9.69093C17.7998 5.46871 14.3453 2.01416 10.1231 2.01416C5.90083 2.01416 2.44629 5.46871 2.44629 9.69093C2.44629 13.9131 5.90083 17.3677 10.1231 17.3677ZM9.01384 11.0344H11.2209L11.5088 4.89295H8.72596L9.01384 11.0344ZM9.1098 12.2818C8.82192 12.5697 8.72596 12.8576 8.72596 13.2414C8.72596 13.6253 8.91788 13.9131 9.1098 14.201C9.30172 14.3929 9.68555 14.4889 10.0694 14.4889C10.5492 14.4889 10.8371 14.3929 11.029 14.1051C11.3169 13.9131 11.4128 13.6253 11.4128 13.2414C11.4128 12.7616 11.2209 12.4738 11.029 12.2818C10.8371 12.0899 10.5492 11.994 10.0694 11.994C9.68555 11.994 9.30172 12.0899 9.1098 12.2818Z" fill="#147CA3"/>
</g>
<defs>
<clipPath id="clip0">
<rect x="0.625" y="0.190918" width="18.9828" height="19" fill="white"/>
</clipPath>
</defs>
</svg>
