<svg width="20" height="20" viewBox="0 0 20 20" fill="none" xmlns="http://www.w3.org/2000/svg">
<g clip-path="url(#clip0)">
<path d="M18.9066 10.1709C18.9066 15.3108 14.8 19.4209 9.66524 19.4209C4.53216 19.4209 0.423828 15.2165 0.423828 10.1709C0.423828 5.03098 4.53052 0.920898 9.66524 0.920898C14.7057 0.920898 18.9066 5.03262 18.9066 10.1709Z" stroke="#999999" stroke-width="0.5"/>
<path fill-rule="evenodd" clip-rule="evenodd" d="M9.67291 18.2324C14.0871 18.2324 17.7335 14.6819 17.7335 10.1718C17.7335 5.66173 14.0871 2.01527 9.67291 2.11123C5.25877 2.11123 1.6123 5.66173 1.6123 10.1718C1.6123 14.586 5.16281 18.2324 9.67291 18.2324ZM11.6791 14.2982C11.5832 14.1062 11.4872 13.9143 11.4872 13.7224C11.4872 13.5305 11.5832 13.3386 11.6791 13.1467C11.871 13.0507 12.063 12.9547 12.2549 12.9547C12.4468 12.9547 12.6387 12.9547 12.8306 13.1467C12.9266 13.3386 13.0225 13.5305 13.0225 13.7224C13.0225 13.9143 13.0225 14.1062 12.8306 14.2982C12.6387 14.3941 12.4468 14.4901 12.2549 14.4901C12.063 14.4901 11.871 14.4901 11.6791 14.2982ZM6.69426 12.9547C6.88618 12.9547 7.0781 12.9547 7.27002 13.1467C7.36598 13.3386 7.46194 13.5305 7.46194 13.7224C7.46194 13.9143 7.46194 14.1062 7.27002 14.2982C7.0781 14.3941 6.88618 14.4901 6.69426 14.4901C6.50234 14.4901 6.31042 14.4901 6.1185 14.2982C6.02254 14.1062 5.92658 13.9143 5.92658 13.7224C5.92658 13.5305 6.02254 13.3386 6.1185 13.1467C6.31042 13.0507 6.50234 12.9547 6.69426 12.9547ZM6.69426 12.9547H6.69643H12.2549H12.2621H12.6459C12.7419 12.9547 12.8378 12.9547 12.9338 12.8588C13.0298 12.7628 13.0298 12.6669 13.0298 12.5709C13.0298 12.4749 13.0298 12.379 12.9338 12.283C12.9338 12.1871 12.8378 12.1871 12.7419 12.1871H6.98431C7.02096 12.1137 7.05761 12.0544 7.08892 12.0038C7.13957 11.9218 7.17623 11.8625 7.17623 11.8032V11.7073V11.5153V11.4194L13.7015 10.6517C13.7495 10.6517 13.7974 10.6277 13.8454 10.6037C13.8934 10.5797 13.9414 10.5557 13.9894 10.5557C14.0853 10.4598 14.0853 10.3638 14.0853 10.2679V7.00524C14.0042 6.92412 13.9574 6.86015 13.9231 6.81332C13.8763 6.74934 13.8528 6.71736 13.7974 6.71736C13.7015 6.6214 13.6055 6.6214 13.5096 6.6214H6.02471V6.42948V6.23756V6.04564C6.02471 5.99766 6.00072 5.97367 5.97673 5.94968C5.95274 5.92569 5.92875 5.9017 5.92875 5.85372L5.83279 5.75776H5.64087H3.9136C3.81764 5.75776 3.72168 5.75776 3.62572 5.85372C3.52976 5.94968 3.52976 6.04564 3.52976 6.1416C3.52976 6.23756 3.52976 6.33352 3.62572 6.42948C3.72168 6.52544 3.81764 6.52544 3.9136 6.52544H5.16107L6.31259 11.7073C6.31259 11.7073 6.21663 11.8032 6.21663 11.8992C6.16865 11.9472 6.14466 12.0191 6.12067 12.0911C6.09668 12.1631 6.07269 12.235 6.02471 12.283C5.92875 12.379 5.92875 12.4749 5.92875 12.5709C5.92875 12.6669 5.92875 12.7628 6.02471 12.8588C6.12067 12.9547 6.21663 12.9547 6.31259 12.9547H6.69426Z" fill="#999999"/>
</g>
<defs>
<clipPath id="clip0">
<rect x="0.173828" y="0.670898" width="18.9828" height="19" fill="white"/>
</clipPath>
</defs>
</svg>
