<svg width="20" height="20" viewBox="0 0 20 20" fill="none" xmlns="http://www.w3.org/2000/svg">
<g clip-path="url(#clip0)">
<path d="M19.6215 9.69092C19.6215 14.8308 15.5148 18.9409 10.3801 18.9409C5.247 18.9409 1.13867 14.7365 1.13867 9.69092C1.13867 4.551 5.24536 0.440918 10.3801 0.440918C15.4206 0.440918 19.6215 4.55264 19.6215 9.69092Z" stroke="#DFA12A" stroke-width="0.5"/>
<g clip-path="url(#clip1)">
<path d="M18.0496 9.69093C18.0496 13.9131 14.5982 17.3677 10.3798 17.3677C6.16138 17.3677 2.70996 13.9131 2.70996 9.69093C2.70996 5.46871 6.16138 2.01416 10.3798 2.01416C14.5982 2.01416 18.0496 5.46871 18.0496 9.69093Z" fill="#DFA12A"/>
<path d="M9.51732 8.44361C9.51732 9.01936 9.42145 9.49916 9.13383 9.883C8.84621 10.2668 8.46272 10.3628 7.98335 10.3628C7.50399 10.3628 7.1205 10.2668 6.83288 9.883C6.54526 9.49916 6.35352 9.01936 6.35352 8.44361C6.35352 7.86785 6.44939 7.38805 6.73701 7.00421C7.1205 6.71633 7.50399 6.52441 7.98335 6.52441C8.46272 6.52441 8.84621 6.71633 9.13383 7.00421C9.42145 7.38805 9.51732 7.86785 9.51732 8.44361ZM7.69574 8.44361C7.69574 8.73148 7.69574 9.01936 7.79161 9.11532C7.88748 9.21128 7.88748 9.30724 8.07923 9.30724C8.1751 9.30724 8.27097 9.21128 8.27097 9.11532C8.36685 9.01936 8.36685 8.73148 8.36685 8.44361C8.36685 8.15573 8.36685 7.86785 8.27097 7.77189C8.1751 7.67593 8.07923 7.57997 7.98335 7.57997C7.88748 7.57997 7.79161 7.67593 7.69574 7.77189C7.69574 7.96381 7.69574 8.15573 7.69574 8.44361ZM12.6811 6.62037L9.2297 12.7618H7.98335L11.3389 6.62037H12.6811ZM14.2151 10.9386C14.2151 11.5143 14.1192 11.9941 13.8316 12.3779C13.544 12.7618 13.1605 12.8577 12.6811 12.8577C12.2018 12.8577 11.8183 12.6658 11.5306 12.3779C11.243 11.9941 11.1472 11.5143 11.1472 10.9386C11.1472 10.3628 11.243 9.883 11.5306 9.49916C11.8183 9.21128 12.2018 9.01936 12.6811 9.01936C13.1605 9.01936 13.544 9.21128 13.8316 9.49916C14.1192 9.883 14.2151 10.3628 14.2151 10.9386ZM12.2976 10.9386C12.2976 11.2264 12.2976 11.5143 12.3935 11.6103C12.4894 11.8022 12.4894 11.8022 12.6811 11.8022C12.777 11.8022 12.8729 11.7062 12.9687 11.5143C12.9687 11.3224 13.0646 11.1305 13.0646 10.8426C13.0646 10.5547 13.0646 10.3628 12.9687 10.1709C12.9687 9.97896 12.8729 9.883 12.6811 9.883C12.5852 9.883 12.4894 9.97896 12.3935 10.0749C12.3935 10.3628 12.2976 10.6507 12.2976 10.9386Z" fill="#F0F0F0"/>
</g>
</g>
<defs>
<clipPath id="clip0">
<rect x="0.888672" y="0.190918" width="18.9828" height="19" fill="white"/>
</clipPath>
<clipPath id="clip1">
<rect x="2.70996" y="2.01416" width="15.3397" height="15.3535" fill="white"/>
</clipPath>
</defs>
</svg>
