<svg width="32" height="28" viewBox="0 0 32 28" fill="none" xmlns="http://www.w3.org/2000/svg">
<path d="M14 0.368408C6.26667 0.368408 0 6.55262 0 14.1842C0 21.8158 6.26667 28 14 28C21.7333 28 28 21.8158 28 14.1842C28 6.55262 21.7333 0.368408 14 0.368408ZM14 27.3421C6.66667 27.3421 0.666667 21.421 0.666667 14.1842C0.666667 6.94736 6.66667 1.0263 14 1.0263C21.3333 1.0263 27.3333 6.94736 27.3333 14.1842C27.3333 21.4868 21.3333 27.3421 14 27.3421Z" fill="#34495E"/>
<g clip-path="url(#clip0)">
<path d="M14.1333 2.3421C7.53334 2.27631 2.06667 7.53947 2.00001 14.0526C1.93334 20.5658 7.26667 25.9605 13.8667 26.0263C20.4667 26.0921 25.9333 20.8289 26 14.3158C26.0667 7.80263 20.7333 2.40789 14.1333 2.3421ZM13.9333 21.8158C12.9333 21.8158 12.1333 20.9605 12.1333 19.9737L15.8 20.0395C15.7333 21.0263 14.9333 21.8816 13.9333 21.8158ZM20.1333 18.3289C20.1333 18.9868 19.6 19.0526 18.9333 19.0526L9.06667 18.921C8.40001 18.921 7.86667 18.8553 7.86667 18.1974V18.0658C7.86667 17.6053 8.13334 17.2105 8.60001 17.0132L9.00001 13.7237C9.00001 11.2895 10.8 9.31579 13.0667 8.85526V7.60526C13.0667 7.01315 13.5333 6.55263 14.1333 6.61842C14.7333 6.61842 15.2 7.07894 15.1333 7.67105V8.92105C17.4 9.44737 19.1333 11.4211 19.1333 13.8553L19.4667 17.1447C19.8667 17.3421 20.1333 17.7368 20.1333 18.2632V18.3289Z" fill="#34495E"/>
</g>
<defs>
<clipPath id="clip0">
<rect width="27.6324" height="28" fill="white"/>
</clipPath>
</defs>
</svg>
