<svg width="30" height="30" viewBox="0 0 30 30" fill="none" xmlns="http://www.w3.org/2000/svg">
<path fill-rule="evenodd" clip-rule="evenodd" d="M30 15C30 23.2843 23.2843 30 15 30C6.71573 30 0 23.2843 0 15C0 6.71573 6.71573 0 15 0C23.2843 0 30 6.71573 30 15ZM7.37955 22.4588C11.5473 18.1519 18.3855 18.1341 22.5776 22.4143C23.1122 22.96 22.2754 23.798 21.7403 23.2516C17.9894 19.4218 11.9433 19.4455 8.21682 23.2961C7.6851 23.8458 6.84853 23.0073 7.37955 22.4588ZM10.4409 12.1819C11.742 12.1819 12.7967 11.1272 12.7967 9.82616C12.7967 8.5251 11.742 7.47038 10.4409 7.47038C9.13986 7.47038 8.08515 8.5251 8.08515 9.82616C8.08515 11.1272 9.13986 12.1819 10.4409 12.1819ZM21.7047 9.82616C21.7047 11.1272 20.65 12.1819 19.3489 12.1819C18.0479 12.1819 16.9932 11.1272 16.9932 9.82616C16.9932 8.5251 18.0479 7.47038 19.3489 7.47038C20.65 7.47038 21.7047 8.5251 21.7047 9.82616Z" fill="white"/>
</svg>
