<svg width="13" height="13" viewBox="0 0 13 13" fill="none" xmlns="http://www.w3.org/2000/svg">
<path d="M12.3112 4.65998C12.2551 4.60957 12.1991 4.60957 12.143 4.60957H10.7414V0.576646C10.7414 0.475823 10.6292 0.375 10.5171 0.375H6.31204C6.19991 0.375 6.08776 0.475823 6.08776 0.576646V2.44187H4.96642C4.85428 2.44187 4.74214 2.5427 4.74214 2.64352C4.74214 2.74434 4.85428 2.84516 4.96642 2.84516H6.25599H6.87271V4.60957H5.07853H3.84508V2.84516H4.18147C4.2936 2.84516 4.40575 2.74434 4.40575 2.64352C4.40575 2.5427 4.2936 2.44187 4.18147 2.44187H3.67685C3.62078 2.44187 3.6208 2.44187 3.6208 2.44187C3.56473 2.49228 3.50869 2.5427 3.50869 2.59311V4.55916H2.83584L2.16307 2.08899H0.761391C0.649257 2.08899 0.537109 2.18981 0.537109 2.29064C0.537109 2.39146 0.649257 2.49228 0.761391 2.49228H1.99484L3.95718 9.80196C3.67685 9.95319 3.45264 10.2557 3.45264 10.5581C3.45264 11.0118 3.84509 11.4151 4.34969 11.4655C4.23756 11.5664 4.23752 11.7176 4.23752 11.8688C4.23752 12.2721 4.62999 12.625 5.07853 12.625C5.52706 12.625 5.91953 12.2721 5.91953 11.8688C5.91953 11.7176 5.86349 11.5664 5.80742 11.4655H9.33967C9.22754 11.5664 9.2275 11.7176 9.2275 11.8688C9.2275 12.2721 9.61997 12.625 10.0685 12.625C10.517 12.625 10.9095 12.2721 10.9095 11.8688C10.9095 11.7176 10.8535 11.5664 10.7974 11.4655H11.5262C11.6384 11.4655 11.7505 11.3647 11.7505 11.2639C11.7505 11.1631 11.6384 11.0622 11.5262 11.0622H4.40575C4.06935 11.0622 3.78902 10.8102 3.78902 10.5077C3.78902 10.2052 4.06935 9.95319 4.40575 9.95319H4.4618L11.5262 9.75154C11.6384 9.75154 11.6945 9.70113 11.6945 9.60031L11.8066 8.89455C11.8066 8.84414 11.8066 8.79372 11.7505 8.74331C11.6944 8.6929 11.6945 8.6929 11.6384 8.6929C11.6384 8.6929 11.6384 8.6929 11.5824 8.6929C11.4702 8.6929 11.4141 8.74331 11.4141 8.84414L11.302 9.39866L9.9564 9.44907L10.1246 7.3822H11.6384L11.4141 8.08796C11.4141 8.13837 11.4141 8.18879 11.4702 8.2392C11.5262 8.28961 11.5263 8.28961 11.5824 8.28961C11.5824 8.28961 11.5823 8.28961 11.6384 8.28961C11.7505 8.28961 11.8066 8.2392 11.8066 8.13837L12.3672 4.81121C12.3672 4.7608 12.3112 4.71039 12.3112 4.65998ZM9.90034 11.3143C10.1807 11.3143 10.3488 11.5159 10.3488 11.7176C10.3488 11.9697 10.1246 12.1209 9.90034 12.1209C9.62001 12.1209 9.45178 11.9192 9.45178 11.7176C9.45178 11.5159 9.67608 11.3143 9.90034 11.3143ZM4.91037 11.3143C5.1907 11.3143 5.35886 11.5159 5.35886 11.7176C5.35886 11.9697 5.13463 12.1209 4.91037 12.1209C4.63003 12.1209 4.4618 11.9192 4.4618 11.7176C4.4618 11.5159 4.6861 11.3143 4.91037 11.3143ZM2.94802 4.96245H5.02247L5.24675 6.97891H3.50869L2.94802 4.96245ZM4.18147 9.5499L3.56474 7.33179H5.24675L5.47104 9.5499H4.18147ZM5.41498 4.96245H7.48944V6.97891H5.6392L5.41498 4.96245ZM7.48944 9.44907L5.91953 9.49949L5.69532 7.33179H7.54549V9.44907H7.48944ZM9.45178 9.39866L7.88188 9.44907V7.33179H9.62001L9.45178 9.39866ZM9.67606 6.9285H7.88188V4.91204H9.84422L9.67606 6.9285ZM7.65766 4.60957H7.32121V2.64352C7.32121 2.64352 7.32121 2.64352 7.32121 2.59311C7.32121 2.5427 7.26517 2.49228 7.2091 2.44187C7.15303 2.44187 7.15306 2.44187 7.09699 2.44187H6.4802V0.778292H10.2928V4.60957H7.65766ZM11.5824 6.9285H10.0685L10.2367 4.91204H11.9187L11.5824 6.9285Z" fill="#8E8E8E"/>
</svg>
