<svg width="26" height="26" viewBox="0 0 26 26" fill="none" xmlns="http://www.w3.org/2000/svg">
<path d="M24.1111 16.7603C24.2222 16.8678 24.2222 16.8678 24.3333 16.8678C24.3333 16.8678 24.3333 16.8678 24.4444 16.8678C24.6667 16.8678 24.7778 16.7603 24.7778 16.5455L26 9.45455C26 9.34711 25.8889 9.23967 25.8889 9.13223C25.7778 9.02479 25.6667 9.02479 25.5556 9.02479H22.4444V0.429752C22.4444 0.214876 22.2222 0 22 0H12.7778C12.4444 0 12.2222 0.214876 12.2222 0.429752V4.40496H9.77778C9.55556 4.40496 9.33333 4.61983 9.33333 4.83471C9.33333 5.04959 9.55556 5.26446 9.77778 5.26446H12.6667H14V9.02479H10H7.33333V5.26446H8.11111C8.33333 5.26446 8.55556 5.04959 8.55556 4.83471C8.55556 4.61983 8.33333 4.40496 8 4.40496H6.88889C6.77778 4.40496 6.77778 4.40496 6.77778 4.40496C6.66667 4.5124 6.55556 4.61984 6.55556 4.72727V8.91736H5.11111L3.55556 3.65289H0.444444C0.222222 3.65289 0 3.86777 0 4.08264C0 4.29752 0.222222 4.5124 0.444444 4.5124H3.11111L7.44444 20.0909C6.77778 20.4132 6.33333 21.0579 6.33333 21.7025C6.33333 22.6694 7.22222 23.5289 8.33333 23.6364C8.33333 23.6364 8.66667 23.7438 9.33333 23.7438C9.11111 23.9587 9 24.281 9 24.6033C9 25.3554 9.66667 26 10.4444 26C11.2222 26 11.8889 25.3554 11.8889 24.6033C11.8889 24.281 11.7778 23.9587 11.5556 23.7438C14.1111 23.7438 17.7778 23.7438 20.5556 23.7438C20.3333 23.9587 20.2222 24.281 20.2222 24.6033C20.2222 25.3554 20.8889 26 21.6667 26C22.4444 26 23.1111 25.3554 23.1111 24.6033C23.1111 24.281 23 23.9587 22.7778 23.7438C23.7778 23.7438 24.3333 23.7438 24.3333 23.7438C24.5556 23.7438 24.7778 23.5289 24.7778 23.3141C24.7778 23.0992 24.5556 22.8843 24.3333 22.8843H8.55556C7.77778 22.8843 7.22222 22.3471 7.22222 21.7025C7.22222 20.9504 7.77778 20.4132 8.55556 20.4132H8.66667L24.2222 19.9835C24.4444 19.9835 24.5556 19.876 24.5556 19.6612L24.7778 18.157C24.7778 18.0496 24.7778 17.9422 24.6667 17.8347C24.5556 17.7273 24.5556 17.7273 24.4444 17.7273C24.4444 17.7273 24.4444 17.7273 24.3333 17.7273C24.1111 17.7273 24 17.8347 24 18.0496L23.7778 19.2314L20.7778 19.3388L21.1111 14.9339H24.4444L24 16.438C24 16.5455 24 16.6529 24.1111 16.7603ZM10.4444 25.3554C10 25.3554 9.66667 25.0331 9.66667 24.6033C9.66667 24.1736 10 23.8512 10.4444 23.8512C10.8889 23.8512 11.2222 24.2729 11.2222 24.6033C11.2222 24.9337 11 25.3554 10.4444 25.3554ZM21.6667 25.3554C21.2222 25.3554 20.8889 25.0331 20.8889 24.6033C20.8889 24.1736 21.2222 23.8512 21.6667 23.8512C22.1111 23.8512 22.4444 24.1736 22.4444 24.6033C22.4444 25.0331 22.1111 25.3554 21.6667 25.3554ZM5.33333 9.77686H9.88889L10.3333 14.0744H6.55556L5.33333 9.77686ZM8 19.5537L6.66667 14.8264H10.3333L10.7778 19.5537H8ZM10.7778 9.77686H15.3333V14.0744H11.2222L10.7778 9.77686ZM15.4444 19.3388H15.3333L11.8889 19.4463L11.4444 14.8264H15.5556V19.3388H15.4444ZM19.6667 19.2314L16.2222 19.3388V14.8264H20L19.6667 19.2314ZM20.1111 13.9669H16.1111V9.66942H20.4444L20.1111 13.9669ZM15.6667 9.02479H14.8889V4.83471C14.8889 4.83471 14.8889 4.83471 14.8889 4.72727C14.8889 4.61984 14.7778 4.5124 14.6667 4.40496C14.5556 4.40496 14.5556 4.40496 14.4444 4.40496H13.1111V0.859504H21.5556V9.02479H15.6667ZM24.3333 13.9669H21L21.3333 9.66942H25L24.3333 13.9669Z" fill="#CE0014"/>
</svg>
