<svg width="13" height="13" viewBox="0 0 13 13" fill="none" xmlns="http://www.w3.org/2000/svg">
<path d="M12.0094 4.65998C11.9534 4.60957 11.8973 4.60957 11.8413 4.60957H10.4396V0.576646C10.4396 0.475823 10.3274 0.375 10.2153 0.375H6.01028C5.89815 0.375 5.786 0.475823 5.786 0.576646V2.44187H4.66466C4.55253 2.44187 4.44038 2.5427 4.44038 2.64352C4.44038 2.74434 4.55253 2.84516 4.66466 2.84516H5.95423H6.57095V4.60957H4.77677H3.54332V2.84516H3.87971C3.99184 2.84516 4.10399 2.74434 4.10399 2.64352C4.10399 2.5427 3.99184 2.44187 3.87971 2.44187H3.37509C3.31902 2.44187 3.31904 2.44187 3.31904 2.44187C3.26297 2.49228 3.20693 2.5427 3.20693 2.59311V4.55916H2.53409L1.86131 2.08899H0.459633C0.347499 2.08899 0.235352 2.18981 0.235352 2.29064C0.235352 2.39146 0.347499 2.49228 0.459633 2.49228H1.69308L3.65543 9.80196C3.37509 9.95319 3.15088 10.2557 3.15088 10.5581C3.15088 11.0118 3.54333 11.4151 4.04794 11.4655C3.9358 11.5664 3.93576 11.7176 3.93576 11.8688C3.93576 12.2721 4.32823 12.625 4.77677 12.625C5.2253 12.625 5.61777 12.2721 5.61777 11.8688C5.61777 11.7176 5.56173 11.5664 5.50567 11.4655H9.03792C8.92578 11.5664 8.92574 11.7176 8.92574 11.8688C8.92574 12.2721 9.31821 12.625 9.76675 12.625C10.2153 12.625 10.6078 12.2721 10.6078 11.8688C10.6078 11.7176 10.5517 11.5664 10.4956 11.4655H11.2245C11.3366 11.4655 11.4488 11.3647 11.4488 11.2639C11.4488 11.1631 11.3366 11.0622 11.2245 11.0622H4.10399C3.76759 11.0622 3.48727 10.8102 3.48727 10.5077C3.48727 10.2052 3.76759 9.95319 4.10399 9.95319H4.16004L11.2245 9.75154C11.3366 9.75154 11.3927 9.70113 11.3927 9.60031L11.5048 8.89455C11.5048 8.84414 11.5048 8.79372 11.4488 8.74331C11.3927 8.6929 11.3927 8.6929 11.3367 8.6929C11.3367 8.6929 11.3367 8.6929 11.2806 8.6929C11.1685 8.6929 11.1124 8.74331 11.1124 8.84414L11.0003 9.39866L9.65464 9.44907L9.8228 7.3822H11.3367L11.1124 8.08796C11.1124 8.13837 11.1124 8.18879 11.1684 8.2392C11.2245 8.28961 11.2245 8.28961 11.2806 8.28961C11.2806 8.28961 11.2806 8.28961 11.3367 8.28961C11.4488 8.28961 11.5048 8.2392 11.5048 8.13837L12.0655 4.81121C12.0655 4.7608 12.0094 4.71039 12.0094 4.65998ZM9.59859 11.3143C9.87892 11.3143 10.0471 11.5159 10.0471 11.7176C10.0471 11.9697 9.82285 12.1209 9.59859 12.1209C9.31825 12.1209 9.15002 11.9192 9.15002 11.7176C9.15002 11.5159 9.37432 11.3143 9.59859 11.3143ZM4.60861 11.3143C4.88894 11.3143 5.0571 11.5159 5.0571 11.7176C5.0571 11.9697 4.83288 12.1209 4.60861 12.1209C4.32827 12.1209 4.16004 11.9192 4.16004 11.7176C4.16004 11.5159 4.38434 11.3143 4.60861 11.3143ZM2.64626 4.96245H4.72071L4.945 6.97891H3.20693L2.64626 4.96245ZM3.87971 9.5499L3.26298 7.33179H4.945L5.16928 9.5499H3.87971ZM5.11322 4.96245H7.18768V6.97891H5.33744L5.11322 4.96245ZM7.18768 9.44907L5.61777 9.49949L5.39356 7.33179H7.24373V9.44907H7.18768ZM9.15002 9.39866L7.58012 9.44907V7.33179H9.31825L9.15002 9.39866ZM9.3743 6.9285H7.58012V4.91204H9.54247L9.3743 6.9285ZM7.35591 4.60957H7.01945V2.64352C7.01945 2.64352 7.01945 2.64352 7.01945 2.59311C7.01945 2.5427 6.96341 2.49228 6.90734 2.44187C6.85127 2.44187 6.8513 2.44187 6.79524 2.44187H6.17844V0.778292H9.99103V4.60957H7.35591ZM11.2806 6.9285H9.76675L9.93498 4.91204H11.617L11.2806 6.9285Z" fill="#8E8E8E"/>
</svg>
