<svg width="60" height="60" viewBox="0 0 60 60" fill="none" xmlns="http://www.w3.org/2000/svg">
<path d="M30 0C13.4483 0 0 13.4483 0 30C0 46.5517 13.4483 60 30 60C46.5517 60 60 46.5517 60 30C60 13.4483 46.5517 0 30 0ZM30 58.5517C14.2759 58.5517 1.4483 45.7241 1.4483 30C1.4483 14.2759 14.2759 1.44827 30 1.44827C45.7241 1.44827 58.5517 14.2759 58.5517 30C58.5517 45.931 45.7241 58.5517 30 58.5517Z" fill="#8596A6"/>
<path d="M30 4.13794C15.8321 4.13794 4.13794 15.8321 4.13794 30C4.13794 44.1679 15.8321 55.8621 30 55.8621C44.1679 55.8621 55.8621 44.1679 55.8621 30C55.8621 15.8321 44.1679 4.13794 30 4.13794ZM14.4827 40.3448C13.808 40.5697 13.1335 40.5697 12.4588 40.7946C12.2339 40.7946 12.2339 40.7946 12.009 40.5697C11.7841 40.3448 11.784 40.3448 11.784 40.1199C11.784 40.1199 11.784 40.12 11.784 39.8951V39.6702C11.784 39.6702 11.784 39.6702 11.784 39.4453V39.2204C11.784 39.2204 11.784 39.2204 11.784 38.9955C11.784 38.9955 11.784 38.9955 11.784 38.7706C11.784 38.7706 12.0089 38.5457 12.2338 38.096C12.4587 37.8711 12.6836 37.6462 12.9085 37.4213C13.1334 37.1964 13.1334 36.9715 13.3583 36.7466C13.5832 36.5217 13.808 36.072 14.0329 35.8471C14.2578 35.6222 14.2578 35.1724 14.4827 34.7227C12.4587 33.5982 10.8846 32.2489 9.76013 30.4498C8.63569 28.8756 7.96106 27.0765 7.96106 25.0525C7.96106 22.8036 8.63572 20.7796 10.2099 18.9805C11.7841 17.1814 13.808 15.6072 16.2818 14.4828C18.7555 13.3583 21.6792 12.9086 24.8276 12.9086C27.976 12.9086 30.6747 13.3583 33.3733 14.4828C35.8471 15.6072 38.096 16.9565 39.4453 18.9805C41.0195 20.7796 41.6942 23.0285 41.6942 25.0525C41.6942 27.3014 41.0195 29.3253 39.4453 31.1244C37.8711 32.9235 35.8471 34.4978 33.3733 35.6222C30.8996 36.7466 27.976 37.1964 24.8276 37.1964C23.4783 37.1964 22.1289 36.9715 20.5547 36.7466C19.2054 38.7706 16.9565 39.6702 14.4827 40.3448ZM45.5172 42.3688C45.7421 42.5937 45.967 43.0435 46.1919 43.2684C46.4168 43.4933 46.6416 43.7181 46.6416 43.943C46.6416 44.1679 46.8666 44.3928 47.3164 44.6177C47.5413 44.8426 47.766 45.0675 47.766 45.2924C47.766 45.2924 47.7661 45.2924 47.991 45.2924C47.991 45.2924 47.991 45.2924 47.991 45.5173C47.991 45.5173 47.991 45.5172 47.991 45.7421V45.967C47.991 45.967 47.991 45.967 47.991 46.1919V46.4168C47.991 46.4168 47.991 46.4168 47.991 46.6417C47.991 46.8666 47.766 47.0915 47.766 47.0915C47.5412 47.3164 47.3164 47.3163 47.3164 47.3163C46.4168 47.0915 45.7421 47.0915 45.2923 46.8666C42.8186 46.1919 40.5697 45.2924 38.5457 43.7182C37.1964 43.943 35.6221 44.1679 34.2728 44.1679C29.9999 44.1679 26.1768 43.0435 23.0284 41.0195C23.928 41.0195 24.6027 41.0195 25.0525 41.0195C27.5262 41.0195 30 40.5697 32.4737 39.8951C34.9475 39.2204 36.9714 38.096 38.7705 36.7466C40.7945 35.1724 42.3687 33.5982 43.2683 31.5742C44.3927 29.7751 44.8425 27.5262 44.8425 25.5023C44.8425 24.3778 44.6176 23.0285 44.3927 21.9041C46.4167 23.0285 47.991 24.3778 49.3403 26.1769C50.4647 27.976 51.1394 29.7751 51.1394 31.5742C51.1394 33.3733 50.6896 35.3973 49.3403 36.9715C48.2158 38.7706 46.6417 40.1199 44.6177 41.2444C45.2924 41.4693 45.2923 41.919 45.5172 42.3688Z" fill="#8596A6"/>
<path d="M13.8077 23.2534C12.4584 23.2534 11.5588 24.153 11.5588 25.5023C11.5588 26.8516 12.4584 27.7512 13.8077 27.7512C15.157 27.7512 16.0566 26.8516 16.0566 25.5023C16.0566 24.3779 14.9322 23.2534 13.8077 23.2534Z" fill="#8596A6"/>
<path d="M27.301 25.5023C27.301 24.153 26.4014 23.2534 25.0521 23.2534C23.7028 23.2534 22.8032 24.153 22.8032 25.5023C22.8032 26.8516 23.7028 27.7512 25.0521 27.7512C26.1765 27.7512 27.301 26.8516 27.301 25.5023Z" fill="#8596A6"/>
<path d="M36.2965 27.7512C37.6458 27.7512 38.5454 26.8516 38.5454 25.5023C38.5454 24.153 37.6458 23.2534 36.2965 23.2534C34.9472 23.2534 34.0476 24.153 34.0476 25.5023C34.0476 26.8516 34.9472 27.7512 36.2965 27.7512Z" fill="#8596A6"/>
</svg>
