<svg width="24" height="23" viewBox="0 0 24 23" fill="none" xmlns="http://www.w3.org/2000/svg">
<path d="M12.1864 0C5.84398 0 0.686401 5.15758 0.686401 11.5C0.686401 17.8424 5.84398 23 12.1864 23C18.5288 23 23.6864 17.8424 23.6864 11.5C23.6864 5.15758 18.5288 0 12.1864 0ZM19.8531 13.4515H12.1864C11.1409 13.4515 10.2349 12.6152 10.2349 11.5V3.83333C10.2349 2.78788 11.0712 1.88182 12.1864 1.88182C13.2319 1.88182 14.1379 2.71818 14.1379 3.83333V9.61818H19.9228C20.9682 9.61818 21.8743 10.4545 21.8743 11.5697C21.8046 12.5455 20.8985 13.4515 19.8531 13.4515Z" fill="#A89271"/>
</svg>
