<svg width="30" height="30" viewBox="0 0 30 30" fill="none" xmlns="http://www.w3.org/2000/svg">
<g clip-path="url(#clip0)">
<path d="M25.0891 7.73557L26.1035 6.72117L27.11 7.72766L28.3529 6.48462L25.097 3.22871L23.854 4.47175L24.8605 5.47824L23.8461 6.49265C21.6171 4.53275 18.8409 3.38276 15.8789 3.1925V1.75786H18.9844V0H11.0155V1.75786H14.121V3.19244C10.8677 3.40145 7.83788 4.76743 5.51176 7.09348C2.9774 9.62784 1.58167 12.9975 1.58167 16.5816C1.58167 20.1658 2.9774 23.5354 5.51176 26.0698C8.04618 28.6041 11.4158 29.9999 15 29.9999C18.5841 29.9999 21.9538 28.6042 24.4882 26.0698C27.0225 23.5354 28.4183 20.1658 28.4183 16.5816C28.4182 13.2922 27.2417 10.1838 25.0891 7.73557ZM14.9999 26.5588C9.49852 26.5588 5.02285 22.0831 5.02285 16.5817C5.02285 11.0803 9.49858 6.60456 14.9999 6.60456C20.5014 6.60456 24.977 11.0803 24.977 16.5817C24.977 22.0831 20.5014 26.5588 14.9999 26.5588Z" fill="white"/>
<path d="M23.1721 15.7027C22.7629 11.8712 19.7104 8.81865 15.8788 8.40942V10.2261H14.121V8.40942C10.2895 8.81865 7.23693 11.8712 6.82776 15.7027H8.64445V17.4606H6.82776C7.23699 21.2921 10.2895 24.3446 14.121 24.7539V22.9372H15.8788V24.7539C19.7104 24.3446 22.763 21.2921 23.1721 17.4606H21.3555V15.7027H23.1721ZM14.9999 18.1032C14.1609 18.1032 13.4783 17.4207 13.4783 16.5816C13.4783 16.4942 13.4861 16.4086 13.5003 16.3251L11.1029 13.9277L12.3459 12.6846L14.7433 15.0821C14.8268 15.0678 14.9124 15.06 14.9999 15.06C15.8389 15.06 16.5215 15.7426 16.5215 16.5816C16.5215 17.4206 15.8389 18.1032 14.9999 18.1032Z" fill="white"/>
</g>
<defs>
<clipPath id="clip0">
<rect width="30" height="30" fill="white"/>
</clipPath>
</defs>
</svg>
