<svg width="30" height="30" viewBox="0 0 30 30" fill="none" xmlns="http://www.w3.org/2000/svg">
<g clip-path="url(#clip0)">
<path d="M25.0894 7.73557L26.1038 6.72117L27.1103 7.72766L28.3533 6.48462L25.0974 3.22871L23.8544 4.47175L24.8609 5.47824L23.8465 6.49265C21.6175 4.53275 18.8413 3.38276 15.8793 3.1925V1.75786H18.9848V0H11.0159V1.75786H14.1214V3.19244C10.8681 3.40145 7.83824 4.76743 5.51213 7.09348C2.97777 9.62784 1.58203 12.9975 1.58203 16.5816C1.58203 20.1658 2.97777 23.5354 5.51213 26.0698C8.04655 28.6041 11.4162 29.9999 15.0003 29.9999C18.5845 29.9999 21.9542 28.6042 24.4885 26.0698C27.0229 23.5354 28.4186 20.1658 28.4186 16.5816C28.4186 13.2922 27.2421 10.1838 25.0894 7.73557ZM15.0003 26.5588C9.49889 26.5588 5.02321 22.0831 5.02321 16.5817C5.02321 11.0803 9.49895 6.60456 15.0003 6.60456C20.5017 6.60456 24.9774 11.0803 24.9774 16.5817C24.9774 22.0831 20.5017 26.5588 15.0003 26.5588Z" fill="#B2B8BE"/>
<path d="M23.1725 15.7027C22.7633 11.8712 19.7108 8.81865 15.8792 8.40942V10.2261H14.1214V8.40942C10.2899 8.81865 7.2373 11.8712 6.82812 15.7027H8.64481V17.4606H6.82812C7.23735 21.2921 10.2899 24.3446 14.1214 24.7539V22.9372H15.8792V24.7539C19.7108 24.3446 22.7633 21.2921 23.1725 17.4606H21.3558V15.7027H23.1725ZM15.0002 18.1032C14.1613 18.1032 13.4786 17.4207 13.4786 16.5816C13.4786 16.4942 13.4865 16.4086 13.5007 16.3251L11.1033 13.9277L12.3463 12.6846L14.7436 15.0821C14.8271 15.0678 14.9127 15.06 15.0002 15.06C15.8393 15.06 16.5219 15.7426 16.5219 16.5816C16.5219 17.4206 15.8393 18.1032 15.0002 18.1032Z" fill="#B2B8BE"/>
</g>
<defs>
<clipPath id="clip0">
<rect width="30" height="30" fill="white"/>
</clipPath>
</defs>
</svg>
