<svg width="24" height="24" viewBox="0 0 24 24" fill="none" xmlns="http://www.w3.org/2000/svg">
<path d="M21 24H3C1.35 24 0 22.65 0 21V3C0 1.35 1.35 0 3 0H21C22.65 0 24 1.35 24 3V21C24 22.65 22.65 24 21 24Z" fill="#D4D7DB"/>
<path d="M15.5 7C12.4626 7 10 9.46262 10 12.5C10 15.5374 12.4626 18 15.5 18C18.5374 18 21 15.5374 21 12.5C21 9.46262 18.5374 7 15.5 7ZM18.2204 14.2483L17.2483 15.2204L15.5 13.4721L13.7517 15.2204L12.7796 14.2483L14.5279 12.5L12.7796 10.7517L13.7517 9.77956L15.5 11.5279L17.2483 9.77956L18.2204 10.7517L16.4721 12.5L18.2204 14.2483Z" fill="#34495E"/>
<path fill-rule="evenodd" clip-rule="evenodd" d="M7.41002 12.0881C7.56087 12.2594 7.64369 12.4831 7.64369 12.7146V19.5357C7.64369 19.9462 8.11843 20.1545 8.39943 19.8659L10.223 17.6854L10.2605 17.6385C10.4807 17.3635 10.6016 17.2127 10.6016 16.9261V16.7627C9.58367 15.6199 8.9652 14.1135 8.9652 12.4627C8.9652 8.89073 11.8609 5.99506 15.4329 5.99506C15.6783 5.99506 15.9206 6.00874 16.159 6.03538C16.4013 5.59341 16.1042 5 15.5781 5H2.66708C2.08734 5 1.78416 5.71915 2.17755 6.16514L7.41002 12.0881Z" fill="#34495E"/>
</svg>
