<svg width="58" height="58" viewBox="0 0 58 58" fill="none" xmlns="http://www.w3.org/2000/svg">
<g clip-path="url(#clip0)">
<path d="M36.5042 7.57468C35.7549 7.20747 34.9392 6.98859 34.1036 6.93054C33.2681 6.87249 32.4291 6.97639 31.6345 7.23633C30.8398 7.49628 30.1052 7.90716 29.4725 8.44552C28.8399 8.98388 28.3215 9.63917 27.9471 10.374L14.0079 37.7297C13.4592 38.7919 13.1299 39.95 13.0391 41.1373C12.9483 42.3247 13.0977 43.518 13.4787 44.6485C13.8597 45.7791 14.4649 46.8247 15.2593 47.7251C16.0538 48.6255 17.0219 49.3631 18.108 49.8954C19.1941 50.4277 20.3768 50.7442 21.588 50.8268C22.7993 50.9093 24.0152 50.7563 25.166 50.3764C26.3167 49.9966 27.3795 49.3974 28.2934 48.6134C29.2072 47.8294 29.954 46.8759 30.4908 45.8079L39.679 27.7779L38.4103 27.1562L29.2228 45.186C28.7694 46.0909 28.1379 46.899 27.3647 47.5636C26.5915 48.2283 25.6919 48.7363 24.7176 49.0586C23.7434 49.3809 22.7137 49.511 21.688 49.4414C20.6623 49.3718 19.6607 49.104 18.741 48.6533C17.8212 48.2025 17.0015 47.5778 16.3289 46.8152C15.6564 46.0525 15.1444 45.1668 14.8223 44.2093C14.5002 43.2517 14.3744 42.2412 14.4522 41.2357C14.53 40.2303 14.8099 39.2499 15.2757 38.351L29.2151 10.9959C29.8033 9.84164 30.8349 8.96377 32.0832 8.55543C33.3314 8.1471 34.6939 8.24176 35.8709 8.81859C37.048 9.39541 37.9431 10.4072 38.3595 11.6312C38.7759 12.8553 38.6794 14.1915 38.0912 15.3458L26.0524 38.9711C25.7975 39.4611 25.3555 39.8325 24.8227 40.0044C24.2899 40.1762 23.7094 40.1347 23.2077 39.8887C22.706 39.6428 22.3237 39.2124 22.1441 38.6913C21.9645 38.1702 22.0022 37.6006 22.2488 37.1066L29.5351 22.8068L28.2673 22.1855L20.9802 36.4849C20.5649 37.3088 20.4994 38.2604 20.7979 39.1316C21.0964 40.0027 21.7346 40.7225 22.5729 41.1333C23.4112 41.5441 24.3813 41.6126 25.271 41.3237C26.1606 41.0347 26.8973 40.412 27.3199 39.5917L39.3587 15.9664C39.7332 15.2316 39.9564 14.4316 40.0155 13.6122C40.0747 12.7928 39.9688 11.97 39.7037 11.1908C39.4387 10.4115 39.0197 9.69111 38.4707 9.07066C37.9217 8.45021 37.2535 7.94188 36.5042 7.57468Z" fill="#666666"/>
</g>
<defs>
<clipPath id="clip0">
<rect width="45.2716" height="44.5703" fill="white" transform="matrix(-0.950437 0.310918 -0.322035 -0.946728 57.577 42.9924)"/>
</clipPath>
</defs>
</svg>
