<svg width="31" height="30" viewBox="0 0 31 30" fill="none" xmlns="http://www.w3.org/2000/svg">
<g clip-path="url(#clip0)">
<path d="M2.46688 5.17413C1.90707 3.47742 2.83193 1.64139 4.52884 1.08149C6.22574 0.521586 8.06167 1.44673 8.62148 3.14345L14.989 22.4422C14.3956 22.2855 13.7645 22.2568 13.1345 22.372L6.96996 3.6884C6.71055 2.90212 5.86001 2.47364 5.07379 2.73305C4.28751 2.99246 3.85903 3.843 4.11844 4.62923C4.26888 5.08526 4.02119 5.57702 3.56511 5.72746C3.10908 5.8779 2.61737 5.63016 2.46688 5.17413ZM27.5547 20.3133L17.122 23.7556C17.4922 24.1759 17.7857 24.6756 17.972 25.2403C17.9787 25.2604 17.9824 25.2808 17.9887 25.301L28.0996 21.9649C28.5557 21.8144 28.8034 21.3227 28.653 20.8667C28.5025 20.4106 28.0107 20.1628 27.5547 20.3133ZM17.1463 25.5129C17.7374 27.3044 16.7643 29.2359 14.9728 29.827C13.1813 30.4182 11.2498 29.445 10.6587 27.6535C10.0676 25.8619 11.0407 23.9305 12.8322 23.3394C14.6237 22.7482 16.5552 23.7214 17.1463 25.5129ZM15.5244 26.048C15.2289 25.1523 14.2632 24.6658 13.3673 24.9613C12.4716 25.2568 11.985 26.2226 12.2806 27.1183C12.5761 28.014 13.5419 28.5006 14.4376 28.2051C15.3334 27.9095 15.8199 26.9438 15.5244 26.048ZM24.9181 7.22275L28.4601 17.9579C28.5353 18.1859 28.4114 18.4318 28.1834 18.507L17.0354 22.1852C16.8074 22.2604 16.5615 22.1366 16.4863 21.9085L12.9444 11.1734C12.8691 10.9453 12.993 10.6995 13.221 10.6243L24.369 6.94604C24.597 6.87089 24.8429 6.99471 24.9181 7.22275ZM23.4435 13.4587L19.6475 11.3702L17.8404 15.3074L19.0368 15.8581L19.8182 14.1548L21.229 18.4309L22.5792 17.9854L21.1686 13.7099L22.8096 14.6132L23.4435 13.4587ZM20.1311 7.05427L17.8666 0.19095C17.8185 0.0451655 17.6613 -0.03405 17.5155 0.0140872L15.5738 0.654723L15.5643 0.672174L15.548 0.663253L14.5236 1.00129L15.3672 3.5581L14.2117 3.93938L13.3681 1.38257L12.3433 1.7207L12.3355 1.73756L12.3174 1.72923L10.3883 2.36575C10.2425 2.41384 10.1633 2.57104 10.2114 2.71683L12.476 9.5802C12.5241 9.72598 12.6813 9.8052 12.8271 9.75706L19.9544 7.4054C20.1 7.35726 20.1792 7.20006 20.1311 7.05427Z" fill="white"/>
</g>
<defs>
<clipPath id="clip0">
<rect x="0.500122" width="30" height="30" fill="white"/>
</clipPath>
</defs>
</svg>
