<svg width="30" height="30" viewBox="0 0 30 30" fill="none" xmlns="http://www.w3.org/2000/svg">
<path d="M1.05265 18.1431V5.62944C1.05265 4.93409 1.6276 4.37036 2.33691 4.37036H15.0943C15.8035 4.37036 16.3785 4.93409 16.3785 5.62944V18.1431C16.3785 18.3749 16.1869 18.5628 15.9504 18.5628H1.48074C1.24426 18.5628 1.05265 18.3749 1.05265 18.1431ZM11.3546 22.43C11.3546 23.8722 10.162 25.0414 8.69098 25.0414C7.21995 25.0414 6.02735 23.8722 6.02735 22.43C6.02735 20.9877 7.21995 19.8186 8.69098 19.8186C10.162 19.8186 11.3546 20.9877 11.3546 22.43ZM10.0227 22.43C10.0227 21.7089 9.42647 21.1243 8.69093 21.1243C7.95539 21.1243 7.35907 21.7089 7.35907 22.43C7.35907 23.1511 7.95539 23.7357 8.69093 23.7357C9.42647 23.7357 10.0227 23.1511 10.0227 22.43ZM6.39681 19.8185H0.428088C0.191667 19.8185 0 20.0065 0 20.2382V21.5116C0 21.7433 0.191667 21.9312 0.428088 21.9312H5.2123C5.33721 21.091 5.7698 20.3488 6.39681 19.8185ZM25.2911 22.43C25.2911 23.8722 24.0985 25.0414 22.6275 25.0414C21.1564 25.0414 19.9638 23.8722 19.9638 22.43C19.9638 20.9877 21.1564 19.8186 22.6275 19.8186C24.0985 19.8185 25.2911 20.9877 25.2911 22.43ZM23.9593 22.43C23.9593 21.7089 23.363 21.1243 22.6275 21.1243C21.8919 21.1243 21.2956 21.7089 21.2956 22.43C21.2956 23.1511 21.8919 23.7357 22.6275 23.7357C23.363 23.7357 23.9593 23.1511 23.9593 22.43ZM30 20.2382V21.5116C30 21.7433 29.8083 21.9312 29.5719 21.9312H26.106C25.8581 20.2644 24.395 18.9792 22.6275 18.9792C20.8598 18.9792 19.3966 20.2645 19.1487 21.9312H12.1697C12.0447 21.091 11.6122 20.3488 10.9851 19.8185H17.6025V7.81399C17.6025 7.35042 17.9858 6.9746 18.4587 6.9746H22.5001C23.638 6.9746 24.7016 7.52876 25.3383 8.45336L27.9437 12.2366C28.3259 12.7915 28.5301 13.4458 28.5301 14.1154V19.8185H29.5719C29.8083 19.8185 30 20.0065 30 20.2382ZM25.6573 12.3334L23.5739 9.43106C23.4937 9.31937 23.3631 9.2529 23.2238 9.2529H19.974C19.7376 9.2529 19.5459 9.44081 19.5459 9.6726V12.575C19.5459 12.8068 19.7376 12.9947 19.974 12.9947H25.3073C25.654 12.9947 25.8569 12.6115 25.6573 12.3334Z" fill="white"/>
</svg>
