<svg width="30" height="30" viewBox="0 0 30 30" fill="none" xmlns="http://www.w3.org/2000/svg">
<g clip-path="url(#clip0)">
<path d="M1.96715 5.17413C1.40735 3.47742 2.3322 1.64139 4.02911 1.08149C5.72602 0.521586 7.56195 1.44673 8.12175 3.14345L14.4892 22.4422C13.8959 22.2855 13.2648 22.2568 12.6348 22.372L6.47023 3.6884C6.21082 2.90212 5.36028 2.47364 4.57406 2.73305C3.78779 2.99246 3.35931 3.843 3.61872 4.62923C3.76916 5.08526 3.52146 5.57702 3.06539 5.72746C2.60936 5.8779 2.11764 5.63016 1.96715 5.17413ZM27.055 20.3133L16.6222 23.7556C16.9925 24.1759 17.2859 24.6756 17.4723 25.2403C17.4789 25.2604 17.4827 25.2808 17.489 25.301L27.5999 21.9649C28.0559 21.8144 28.3037 21.3227 28.1532 20.8667C28.0027 20.4106 27.5109 20.1628 27.055 20.3133ZM16.6466 25.5129C17.2377 27.3044 16.2645 29.2359 14.4731 29.827C12.6815 30.4182 10.7501 29.445 10.159 27.6535C9.56783 25.8619 10.541 23.9305 12.3325 23.3394C14.124 22.7482 16.0555 23.7214 16.6466 25.5129ZM15.0247 26.048C14.7291 25.1523 13.7635 24.6658 12.8676 24.9613C11.9719 25.2568 11.4853 26.2226 11.7809 27.1183C12.0764 28.014 13.0421 28.5006 13.9379 28.2051C14.8337 27.9095 15.3202 26.9438 15.0247 26.048ZM24.4184 7.22275L27.9603 17.9579C28.0356 18.1859 27.9117 18.4318 27.6837 18.507L16.5357 22.1852C16.3077 22.2604 16.0618 22.1366 15.9866 21.9085L12.4446 11.1734C12.3694 10.9453 12.4933 10.6995 12.7213 10.6243L23.8693 6.94604C24.0973 6.87089 24.3431 6.99471 24.4184 7.22275ZM22.9437 13.4587L19.1478 11.3702L17.3407 15.3074L18.5371 15.8581L19.3184 14.1548L20.7293 18.4309L22.0795 17.9854L20.6689 13.7099L22.3099 14.6132L22.9437 13.4587ZM19.6314 7.05427L17.3669 0.19095C17.3188 0.0451655 17.1616 -0.03405 17.0158 0.0140872L15.0741 0.654723L15.0646 0.672174L15.0483 0.663253L14.0238 1.00129L14.8675 3.5581L13.7119 3.93938L12.8684 1.38257L11.8436 1.7207L11.8358 1.73756L11.8177 1.72923L9.88856 2.36575C9.74273 2.41384 9.66361 2.57104 9.7117 2.71683L11.9763 9.5802C12.0243 9.72598 12.1815 9.8052 12.3273 9.75706L19.4547 7.4054C19.6003 7.35726 19.6795 7.20006 19.6314 7.05427Z" fill="#B2B8BE"/>
</g>
<defs>
<clipPath id="clip0">
<rect width="30" height="30" fill="white"/>
</clipPath>
</defs>
</svg>
