<svg width="30" height="30" viewBox="0 0 30 30" fill="none" xmlns="http://www.w3.org/2000/svg">
<path d="M1.05265 18.5061V5.74215C1.05265 5.03289 1.6276 4.45789 2.33691 4.45789H15.0943C15.8035 4.45789 16.3785 5.03289 16.3785 5.74215V18.5061C16.3785 18.7425 16.1869 18.9342 15.9504 18.9342H1.48074C1.24426 18.9342 1.05265 18.7425 1.05265 18.5061ZM11.3546 22.8787C11.3546 24.3498 10.162 25.5423 8.69098 25.5423C7.21995 25.5423 6.02735 24.3498 6.02735 22.8787C6.02735 21.4076 7.21995 20.2151 8.69098 20.2151C10.162 20.2151 11.3546 21.4076 11.3546 22.8787ZM10.0227 22.8787C10.0227 22.1432 9.42647 21.5469 8.69093 21.5469C7.95539 21.5469 7.35907 22.1432 7.35907 22.8787C7.35907 23.6143 7.95539 24.2106 8.69093 24.2106C9.42647 24.2106 10.0227 23.6143 10.0227 22.8787ZM6.39681 20.215H0.428088C0.191667 20.215 0 20.4067 0 20.6431V21.9419C0 22.1783 0.191667 22.37 0.428088 22.37H5.2123C5.33721 21.5129 5.7698 20.7559 6.39681 20.215ZM25.2911 22.8787C25.2911 24.3498 24.0985 25.5423 22.6275 25.5423C21.1564 25.5423 19.9638 24.3498 19.9638 22.8787C19.9638 21.4076 21.1564 20.2151 22.6275 20.2151C24.0985 20.215 25.2911 21.4076 25.2911 22.8787ZM23.9593 22.8787C23.9593 22.1432 23.363 21.5469 22.6275 21.5469C21.8919 21.5469 21.2956 22.1432 21.2956 22.8787C21.2956 23.6143 21.8919 24.2106 22.6275 24.2106C23.363 24.2106 23.9593 23.6143 23.9593 22.8787ZM30 20.6431V21.9419C30 22.1783 29.8083 22.37 29.5719 22.37H26.106C25.8581 20.6698 24.395 19.3589 22.6275 19.3589C20.8598 19.3589 19.3966 20.6699 19.1487 22.37H12.1697C12.0447 21.513 11.6122 20.7559 10.9851 20.215H17.6025V7.97038C17.6025 7.49754 17.9858 7.11421 18.4587 7.11421H22.5001C23.638 7.11421 24.7016 7.67945 25.3383 8.62254L27.9437 12.4814C28.3259 13.0474 28.5301 13.7148 28.5301 14.3978V20.215H29.5719C29.8083 20.215 30 20.4067 30 20.6431ZM25.6573 12.5802L23.5739 9.6198C23.4937 9.50587 23.3631 9.43808 23.2238 9.43808H19.974C19.7376 9.43808 19.5459 9.62975 19.5459 9.86617V12.8266C19.5459 13.0631 19.7376 13.2547 19.974 13.2547H25.3073C25.654 13.2547 25.8569 12.8639 25.6573 12.5802Z" fill="#B2B8BE"/>
</svg>
