<svg width="47" height="46" viewBox="0 0 47 46" fill="none" xmlns="http://www.w3.org/2000/svg">
<path d="M32.8201 5.76143C32.8201 6.85885 31.9319 7.90139 30.3959 8.77932C27.5092 10.4254 22.3463 11.5229 16.4432 11.5229C10.5402 11.5229 5.37731 10.4254 2.49055 8.77932C0.954642 7.90139 0.0664062 6.85885 0.0664062 5.76143C0.0664062 5.72485 0.0664062 5.70656 0.0664062 5.66998C0.214446 2.52406 7.48687 0 16.4432 0C25.3996 0 32.6721 2.52406 32.8201 5.66998C32.8201 5.70656 32.8201 5.72485 32.8201 5.76143Z" fill="white"/>
<path d="M32.8201 12.986C32.8201 13.0225 32.8201 13.0408 32.8201 13.0774C32.8201 13.5164 32.6906 13.937 32.413 14.3577C32.2094 14.6869 31.8208 14.8698 31.4322 14.8516C31.1176 14.8333 30.8216 14.8333 30.507 14.8333C26.4359 14.8333 22.6979 16.2965 19.8296 18.7291C18.7379 18.8023 17.6091 18.8571 16.4432 18.8571C7.39435 18.8388 0.0664062 16.2599 0.0664062 13.0774C0.0664062 12.986 0.0664062 12.8945 0.0849112 12.8031H0.0664062V9.34619C0.436504 9.67542 0.880622 9.96806 1.38025 10.2607C4.48908 12.0349 10.0776 13.2237 16.4432 13.2237C22.8089 13.2237 28.3974 12.0349 31.5062 10.2607C32.0244 9.96806 32.45 9.65713 32.8201 9.34619V12.986Z" fill="white"/>
<path d="M17.6824 20.8873C16.35 22.5152 15.3137 24.4173 14.7031 26.4841C6.52389 26.1549 0.158203 23.7223 0.158203 20.7593C0.158203 20.6678 0.158203 20.5764 0.176708 20.4849H0.158203V17.0281C0.528301 17.3573 0.972419 17.6499 1.47205 17.9426C4.58088 19.7167 10.1694 20.9056 16.535 20.9056C16.9236 20.9056 17.3123 20.8873 17.6824 20.8873Z" fill="white"/>
<path d="M14.0381 31.0935C14.0381 32.1361 14.1306 33.1603 14.3342 34.148C6.37708 33.7456 0.251953 31.3496 0.251953 28.4414C0.251953 28.35 0.251953 28.2585 0.270458 28.1671H0.251953V24.7102C0.622051 25.0394 1.06617 25.3321 1.5658 25.6247C4.28602 27.1794 8.87524 28.2768 14.2417 28.5329C14.1121 29.3559 14.0381 30.2156 14.0381 31.0935Z" fill="white"/>
<path d="M14.8701 36.233C15.5733 38.3364 16.7021 40.2386 18.164 41.8664C17.6828 41.8847 17.2017 41.8847 16.7206 41.8847C7.67169 41.8847 0.34375 39.3058 0.34375 36.1233C0.34375 36.0318 0.34375 35.9404 0.362255 35.8489H0.34375V32.3921C0.713848 32.7213 1.15797 33.014 1.6576 33.3066C4.47034 34.8979 9.28162 36.0318 14.8701 36.233Z" fill="white"/>
<path d="M34.8733 25.4234C34.1331 24.8747 32.9673 24.6003 31.3944 24.6003H29.1553V31.4958H29.877H30.9502C32.7267 31.4958 34.0036 31.2214 34.7993 30.6544C35.595 30.0874 35.9836 29.1912 35.9836 27.9292C35.9836 26.7952 35.6135 25.9721 34.8733 25.4234Z" fill="white"/>
<path d="M31.4319 16.7356C23.2527 16.7356 16.6279 23.2835 16.6279 31.3678C16.6279 39.4521 23.2527 46 31.4319 46C39.611 46 46.2358 39.4521 46.2358 31.3678C46.2358 23.2835 39.611 16.7356 31.4319 16.7356ZM36.2801 31.7885C35.0958 32.7213 33.3934 33.1785 31.1913 33.1785H29.1743V34.1113H33.1713V35.8123H29.1743V39.8545H27.1757V35.8123H25.8619V34.1113H27.1757V33.1602H24.8071V31.4593H27.1757V22.8628H31.6354C35.9286 22.8628 38.0751 24.509 38.0751 27.8012C38.0566 29.5571 37.4645 30.874 36.2801 31.7885Z" fill="white"/>
</svg>
