<svg width="23" height="23" viewBox="0 0 23 23" fill="none" xmlns="http://www.w3.org/2000/svg">
<path d="M11.5 0C5.15758 0 0 5.15758 0 11.5C0 17.8424 5.15758 23 11.5 23C17.8424 23 23 17.8424 23 11.5C23 5.15758 17.8424 0 11.5 0ZM15.403 12.6848L17.1454 18.0515C17.2151 18.3303 17.1455 18.6788 16.8667 18.8182C16.7273 18.8879 16.5879 18.9576 16.4485 18.9576C16.3091 18.9576 16.1697 18.8879 16.0303 18.8182L11.5 15.4727L6.9697 18.8182C6.69091 19.0273 6.41211 19.0273 6.13332 18.8182C5.85454 18.6091 5.78487 18.3303 5.85456 18.0515L7.59699 12.6848L3.06668 9.33939C2.7879 9.1303 2.71818 8.85151 2.78788 8.57273C2.85758 8.29394 3.13636 8.08485 3.48485 8.08485H9.13029L10.803 2.71818C10.8727 2.43939 11.1515 2.2303 11.5 2.2303C11.7788 2.2303 12.0576 2.43939 12.197 2.71818L13.9394 8.08485H19.5848C19.8636 8.08485 20.1424 8.29394 20.2818 8.57273C20.3515 8.85151 20.2818 9.2 20.003 9.33939L15.403 12.6848Z" fill="#3E228C"/>
</svg>
