<svg width="24" height="24" viewBox="0 0 24 24" fill="none" xmlns="http://www.w3.org/2000/svg">
<path d="M12 0.5C5.65758 0.5 0.5 5.65758 0.5 12C0.5 18.3424 5.65758 23.5 12 23.5C18.3424 23.5 23.5 18.3424 23.5 12C23.5 5.65758 18.3424 0.5 12 0.5ZM15.903 13.1848L17.6454 18.5515C17.7151 18.8303 17.6455 19.1788 17.3667 19.3182C17.2273 19.3879 17.0879 19.4576 16.9485 19.4576C16.8091 19.4576 16.6697 19.3879 16.5303 19.3182L12 15.9727L7.4697 19.3182C7.19091 19.5273 6.91211 19.5273 6.63332 19.3182C6.35454 19.1091 6.28487 18.8303 6.35456 18.5515L8.09699 13.1848L3.56668 9.83939C3.2879 9.6303 3.21818 9.35151 3.28788 9.07273C3.35758 8.79394 3.63636 8.58485 3.98485 8.58485H9.63029L11.303 3.21818C11.3727 2.93939 11.6515 2.7303 12 2.7303C12.2788 2.7303 12.5576 2.93939 12.697 3.21818L14.4394 8.58485H20.0848C20.3636 8.58485 20.6424 8.79394 20.7818 9.07273C20.8515 9.35151 20.7818 9.7 20.503 9.83939L15.903 13.1848Z" fill="#CCCCCC"/>
</svg>
