<svg width="19" height="19" viewBox="0 0 19 19" fill="none" xmlns="http://www.w3.org/2000/svg">
<path d="M9.04763 13.641C9.19357 13.8034 9.33954 13.9658 9.6314 13.9658C9.92327 13.9658 10.0692 13.8034 10.2152 13.641L15.031 8.28206C15.3228 7.95728 15.3228 7.3077 15.031 6.98291C14.7391 6.65812 14.1554 6.65812 13.8635 6.98291L10.507 10.718V0.974364C10.507 0.487184 10.2151 0 9.6314 0C9.04767 0 8.75584 0.32479 8.75584 0.974364V10.718L5.39929 6.98291C5.10742 6.65812 4.52371 6.65812 4.23184 6.98291C3.93997 7.3077 3.93997 7.95728 4.23184 8.28206L9.04763 13.641Z" fill="white"/>
<path d="M18.2417 11.2051C17.8039 11.2051 17.3661 11.5299 17.3661 12.1794V17.2136H1.75113V12.1794C1.75113 11.6923 1.4593 11.2051 0.875566 11.2051C0.437765 11.2051 0 11.5299 0 12.1794V18.0256C0 18.5128 0.291832 19 0.875566 19H18.0957C18.5335 19 18.9714 18.6752 18.9714 18.0256V12.1794C19.1173 11.6923 18.6795 11.2051 18.2417 11.2051Z" fill="white"/>
</svg>
