<svg width="13" height="14" viewBox="0 0 13 14" fill="none" xmlns="http://www.w3.org/2000/svg">
<path d="M6.19064 9.96382C6.29049 10.0749 6.39036 10.1861 6.59006 10.1861C6.78976 10.1861 6.88963 10.0749 6.98948 9.96382L10.2845 6.29716C10.4842 6.07494 10.4842 5.63049 10.2845 5.40827C10.0848 5.18605 9.68542 5.18605 9.48572 5.40827L7.18913 7.96383V1.29717C7.18913 0.963833 6.98946 0.630493 6.59006 0.630493C6.19066 0.630493 5.99099 0.852722 5.99099 1.29717V7.96383L3.69441 5.40827C3.49471 5.18605 3.09532 5.18605 2.89562 5.40827C2.69592 5.63049 2.69592 6.07494 2.89562 6.29716L6.19064 9.96382Z" fill="#818A94"/>
<path d="M12.4812 8.29712C12.1816 8.29712 11.882 8.51934 11.882 8.96378V12.4082H1.19814V8.96378C1.19814 8.63045 0.998469 8.29712 0.599072 8.29712C0.299524 8.29712 0 8.51934 0 8.96378V12.9638C0 13.2971 0.199674 13.6305 0.599072 13.6305H12.3813C12.6808 13.6305 12.9804 13.4082 12.9804 12.9638V8.96378C13.0803 8.51934 12.7807 8.29712 12.4812 8.29712Z" fill="#818A94"/>
</svg>
