<svg width="13" height="14" viewBox="0 0 13 14" fill="none" xmlns="http://www.w3.org/2000/svg">
<path d="M6.19088 9.46382C6.29073 9.57493 6.39061 9.68605 6.59031 9.68605C6.79 9.68605 6.88988 9.57493 6.98973 9.46382L10.2847 5.79716C10.4844 5.57494 10.4844 5.13049 10.2847 4.90827C10.085 4.68605 9.68566 4.68605 9.48596 4.90827L7.18938 7.46383V0.797166C7.18938 0.463833 6.9897 0.130493 6.59031 0.130493C6.19091 0.130493 5.99123 0.352722 5.99123 0.797166V7.46383L3.69465 4.90827C3.49495 4.68605 3.09557 4.68605 2.89587 4.90827C2.69617 5.13049 2.69617 5.57494 2.89587 5.79716L6.19088 9.46382Z" fill="white"/>
<path d="M12.4812 7.79712C12.1816 7.79712 11.882 8.01934 11.882 8.46378V11.9082H1.19814V8.46378C1.19814 8.13045 0.998469 7.79712 0.599072 7.79712C0.299524 7.79712 0 8.01934 0 8.46378V12.4638C0 12.7971 0.199674 13.1305 0.599072 13.1305H12.3813C12.6808 13.1305 12.9804 12.9082 12.9804 12.4638V8.46378C13.0803 8.01934 12.7807 7.79712 12.4812 7.79712Z" fill="white"/>
</svg>
