<svg width="11" height="11" viewBox="0 0 11 11" fill="none" xmlns="http://www.w3.org/2000/svg">
<g clip-path="url(#clip0)">
<path d="M10.3222 7.2627C10.0807 7.2627 9.83913 7.41842 9.83913 7.72986V10.1436H1.22484V7.72986C1.22484 7.49628 1.06384 7.2627 0.741813 7.2627C0.500291 7.2627 0.258789 7.41842 0.258789 7.72986V10.5329C0.258789 10.7665 0.419784 11 0.741813 11H10.2417C10.4832 11 10.7247 10.8443 10.7247 10.5329V7.72986C10.8052 7.49628 10.5637 7.2627 10.3222 7.2627Z" fill="#34548A"/>
<path d="M5.25015 8.43097C5.33066 8.50883 5.41118 8.58669 5.5722 8.58669C5.73321 8.58669 5.81374 8.50883 5.89425 8.43097L8.55098 5.86155C8.71199 5.70583 8.71199 5.39438 8.55098 5.23866C8.38997 5.08294 8.06795 5.08294 7.90693 5.23866L6.05522 7.02947V2.35779C6.05522 2.12421 5.89423 1.89062 5.5722 1.89062C5.25017 1.89062 5.08917 2.04635 5.08917 2.35779V7.02947L3.23747 5.23866C3.07645 5.08294 2.75443 5.08294 2.59342 5.23866C2.4324 5.39438 2.4324 5.70583 2.59342 5.86155L5.25015 8.43097Z" fill="#34548A"/>
</g>
<defs>
<clipPath id="clip0">
<rect width="11" height="11" fill="white"/>
</clipPath>
</defs>
</svg>
