<svg width="15" height="15" viewBox="0 0 15 15" fill="none" xmlns="http://www.w3.org/2000/svg">
<path d="M6.14216 11.3433L12.3272 7.77196C12.4243 7.71614 12.484 7.61234 12.484 7.50055C12.484 7.38875 12.4243 7.28496 12.3272 7.22898L6.14216 3.65722C6.0451 3.60124 5.92563 3.60124 5.82857 3.65722C5.73151 3.71319 5.67178 3.81683 5.67178 3.92878V5.59158H0.332631C0.15953 5.59158 0.019043 5.73207 0.019043 5.90517V9.09499C0.019043 9.26809 0.15953 9.40857 0.332631 9.40857H5.67193V11.0712C5.67193 11.1835 5.73167 11.2868 5.82873 11.3428C5.87733 11.371 5.93143 11.3848 5.98552 11.3848C6.03961 11.3848 6.09371 11.371 6.14216 11.3433Z" fill="#34495E"/>
<path d="M12.6652 0H6.27599C6.10289 0 5.9624 0.140487 5.9624 0.313588V1.25435C5.9624 1.42745 6.10289 1.56794 6.27599 1.56794H12.6652C13.0779 1.56794 13.4132 1.90363 13.4132 2.316V12.684C13.4132 13.0965 13.0776 13.4321 12.6652 13.4321H6.27599C6.10289 13.4321 5.9624 13.5725 5.9624 13.7456V14.6864C5.9624 14.8595 6.10289 15 6.27599 15H12.6652C13.9424 15 14.9812 13.9609 14.9812 12.684V2.31616C14.9812 1.03907 13.9423 0 12.6652 0Z" fill="#34495E"/>
</svg>
