<svg width="8" height="9" viewBox="0 0 8 9" fill="none" xmlns="http://www.w3.org/2000/svg">
<path d="M7.69448 0.386915C7.69448 0.173214 7.52164 0 7.30782 0H0.386915C0.173214 0 0 0.173389 0 0.386915C0 0.594913 0.164964 0.763826 0.371088 0.772251L2.85649 3.77604L3.18428 8.75869C3.19104 8.85971 3.25587 8.94703 3.34992 8.98319C3.37979 8.99445 3.41106 9.00004 3.44195 9.00004C3.50836 9.00004 3.57327 8.97441 3.6228 8.92629L4.76681 7.80431C4.81634 7.75566 4.84445 7.68943 4.84445 7.62001V3.7689L7.32397 0.772398C7.53007 0.763797 7.69448 0.595059 7.69448 0.386915Z" fill="white"/>
</svg>
