<svg width="24" height="23" viewBox="0 0 24 23" fill="none" xmlns="http://www.w3.org/2000/svg">
<path d="M11.9414 0C5.59898 0 0.441406 5.15758 0.441406 11.5C0.441406 17.8424 5.59898 23 11.9414 23C18.2838 23 23.4414 17.8424 23.4414 11.5C23.4414 5.15758 18.2838 0 11.9414 0ZM10.0596 3.48485C10.0596 2.43939 10.896 1.60303 11.9414 1.60303C12.9869 1.60303 13.8232 2.43939 13.8232 3.48485V13.4515C13.8232 14.497 12.9869 15.3333 11.9414 15.3333C10.896 15.3333 10.0596 14.497 10.0596 13.4515V3.48485ZM11.9414 21.1182C10.6869 21.1182 9.71112 20.1424 9.71112 18.8879C9.71112 17.6333 10.6869 16.6576 11.9414 16.6576C13.196 16.6576 14.1717 17.6333 14.1717 18.8879C14.2414 20.0727 13.196 21.1182 11.9414 21.1182Z" fill="#A89271"/>
</svg>
