<svg width="26" height="26" viewBox="0 0 26 26" fill="none" xmlns="http://www.w3.org/2000/svg">
<path d="M12.9414 0.976807C6.04747 0.976807 0.441406 6.58287 0.441406 13.4768C0.441406 20.3707 6.04747 25.9768 12.9414 25.9768C19.8353 25.9768 25.4414 20.3707 25.4414 13.4768C25.4414 6.58287 19.8353 0.976807 12.9414 0.976807ZM10.896 4.76469C10.896 3.62832 11.805 2.71923 12.9414 2.71923C14.0778 2.71923 14.9869 3.62832 14.9869 4.76469V15.598C14.9869 16.7344 14.0778 17.6435 12.9414 17.6435C11.805 17.6435 10.896 16.7344 10.896 15.598V4.76469ZM12.9414 23.9314C11.5778 23.9314 10.5172 22.8707 10.5172 21.5071C10.5172 20.1435 11.5778 19.0829 12.9414 19.0829C14.305 19.0829 15.3657 20.1435 15.3657 21.5071C15.4414 22.795 14.305 23.9314 12.9414 23.9314Z" fill="#D97E00"/>
</svg>
