<svg width="190" height="32" viewBox="0 0 190 32" fill="none" xmlns="http://www.w3.org/2000/svg">
<g clip-path="url(#clip0)">
<path d="M37.0211 18.7C36.4036 21.8 35.8889 24 35.4772 25.2C35.0655 26.5 34.345 27.6 33.3158 28.7C32.2865 29.8 31.0514 30.6 29.6104 31.1C28.1695 31.7 26.5226 32 24.67 32C22.9202 32 21.4792 31.7 20.2441 31.2C19.009 30.7 18.0827 29.9 17.4651 28.8C16.8475 27.7 16.5388 26.6 16.6417 25.3C16.7446 24 17.0534 21.8 17.7739 18.7L18.8032 13.5C19.4207 10.4 19.9353 8.20001 20.347 7.00001C20.7588 5.70001 21.4792 4.60001 22.5085 3.50001C23.5378 2.40001 24.7729 1.60001 26.2139 1.10001C27.6548 0.500012 29.3016 0.200012 31.1543 0.200012C32.9041 0.200012 34.345 0.500012 35.5802 1.00001C36.8153 1.50001 37.7416 2.30001 38.3592 3.40001C38.9767 4.50001 39.2855 5.60001 39.1826 6.90001C39.0797 8.20001 38.7709 10.4 38.0504 13.5L37.0211 18.7ZM30.7426 8.60001C31.0514 7.20001 31.1543 6.30001 31.0514 5.90001C30.9485 5.50001 30.6397 5.30001 30.1251 5.30001C29.7133 5.30001 29.3016 5.50001 28.9929 5.80001C28.6841 6.10001 28.3753 7.00001 28.0665 8.60001L25.1846 22.9C24.8758 24.7 24.67 25.8 24.7729 26.2C24.8758 26.6 25.1846 26.8 25.6992 26.8C26.3168 26.8 26.7285 26.6 26.9343 26.1C27.1402 25.6 27.449 24.5 27.8607 22.7L30.7426 8.60001Z" fill="#53606F"/>
<path d="M41.6527 0.599976H50.0927C52.3571 0.599976 54.1068 0.799976 55.239 1.09998C56.3712 1.39998 57.1946 1.89998 57.7092 2.59998C58.2239 3.19998 58.4297 3.99998 58.5326 4.89998C58.5326 5.79998 58.4297 7.19998 58.018 9.09998L57.5034 11.8C57.0917 13.8 56.577 15.2 56.0624 16.1C55.4449 17 54.5185 17.7 53.2834 18.2C52.0483 18.7 50.5044 18.9 48.7546 18.9H46.4903L44.02 31.2H35.683L41.6527 0.599976ZM48.8576 5.79998L47.3137 13.6C47.5195 13.6 47.7254 13.6 47.9312 13.6C48.6517 13.6 49.2693 13.4 49.681 13.1C50.0927 12.7 50.2985 12 50.6073 10.9L51.1219 8.39998C51.3278 7.39998 51.3278 6.69998 51.019 6.39998C50.7102 5.99998 49.9898 5.79998 48.8576 5.79998Z" fill="#53606F"/>
<path d="M20.4499 0.6L19.1119 7.5H14.1714L9.43681 31.2H1.09977L5.83439 7.4H0.893921L2.23196 0.5H20.4499V0.6Z" fill="#53606F"/>
<path d="M76.2361 28.9L73.1483 19.6L83.4409 12.3H70.678L66.7668 0L62.8556 12.4H50.0928L60.3854 19.7L56.4742 31.4L66.7668 24.1L75.001 29.9C75.3097 29.4 75.7214 29.1 76.2361 28.9Z" fill="#F05A28"/>
<path d="M189.249 9.90001H181.736L182.147 7.70001C182.353 6.70001 182.353 6.00001 182.25 5.70001C182.147 5.40001 181.838 5.30001 181.427 5.30001C180.912 5.30001 180.5 5.50001 180.192 5.90001C179.883 6.30001 179.677 6.90001 179.471 7.60001C179.265 8.60001 179.265 9.30001 179.471 9.80001C179.677 10.3 180.295 10.9 181.427 11.6C184.617 13.6 186.573 15.3 187.191 16.6C187.911 17.9 187.911 20 187.294 22.9C186.882 25 186.264 26.6 185.544 27.6C184.823 28.6 183.691 29.4 182.044 30.1C180.398 30.8 178.648 31.1 176.692 31.1C174.531 31.1 172.781 30.7 171.443 29.9C170.105 29.1 169.281 28.1 169.076 26.9C168.87 25.7 168.973 24 169.384 21.8L169.693 20H177.207L176.486 23.6C176.28 24.7 176.178 25.4 176.383 25.7C176.486 26 176.898 26.2 177.413 26.2C177.927 26.2 178.339 26 178.751 25.6C179.059 25.2 179.368 24.6 179.471 23.8C179.78 22.1 179.78 20.9 179.368 20.4C178.957 19.9 177.927 19 176.178 17.7C174.428 16.4 173.296 15.5 172.781 14.9C172.266 14.3 171.855 13.5 171.649 12.5C171.443 11.5 171.443 10.2 171.752 8.60001C172.163 6.30001 172.884 4.70001 173.707 3.60001C174.531 2.60001 175.663 1.70001 177.104 1.10001C178.545 0.500012 180.295 0.200012 182.147 0.200012C184.206 0.200012 185.956 0.500012 187.294 1.20001C188.632 1.80001 189.455 2.70001 189.764 3.60001C190.073 4.50001 189.97 6.20001 189.455 8.60001L189.249 9.90001Z" fill="#53606F"/>
<path d="M92.8071 9.89997H85.2935L85.7052 7.69998C85.9111 6.69998 85.9111 5.99998 85.8082 5.69998C85.7052 5.39998 85.3964 5.29998 84.9847 5.29998C84.4701 5.29998 84.0584 5.49998 83.7496 5.89998C83.4408 6.29998 83.235 6.89998 83.0291 7.59998C82.8233 8.59998 82.8233 9.29998 83.0291 9.79998C83.235 10.3 83.8525 10.9 84.9847 11.6C88.1755 13.6 90.1311 15.3 90.7486 16.6C91.4691 17.9 91.4691 20 90.8515 22.9C90.4398 25 89.8223 26.6 89.1018 27.6C88.3813 28.6 87.2491 29.4 85.6023 30.1C83.9555 30.8 82.2057 31.1 80.2501 31.1C78.0887 31.1 76.3389 30.7 75.0009 29.9C73.6628 29.1 72.8394 28.1 72.6336 26.9C72.4277 25.7 72.5306 24 72.9423 21.8L73.3541 19.9H80.8677L80.1472 23.5C79.9413 24.6 79.8384 25.3 80.0443 25.6C80.1472 25.9 80.5589 26.1 81.0735 26.1C81.5882 26.1 81.9999 25.9 82.4116 25.5C82.7204 25.1 83.0291 24.5 83.1321 23.7C83.4408 22 83.4408 20.8 83.0291 20.3C82.6174 19.8 81.5882 18.9 79.8384 17.6C78.0887 16.3 76.9565 15.4 76.4418 14.8C75.9272 14.2 75.5155 13.4 75.3097 12.4C75.1038 11.4 75.1038 10.1 75.4126 8.49998C75.8243 6.19998 76.5448 4.59998 77.2653 3.49998C78.0887 2.49998 79.2209 1.59998 80.6618 0.999976C82.1028 0.399976 83.8526 0.0999756 85.7052 0.0999756C87.7638 0.0999756 89.5135 0.399976 90.8515 1.09998C92.1896 1.69998 93.013 2.59998 93.3218 3.49998C93.6306 4.39998 93.5276 6.09998 93.013 8.49998L92.8071 9.89997Z" fill="#53606F"/>
<path d="M95.9979 0.599976H104.438C106.702 0.599976 108.452 0.799976 109.584 1.09998C110.716 1.39998 111.54 1.89998 112.054 2.59998C112.569 3.19998 112.775 3.99998 112.878 4.89998C112.878 5.79998 112.775 7.19998 112.363 9.09998L111.849 11.8C111.437 13.8 110.922 15.2 110.408 16.1C109.79 17 108.864 17.7 107.629 18.2C106.393 18.7 104.85 18.9 103.1 18.9H100.835L98.3652 31.2H90.0282L95.9979 0.599976ZM103.306 5.79998L101.762 13.6C101.968 13.6 102.174 13.6 102.379 13.6C103.1 13.6 103.717 13.4 104.129 13.1C104.541 12.7 104.747 12 105.055 10.9L105.57 8.39998C105.776 7.39998 105.776 6.69998 105.467 6.39998C105.055 5.99998 104.335 5.79998 103.306 5.79998Z" fill="#53606F"/>
<path d="M130.684 18.7C130.067 21.8 129.552 24 129.14 25.2C128.728 26.5 128.008 27.6 126.979 28.7C125.949 29.8 124.714 30.6 123.273 31.1C121.832 31.7 120.186 32 118.333 32C116.583 32 115.142 31.7 113.907 31.2C112.672 30.7 111.746 29.9 111.128 28.8C110.511 27.7 110.202 26.6 110.305 25.3C110.408 24 110.716 21.8 111.437 18.7L112.466 13.5C113.084 10.4 113.598 8.20001 114.01 7.00001C114.422 5.70001 115.142 4.60001 116.171 3.50001C117.201 2.40001 118.436 1.60001 119.877 1.10001C121.318 0.500012 122.965 0.200012 124.817 0.200012C126.567 0.200012 128.008 0.500012 129.243 1.00001C130.478 1.50001 131.405 2.30001 132.022 3.40001C132.64 4.50001 132.948 5.60001 132.846 6.90001C132.743 8.20001 132.434 10.4 131.713 13.5L130.684 18.7ZM124.303 8.60001C124.611 7.20001 124.714 6.30001 124.611 5.90001C124.508 5.50001 124.2 5.30001 123.685 5.30001C123.273 5.30001 122.862 5.50001 122.553 5.80001C122.244 6.10001 121.935 7.10001 121.627 8.60001L118.745 22.9C118.436 24.7 118.23 25.8 118.333 26.2C118.436 26.6 118.745 26.8 119.259 26.8C119.877 26.8 120.289 26.6 120.494 26.1C120.7 25.6 121.009 24.5 121.421 22.7L124.303 8.60001Z" fill="#53606F"/>
<path d="M135.419 0.599976H141.286C145.197 0.599976 147.873 0.699976 149.211 0.999976C150.549 1.29998 151.578 1.99998 152.196 3.19998C152.813 4.39998 152.916 6.29997 152.402 8.89997C151.887 11.3 151.269 12.9 150.549 13.7C149.725 14.5 148.49 15 146.638 15.2C148.182 15.6 149.211 16.1 149.623 16.8C150.034 17.5 150.343 18.1 150.343 18.6C150.343 19.1 150.137 20.7 149.623 23.1L147.976 31.2H140.256L142.315 21C142.624 19.4 142.727 18.3 142.521 18C142.315 17.6 141.697 17.4 140.462 17.4L137.683 31.2H129.346L135.419 0.599976ZM142.624 5.79998L141.286 12.6C142.212 12.6 142.932 12.5 143.344 12.2C143.756 12 144.167 11.2 144.373 9.79998L144.682 8.09998C144.888 7.09998 144.785 6.49998 144.476 6.19998C144.27 5.99998 143.653 5.79998 142.624 5.79998Z" fill="#53606F"/>
<path d="M172.987 0.599976L171.649 7.49998H166.605L161.871 31.2H153.534L158.268 7.49998H153.328L154.666 0.599976H172.987V0.599976Z" fill="#53606F"/>
</g>
<defs>
<clipPath id="clip0">
<rect x="0.893921" width="189.076" height="32" fill="white"/>
</clipPath>
</defs>
</svg>
