<svg width="25" height="25" viewBox="0 0 25 25" fill="none" xmlns="http://www.w3.org/2000/svg">
<path d="M12.9326 0.742806C6.31466 0.676142 0.833093 6.0092 0.766245 12.6089C0.699397 19.2085 6.04726 24.6749 12.6653 24.7416C19.2832 24.8082 24.7648 19.4752 24.8317 12.8755C24.8985 6.27585 19.5506 0.809469 12.9326 0.742806ZM12.7321 20.4751C11.7294 20.4751 10.9272 19.6085 10.9272 18.6086L14.6039 18.6752C14.537 19.6752 13.7348 20.5418 12.7321 20.4751ZM18.949 16.942C18.949 17.6086 18.4142 17.6753 17.7457 17.6753L7.85217 17.5419C7.18369 17.5419 6.6489 17.4753 6.6489 16.8086V16.6753C6.6489 16.2087 6.91629 15.8087 7.38423 15.6087L7.78532 12.2755C7.78532 9.80901 9.59023 7.80911 11.8631 7.34247V6.07587C11.8631 5.4759 12.331 5.00925 12.9326 5.07592C13.5343 5.07592 14.0022 5.54256 13.9354 6.14253V7.40913C16.2082 7.94244 17.9463 9.94233 17.9463 12.4089L18.2805 15.742C18.6816 15.942 18.949 16.342 18.949 16.8753V16.942Z" fill="#34495E"/>
</svg>
