<svg width="28" height="45" viewBox="0 0 28 45" fill="none" xmlns="http://www.w3.org/2000/svg">
<path d="M23.5042 1.07468C22.7549 0.707466 21.9392 0.488589 21.1036 0.430535C20.2681 0.372486 19.4291 0.476394 18.6345 0.736335C17.8398 0.996276 17.1052 1.40716 16.4725 1.94552C15.8399 2.48388 15.3215 3.13917 14.9471 3.87399L1.0079 31.2297C0.459165 32.2919 0.129921 33.45 0.0391073 34.6373C-0.0517061 35.8247 0.0976924 37.018 0.478718 38.1485C0.859739 39.2791 1.46488 40.3247 2.25933 41.2251C3.05378 42.1255 4.02189 42.8631 5.10799 43.3954C6.19409 43.9277 7.37677 44.2442 8.58803 44.3268C9.79928 44.4093 11.0152 44.2563 12.166 43.8764C13.3167 43.4966 14.3795 42.8974 15.2934 42.1134C16.2072 41.3294 16.954 40.3759 17.4908 39.3079L26.679 21.2779L25.4103 20.6562L16.2228 38.686C15.7694 39.5909 15.1379 40.399 14.3647 41.0636C13.5915 41.7283 12.6919 42.2363 11.7176 42.5586C10.7434 42.8809 9.71373 43.011 8.68799 42.9414C7.66226 42.8718 6.6607 42.604 5.74096 42.1533C4.82122 41.7025 4.00148 41.0778 3.32895 40.3152C2.65641 39.5525 2.14436 38.6668 1.82227 37.7093C1.50018 36.7517 1.37442 35.7412 1.45224 34.7357C1.53005 33.7303 1.80989 32.7499 2.27565 31.851L16.2151 4.49593C16.8033 3.34164 17.8349 2.46377 19.0832 2.05543C20.3314 1.6471 21.6939 1.74176 22.8709 2.31859C24.048 2.89541 24.9431 3.90715 25.3595 5.13124C25.7759 6.35533 25.6794 7.69149 25.0912 8.84578L13.0524 32.4711C12.7975 32.9611 12.3555 33.3325 11.8227 33.5044C11.2899 33.6762 10.7094 33.6347 10.2077 33.3887C9.70598 33.1428 9.32368 32.7124 9.14409 32.1913C8.9645 31.6702 9.00215 31.1006 9.24885 30.6066L16.5351 16.3068L15.2673 15.6855L7.98019 29.9849C7.56495 30.8088 7.4994 31.7604 7.7979 32.6316C8.09639 33.5027 8.73462 34.2225 9.57292 34.6333C10.4112 35.0441 11.3813 35.1126 12.271 34.8237C13.1606 34.5347 13.8973 33.912 14.3199 33.0917L26.3587 9.4664C26.7332 8.73159 26.9564 7.93164 27.0155 7.11224C27.0747 6.29283 26.9688 5.47002 26.7037 4.69078C26.4387 3.91153 26.0197 3.19111 25.4707 2.57066C24.9217 1.95021 24.2535 1.44188 23.5042 1.07468Z" fill="#848484"/>
</svg>
