<svg width="13" height="13" viewBox="0 0 13 13" fill="none" xmlns="http://www.w3.org/2000/svg">
<path d="M12.4033 4.93174H7.90332V0.531738C7.90332 0.231738 7.70332 0.0317383 7.40332 0.0317383H6.40332C6.10332 0.0317383 5.90332 0.231738 5.90332 0.531738V5.03174H1.40332C1.10332 5.03174 0.90332 5.23174 0.90332 5.53174V6.53174C0.90332 6.83174 1.10332 7.03174 1.40332 7.03174H5.90332V11.5317C5.90332 11.8317 6.10332 12.0317 6.40332 12.0317H7.40332C7.70332 12.0317 7.90332 11.8317 7.90332 11.5317V7.03174H12.4033C12.7033 7.03174 12.9033 6.83174 12.9033 6.53174V5.53174C12.8033 5.23174 12.6033 4.93174 12.4033 4.93174Z" fill="#34495E"/>
</svg>
