<svg width="20" height="20" viewBox="0 0 20 20" fill="none" xmlns="http://www.w3.org/2000/svg">
<g clip-path="url(#clip0)">
<path d="M19.3412 9.69995C19.3412 14.8397 15.2309 18.95 10.0912 18.95C4.95309 18.95 0.841156 14.7453 0.841156 9.69995C0.841156 4.56024 4.95145 0.449951 10.0912 0.449951C15.1365 0.449951 19.3412 4.56188 19.3412 9.69995Z" stroke="#DFA12A" stroke-width="0.5"/>
<g clip-path="url(#clip1)">
<path d="M17.7679 9.69996C17.7679 13.9222 14.3134 17.3767 10.0912 17.3767C5.86894 17.3767 2.4144 13.9222 2.4144 9.69996C2.4144 5.47774 5.86894 2.02319 10.0912 2.02319C14.3134 2.02319 17.7679 5.47774 17.7679 9.69996Z" fill="#DFA12A"/>
<path d="M9.22752 8.45239C9.22752 9.02815 9.13156 9.50795 8.84368 9.89179C8.5558 10.2756 8.17196 10.3716 7.69217 10.3716C7.21237 10.3716 6.82853 10.2756 6.54065 9.89179C6.25277 9.50795 6.06085 9.02815 6.06085 8.45239C6.06085 7.87664 6.15681 7.39684 6.44469 7.013C6.82853 6.72512 7.21237 6.5332 7.69217 6.5332C8.17196 6.5332 8.5558 6.72512 8.84368 7.013C9.13156 7.39684 9.22752 7.87664 9.22752 8.45239ZM7.40429 8.45239C7.40429 8.74027 7.40429 9.02815 7.50025 9.12411C7.59621 9.22007 7.59621 9.31603 7.78813 9.31603C7.88408 9.31603 7.98004 9.22007 7.98004 9.12411C8.076 9.02815 8.076 8.74027 8.076 8.45239C8.076 8.16452 8.076 7.87664 7.98004 7.78068C7.88408 7.68472 7.78813 7.58876 7.69217 7.58876C7.59621 7.58876 7.50025 7.68472 7.40429 7.78068C7.40429 7.9726 7.40429 8.16452 7.40429 8.45239ZM12.3942 6.62916L8.93964 12.7706H7.69217L11.0508 6.62916H12.3942ZM13.9295 10.9473C13.9295 11.5231 13.8336 12.0029 13.5457 12.3867C13.2578 12.7706 12.874 12.8665 12.3942 12.8665C11.9144 12.8665 11.5305 12.6746 11.2427 12.3867C10.9548 12.0029 10.8588 11.5231 10.8588 10.9473C10.8588 10.3716 10.9548 9.89179 11.2427 9.50795C11.5305 9.22007 11.9144 9.02815 12.3942 9.02815C12.874 9.02815 13.2578 9.22007 13.5457 9.50795C13.8336 9.89179 13.9295 10.3716 13.9295 10.9473ZM12.0103 10.9473C12.0103 11.2352 12.0103 11.5231 12.1063 11.6191C12.2023 11.811 12.2023 11.811 12.3942 11.811C12.4901 11.811 12.5861 11.715 12.6821 11.5231C12.6821 11.3312 12.778 11.1393 12.778 10.8514C12.778 10.5635 12.778 10.3716 12.6821 10.1797C12.6821 9.98775 12.5861 9.89179 12.3942 9.89179C12.2982 9.89179 12.2023 9.98775 12.1063 10.0837C12.1063 10.3716 12.0103 10.6595 12.0103 10.9473Z" fill="#F0F0F0"/>
</g>
</g>
<defs>
<clipPath id="clip0">
<rect width="19" height="19" fill="white" transform="translate(0.591156 0.199951)"/>
</clipPath>
<clipPath id="clip1">
<rect width="15.3535" height="15.3535" fill="white" transform="translate(2.4144 2.02319)"/>
</clipPath>
</defs>
</svg>
