<svg width="28" height="28" viewBox="0 0 28 28" fill="none" xmlns="http://www.w3.org/2000/svg">
<path d="M14 2.20001C7.53331 2.20001 2.33331 7.40001 2.33331 13.8667C2.33331 17.4667 3.99998 20.7333 6.53331 22.8667C7.33331 19.4667 10.4 17 14 17C17.6 17 20.6666 19.4667 21.4666 22.8667C24.0666 20.7333 25.6666 17.4667 25.6666 13.8667C25.6666 7.40001 20.4666 2.20001 14 2.20001ZM14 16.2667C11.6666 16.2667 9.73331 14.3333 9.73331 12C9.73331 9.66668 11.6666 7.73335 14 7.73335C16.3333 7.73335 18.2666 9.66668 18.2666 12C18.2666 14.3333 16.3333 16.2667 14 16.2667Z" fill="#34495E"/>
<path d="M14 0C6.26667 0 0 6.26667 0 14C0 18.3333 2 22.4 5.4 25.0667C7.86667 27 10.8667 28 14 28C17.1333 28 20.1333 27 22.6 25.0667C26 22.4 28 18.3333 28 14C28 6.26667 21.7333 0 14 0ZM22.1333 24.4667C19.8 26.2667 17 27.2667 14 27.2667C11 27.2667 8.2 26.3333 5.86667 24.4667C2.6 21.9333 0.733333 18.1333 0.733333 14C0.733333 6.66667 6.66667 0.733333 14 0.733333C21.3333 0.733333 27.2667 6.66667 27.2667 14C27.2667 18.1333 25.4 21.9333 22.1333 24.4667Z" fill="#34495E"/>
</svg>
