<svg width="26" height="26" viewBox="0 0 26 26" fill="none" xmlns="http://www.w3.org/2000/svg">
<path fill-rule="evenodd" clip-rule="evenodd" d="M26 13C26 20.1797 20.1797 26 13 26C5.8203 26 0 20.1797 0 13C0 5.8203 5.8203 0 13 0C20.1797 0 26 5.8203 26 13ZM19.295 13.4479C19.6049 13.0931 19.7598 12.6734 19.7598 12.1889C19.7598 11.7495 19.5991 11.3693 19.2786 11.048C18.9575 10.7268 18.5773 10.5663 18.1379 10.5663H15.7974C15.8199 10.4874 15.8425 10.4198 15.8649 10.3635C15.8872 10.3072 15.9185 10.2452 15.9578 10.1776C15.9971 10.1099 16.0254 10.0592 16.0422 10.0255C16.1436 9.83403 16.2212 9.6762 16.2748 9.55237C16.3282 9.4283 16.3815 9.25936 16.4352 9.04529C16.4888 8.83134 16.5154 8.61718 16.5154 8.40311C16.5154 8.26798 16.5138 8.15803 16.5111 8.07359C16.5085 7.98909 16.4941 7.8623 16.469 7.69328C16.4435 7.52434 16.4096 7.38349 16.3675 7.27088C16.3252 7.15823 16.2575 7.03138 16.1647 6.89065C16.0717 6.74966 15.9591 6.63574 15.8266 6.54837C15.6941 6.46106 15.5252 6.38784 15.3196 6.32874C15.1138 6.26958 14.8815 6.24001 14.6223 6.24001C14.4758 6.24001 14.3492 6.29355 14.242 6.4006C14.1294 6.51324 14.0335 6.65406 13.9547 6.823C13.8758 6.99202 13.8208 7.13849 13.7898 7.26247C13.7588 7.38639 13.7236 7.55826 13.6843 7.77789C13.6334 8.0146 13.5956 8.1849 13.57 8.28911C13.5447 8.39332 13.4953 8.5299 13.4222 8.69887C13.3488 8.86795 13.2616 9.00306 13.1602 9.10452C12.9743 9.29038 12.6899 9.6284 12.3067 10.1185C12.0306 10.4789 11.7462 10.8197 11.4533 11.1409C11.1603 11.462 10.9462 11.6282 10.8111 11.6395C10.6704 11.6507 10.5492 11.7085 10.4478 11.8127C10.3464 11.9169 10.2957 12.0395 10.2957 12.1803V17.5967C10.2957 17.7432 10.3491 17.8685 10.4562 17.9727C10.5632 18.077 10.6899 18.1319 10.8364 18.1375C11.0336 18.1432 11.4786 18.267 12.1715 18.5094C12.6052 18.6557 12.9446 18.7671 13.1896 18.8431C13.4346 18.919 13.7771 19.0007 14.2162 19.0882C14.6556 19.1755 15.0612 19.2192 15.4329 19.2192H15.5766H16.2188H16.5229C17.2723 19.208 17.827 18.9882 18.1876 18.5602C18.5143 18.1714 18.6522 17.6616 18.6017 17.0307C18.8213 16.8223 18.9736 16.5576 19.0579 16.2364C19.1536 15.893 19.1536 15.5634 19.0579 15.248C19.317 14.9044 19.4382 14.5185 19.4211 14.0903C19.4219 13.9099 19.3797 13.6959 19.295 13.4479ZM6.78067 11.6482H9.21419C9.36066 11.6482 9.48737 11.7017 9.59442 11.8088C9.70141 11.9158 9.75495 12.0426 9.75495 12.189V17.5972C9.75495 17.7435 9.70144 17.8703 9.59442 17.9774C9.48734 18.0843 9.36063 18.1379 9.21419 18.1379H6.7807C6.63422 18.1379 6.50746 18.0843 6.40035 17.9774C6.2933 17.8703 6.23977 17.7435 6.23977 17.5972V12.189C6.23977 12.0426 6.2933 11.9158 6.40032 11.8088C6.50735 11.7018 6.63411 11.6482 6.78067 11.6482ZM7.86217 17.0562C8.00865 17.0562 8.13538 17.0041 8.2424 16.8999C8.34957 16.7957 8.40299 16.6676 8.40299 16.5154C8.40299 16.369 8.34945 16.2422 8.2424 16.1352C8.13538 16.0282 8.00865 15.9746 7.86217 15.9746C7.71005 15.9746 7.5819 16.0282 7.47772 16.1352C7.37348 16.2422 7.32142 16.369 7.32142 16.5154C7.32142 16.6676 7.37351 16.7957 7.47772 16.8999C7.58187 17.0041 7.71005 17.0562 7.86217 17.0562Z" fill="#378C22"/>
</svg>
