<svg width="24" height="24" viewBox="0 0 24 24" fill="none" xmlns="http://www.w3.org/2000/svg">
<path d="M21 24H3C1.35 24 0 22.65 0 21V3C0 1.35 1.35 0 3 0H21C22.65 0 24 1.35 24 3V21C24 22.65 22.65 24 21 24Z" fill="#D4D7DB"/>
<g clip-path="url(#clip0)">
<path d="M11.9996 18.7824C12.2923 18.7824 12.5295 18.5452 12.5295 18.2525C12.5295 17.9599 12.2923 17.7227 11.9996 17.7227C11.707 17.7227 11.4697 17.9599 11.4697 18.2525C11.4697 18.5452 11.707 18.7824 11.9996 18.7824Z" fill="#4D6072"/>
<path d="M16.159 9.34448C16.1416 7.06568 14.2823 5.21729 11.9995 5.21729C9.70586 5.21729 7.83984 7.0833 7.83984 9.37693C7.83984 9.66959 8.07708 9.90682 8.36974 9.90682C8.66239 9.90682 8.89963 9.66959 8.89963 9.37693C8.89963 7.66766 10.2902 6.27707 11.9995 6.27707C13.7088 6.27707 15.0994 7.66766 15.0994 9.37693C15.0994 9.38636 15.0996 9.39574 15.1001 9.40507C15.0894 10.6387 14.3522 11.7458 13.2158 12.231C12.155 12.6839 11.4696 13.7326 11.4696 14.9027V16.133C11.4696 16.4257 11.7068 16.6629 11.9995 16.6629C12.2922 16.6629 12.5294 16.4257 12.5294 16.133V14.9027C12.5294 14.1577 12.9621 13.4916 13.6319 13.2057C15.1681 12.5498 16.1604 11.0469 16.16 9.3768C16.16 9.36594 16.1596 9.35518 16.159 9.34448Z" fill="#4D6072"/>
</g>
<defs>
<clipPath id="clip0">
<rect x="5.21777" y="5.21729" width="13.5652" height="13.5652" fill="white"/>
</clipPath>
</defs>
</svg>
