<svg width="36" height="41" viewBox="0 0 36 41" fill="none" xmlns="http://www.w3.org/2000/svg">
<path d="M0.623195 7.07137C-0.123209 4.75253 1.10993 2.24329 3.37247 1.47809C5.63502 0.712896 8.08292 1.97726 8.82933 4.2961L17.3193 30.671C16.5281 30.4569 15.6867 30.4177 14.8467 30.5752L6.6273 5.04087C6.28142 3.96629 5.14737 3.3807 4.09907 3.73523C3.05071 4.08976 2.4794 5.25216 2.82528 6.32667C3.02587 6.94991 2.69561 7.62199 2.08751 7.82759C1.47947 8.03319 0.823849 7.69461 0.623195 7.07137ZM34.0736 27.7616L20.1633 32.466C20.657 33.0405 21.0483 33.7234 21.2968 34.4951C21.3056 34.5226 21.3106 34.5504 21.319 34.578L34.8002 30.0187C35.4082 29.8131 35.7386 29.1411 35.538 28.5179C35.3373 27.8945 34.6816 27.5559 34.0736 27.7616ZM20.1958 34.8677C20.9839 37.3161 19.6864 39.9558 17.2977 40.7637C14.9091 41.5715 12.3338 40.2416 11.5456 37.7932C10.7574 35.3447 12.055 32.7051 14.4436 31.8972C16.8323 31.0893 19.4077 32.4193 20.1958 34.8677ZM18.0332 35.599C17.6392 34.3748 16.3516 33.7099 15.1572 34.1138C13.9628 34.5177 13.3141 35.8376 13.7081 37.0617C14.1022 38.2859 15.3898 38.9509 16.5842 38.5471C17.7785 38.1431 18.4273 36.8232 18.0332 35.599ZM30.5582 9.87115L35.2808 24.5425C35.3811 24.8541 35.216 25.1901 34.9119 25.293L20.0479 30.3198C19.7439 30.4226 19.416 30.2533 19.3158 29.9417L14.5932 15.2703C14.4928 14.9587 14.658 14.6227 14.9621 14.5199L29.826 9.49298C30.1301 9.39028 30.4579 9.5595 30.5582 9.87115ZM28.592 18.3936L23.5307 15.5394L21.1213 20.9202L22.7165 21.6728L23.7583 19.345L25.6394 25.1889L27.4397 24.5801L25.5588 18.737L27.7469 19.9715L28.592 18.3936ZM24.1755 9.6409L21.1562 0.261025C21.0921 0.0617873 20.8824 -0.046474 20.6881 0.0193135L18.0991 0.89485L18.0864 0.918699L18.0647 0.906506L16.6988 1.36849L17.8236 4.8628L16.2829 5.38387L15.1581 1.88957L13.7917 2.35169L13.7814 2.37473L13.7572 2.36334L11.1851 3.23325C10.9906 3.29897 10.8851 3.51382 10.9493 3.71306L13.9687 13.093C14.0328 13.2922 14.2424 13.4005 14.4368 13.3347L23.9399 10.1208C24.1341 10.055 24.2397 9.84014 24.1755 9.6409Z" fill="white"/>
</svg>
