<svg width="37" height="37" viewBox="0 0 37 37" fill="none" xmlns="http://www.w3.org/2000/svg">
<path d="M18.9011 36.1721C9.23608 36.1721 1.40112 28.3396 1.40112 18.6721C1.40112 9.00964 9.23617 1.17212 18.9011 1.17212C28.5661 1.17212 36.4011 9.00964 36.4011 18.6721C36.4011 28.3396 28.5662 36.1721 18.9011 36.1721Z" stroke="#8596A6"/>
<path fill-rule="evenodd" clip-rule="evenodd" d="M33.9011 18.6489C33.9011 26.9332 27.1854 33.6489 18.9011 33.6489C10.6169 33.6489 3.90112 26.9332 3.90112 18.6489C3.90112 10.3647 10.6169 3.64893 18.9011 3.64893C27.1854 3.64893 33.9011 10.3647 33.9011 18.6489ZM19.8142 26.3701V28.9615C19.8142 29.3317 19.5533 29.649 19.2489 29.649H17.4663C17.162 29.649 16.9011 29.3317 16.9011 28.9615V26.3701C16.9011 25.9999 17.162 25.6826 17.4663 25.6826H19.2924C19.5533 25.6826 19.8142 25.9999 19.8142 26.3701ZM19.9011 8.33643C19.9011 8.17777 19.8576 7.96623 19.7272 7.86046C19.6403 7.70181 19.4663 7.64893 19.3359 7.64893H17.4663C17.3359 7.64893 17.162 7.70181 17.075 7.86046C16.9446 7.96623 16.9011 8.17777 16.9011 8.33643L17.2924 22.6153C17.2924 22.9855 17.5533 23.3028 17.8576 23.3028H18.9446C19.2489 23.3028 19.5098 22.9855 19.5098 22.6153L19.9011 8.33643Z" fill="#8596A6"/>
</svg>
