<svg width="37" height="37" viewBox="0 0 37 37" fill="none" xmlns="http://www.w3.org/2000/svg">
<path d="M18.1685 35.9058C8.50341 35.9058 0.668457 28.0733 0.668457 18.4058C0.668457 8.74329 8.5035 0.905762 18.1685 0.905762C27.8334 0.905762 35.6685 8.74329 35.6685 18.4058C35.6685 28.0733 27.8335 35.9058 18.1685 35.9058Z" fill="white" stroke="#C6C6C6"/>
<mask id="path-2-inside-1" fill="white">
<path fill-rule="evenodd" clip-rule="evenodd" d="M18.1685 33.4058C26.4527 33.4058 33.1685 26.69 33.1685 18.4058C33.1685 10.1215 26.4527 3.40576 18.1685 3.40576C9.88419 3.40576 3.16846 10.1215 3.16846 18.4058C3.16846 26.69 9.88419 33.4058 18.1685 33.4058ZM25.6322 12.06C25.9837 11.7085 26.5535 11.7085 26.9049 12.06C27.2564 12.4115 27.2564 12.9813 26.9049 13.3328L15.486 24.7517C15.1348 25.1029 14.5645 25.1032 14.2132 24.7517L9.43215 19.9708C9.08066 19.6193 9.08066 19.0495 9.43215 18.698C9.78368 18.3465 10.3535 18.3465 10.7049 18.698L14.8496 22.8426L25.6322 12.06Z"/>
</mask>
<path fill-rule="evenodd" clip-rule="evenodd" d="M18.1685 33.4058C26.4527 33.4058 33.1685 26.69 33.1685 18.4058C33.1685 10.1215 26.4527 3.40576 18.1685 3.40576C9.88419 3.40576 3.16846 10.1215 3.16846 18.4058C3.16846 26.69 9.88419 33.4058 18.1685 33.4058ZM25.6322 12.06C25.9837 11.7085 26.5535 11.7085 26.9049 12.06C27.2564 12.4115 27.2564 12.9813 26.9049 13.3328L15.486 24.7517C15.1348 25.1029 14.5645 25.1032 14.2132 24.7517L9.43215 19.9708C9.08066 19.6193 9.08066 19.0495 9.43215 18.698C9.78368 18.3465 10.3535 18.3465 10.7049 18.698L14.8496 22.8426L25.6322 12.06Z" fill="#C6C6C6"/>
<path d="M26.9049 12.06L26.1978 12.767L26.1978 12.767L26.9049 12.06ZM25.6322 12.06L24.9251 11.3528L24.925 11.3529L25.6322 12.06ZM26.9049 13.3328L26.1979 12.6256L26.1978 12.6257L26.9049 13.3328ZM15.486 24.7517L16.1931 25.4588H16.1931L15.486 24.7517ZM14.2132 24.7517L14.9204 24.0447L14.9203 24.0446L14.2132 24.7517ZM9.43215 19.9708L8.72505 20.6779L8.72505 20.6779L9.43215 19.9708ZM9.43215 18.698L8.72512 17.9908L8.72508 17.9909L9.43215 18.698ZM10.7049 18.698L9.99781 19.4051L9.99784 19.4051L10.7049 18.698ZM14.8496 22.8426L14.1425 23.5498L14.8496 24.2569L15.5567 23.5497L14.8496 22.8426ZM32.1685 18.4058C32.1685 26.1377 25.9004 32.4058 18.1685 32.4058V34.4058C27.005 34.4058 34.1685 27.2423 34.1685 18.4058H32.1685ZM18.1685 4.40576C25.9004 4.40576 32.1685 10.6738 32.1685 18.4058H34.1685C34.1685 9.56921 27.005 2.40576 18.1685 2.40576V4.40576ZM4.16846 18.4058C4.16846 10.6738 10.4365 4.40576 18.1685 4.40576V2.40576C9.3319 2.40576 2.16846 9.56921 2.16846 18.4058H4.16846ZM18.1685 32.4058C10.4365 32.4058 4.16846 26.1377 4.16846 18.4058H2.16846C2.16846 27.2423 9.3319 34.4058 18.1685 34.4058V32.4058ZM27.6121 11.3529C26.8701 10.6108 25.6671 10.6109 24.9251 11.3528L26.3392 12.7671C26.3003 12.8061 26.2369 12.8062 26.1978 12.767L27.6121 11.3529ZM27.612 14.0399C28.3541 13.2979 28.354 12.0948 27.6121 11.3529L26.1978 12.767C26.1589 12.7281 26.1587 12.6648 26.1979 12.6256L27.612 14.0399ZM16.1931 25.4588L27.6121 14.0399L26.1978 12.6257L14.7789 24.0446L16.1931 25.4588ZM13.506 25.4587C14.2481 26.2011 15.4516 26.2003 16.1931 25.4588L14.7789 24.0446C14.818 24.0055 14.881 24.0053 14.9204 24.0447L13.506 25.4587ZM8.72505 20.6779L13.5061 25.4588L14.9203 24.0446L10.1393 19.2637L8.72505 20.6779ZM8.72508 17.9909C7.983 18.7329 7.98305 19.9359 8.72505 20.6779L10.1393 19.2637C10.1783 19.3027 10.1783 19.366 10.1392 19.4051L8.72508 17.9909ZM11.4121 17.9909C10.67 17.2488 9.46707 17.249 8.72512 17.9908L10.1392 19.4052C10.1003 19.4441 10.037 19.4442 9.99781 19.4051L11.4121 17.9909ZM15.5567 22.1355L11.4121 17.9909L9.99784 19.4051L14.1425 23.5498L15.5567 22.1355ZM24.925 11.3529L14.1425 22.1355L15.5567 23.5497L26.3393 12.7671L24.925 11.3529Z" fill="#C6C6C6" mask="url(#path-2-inside-1)"/>
</svg>
