<svg width="37" height="37" viewBox="0 0 37 37" fill="none" xmlns="http://www.w3.org/2000/svg">
<path d="M18.9011 36.1721C9.23608 36.1721 1.40112 28.3396 1.40112 18.6721C1.40112 9.00964 9.23617 1.17212 18.9011 1.17212C28.5661 1.17212 36.4011 9.00964 36.4011 18.6721C36.4011 28.3396 28.5662 36.1721 18.9011 36.1721Z" fill="white" stroke="#228007"/>
<mask id="path-2-inside-1" fill="white">
<path fill-rule="evenodd" clip-rule="evenodd" d="M18.9011 33.6721C27.1854 33.6721 33.9011 26.9564 33.9011 18.6721C33.9011 10.3878 27.1854 3.67212 18.9011 3.67212C10.6169 3.67212 3.90112 10.3878 3.90112 18.6721C3.90112 26.9564 10.6169 33.6721 18.9011 33.6721ZM26.3648 12.3263C26.7163 11.9748 27.2862 11.9748 27.6376 12.3263C27.9891 12.6778 27.9891 13.2477 27.6376 13.5991L16.2187 25.0181C15.8674 25.3693 15.2972 25.3695 14.9459 25.0181L10.1648 20.2371C9.81333 19.8856 9.81333 19.3158 10.1648 18.9644C10.5163 18.6129 11.0862 18.6129 11.4376 18.9644L15.5823 23.109L26.3648 12.3263Z"/>
</mask>
<path fill-rule="evenodd" clip-rule="evenodd" d="M18.9011 33.6721C27.1854 33.6721 33.9011 26.9564 33.9011 18.6721C33.9011 10.3878 27.1854 3.67212 18.9011 3.67212C10.6169 3.67212 3.90112 10.3878 3.90112 18.6721C3.90112 26.9564 10.6169 33.6721 18.9011 33.6721ZM26.3648 12.3263C26.7163 11.9748 27.2862 11.9748 27.6376 12.3263C27.9891 12.6778 27.9891 13.2477 27.6376 13.5991L16.2187 25.0181C15.8674 25.3693 15.2972 25.3695 14.9459 25.0181L10.1648 20.2371C9.81333 19.8856 9.81333 19.3158 10.1648 18.9644C10.5163 18.6129 11.0862 18.6129 11.4376 18.9644L15.5823 23.109L26.3648 12.3263Z" fill="#228007"/>
<path d="M26.3648 12.3263L25.6577 11.6192L25.6577 11.6192L26.3648 12.3263ZM27.6376 13.5991L26.9305 12.892L26.9305 12.892L27.6376 13.5991ZM16.2187 25.0181L16.9258 25.7252H16.9258L16.2187 25.0181ZM14.9459 25.0181L15.6531 24.3111L15.653 24.311L14.9459 25.0181ZM10.1648 20.2371L9.45771 20.9442L9.45772 20.9442L10.1648 20.2371ZM10.1648 18.9644L9.45778 18.2572L9.45775 18.2572L10.1648 18.9644ZM11.4376 18.9644L10.7305 19.6714L10.7305 19.6715L11.4376 18.9644ZM15.5823 23.109L14.8751 23.8161L15.5823 24.5232L16.2894 23.8161L15.5823 23.109ZM32.9011 18.6721C32.9011 26.4041 26.6331 32.6721 18.9011 32.6721V34.6721C27.7377 34.6721 34.9011 27.5087 34.9011 18.6721H32.9011ZM18.9011 4.67212C26.6331 4.67212 32.9011 10.9401 32.9011 18.6721H34.9011C34.9011 9.83556 27.7377 2.67212 18.9011 2.67212V4.67212ZM4.90112 18.6721C4.90112 10.9401 11.1691 4.67212 18.9011 4.67212V2.67212C10.0646 2.67212 2.90112 9.83556 2.90112 18.6721H4.90112ZM18.9011 32.6721C11.1691 32.6721 4.90112 26.4041 4.90112 18.6721H2.90112C2.90112 27.5087 10.0646 34.6721 18.9011 34.6721V32.6721ZM28.3448 11.6193C27.6027 10.8772 26.3998 10.8773 25.6577 11.6192L27.0719 13.0335C27.0329 13.0724 26.9696 13.0725 26.9305 13.0334L28.3448 11.6193ZM28.3447 14.3063C29.0868 13.5642 29.0866 12.3612 28.3448 11.6193L26.9305 13.0334C26.8915 12.9944 26.8914 12.9311 26.9305 12.892L28.3447 14.3063ZM16.9258 25.7252L28.3447 14.3062L26.9305 12.892L15.5115 24.311L16.9258 25.7252ZM14.2386 25.7251C14.9808 26.4674 16.1843 26.4667 16.9258 25.7252L15.5115 24.311C15.5506 24.2719 15.6136 24.2716 15.6531 24.3111L14.2386 25.7251ZM9.45772 20.9442L14.2388 25.7252L15.653 24.311L10.8719 19.53L9.45772 20.9442ZM9.45775 18.2572C8.71567 18.9992 8.71571 20.2022 9.45771 20.9442L10.8719 19.53C10.9109 19.569 10.911 19.6324 10.8719 19.6715L9.45775 18.2572ZM12.1448 18.2573C11.4027 17.5151 10.1997 17.5154 9.45778 18.2572L10.8719 19.6715C10.833 19.7104 10.7696 19.7106 10.7305 19.6714L12.1448 18.2573ZM16.2894 22.4019L12.1447 18.2573L10.7305 19.6715L14.8751 23.8161L16.2894 22.4019ZM25.6577 11.6192L14.8751 22.4019L16.2894 23.8161L27.0719 13.0334L25.6577 11.6192Z" fill="#228007" mask="url(#path-2-inside-1)"/>
</svg>
