<svg width="37" height="37" viewBox="0 0 37 37" fill="none" xmlns="http://www.w3.org/2000/svg">
<path d="M18.1226 35.929C8.45751 35.929 0.622559 28.0965 0.622559 18.429C0.622559 8.76648 8.4576 0.928955 18.1226 0.928955C27.7875 0.928955 35.6226 8.76648 35.6226 18.429C35.6226 28.0965 27.7876 35.929 18.1226 35.929Z" fill="white" stroke="#C6C6C6"/>
<path fill-rule="evenodd" clip-rule="evenodd" d="M33.1226 18.429C33.1226 26.7132 26.4068 33.429 18.1226 33.429C9.83829 33.429 3.12256 26.7132 3.12256 18.429C3.12256 10.1447 9.83829 3.42896 18.1226 3.42896C26.4068 3.42896 33.1226 10.1447 33.1226 18.429ZM25.3854 18.9457C25.7429 18.5363 25.9217 18.0521 25.9217 17.493C25.9217 16.986 25.7362 16.5473 25.3664 16.1767C24.996 15.806 24.5573 15.6208 24.0503 15.6208H21.3497C21.3756 15.5298 21.4016 15.4518 21.4276 15.3868C21.4533 15.3218 21.4894 15.2502 21.5348 15.1722C21.5801 15.0942 21.6127 15.0357 21.6322 14.9968C21.7491 14.7759 21.8387 14.5938 21.9005 14.4509C21.9622 14.3077 22.0236 14.1128 22.0856 13.8658C22.1474 13.6189 22.1781 13.3718 22.1781 13.1248C22.1781 12.9689 22.1763 12.842 22.1732 12.7446C22.1701 12.6471 22.1536 12.5008 22.1246 12.3058C22.0952 12.1108 22.0561 11.9483 22.0075 11.8184C21.9586 11.6884 21.8806 11.542 21.7735 11.3797C21.6662 11.217 21.5363 11.0855 21.3834 10.9847C21.2305 10.884 21.0356 10.7995 20.7984 10.7313C20.5609 10.663 20.2929 10.6289 19.9937 10.6289C19.8248 10.6289 19.6786 10.6907 19.555 10.8142C19.425 10.9442 19.3144 11.1067 19.2234 11.3016C19.1324 11.4966 19.069 11.6656 19.0332 11.8087C18.9974 11.9517 18.9568 12.15 18.9115 12.4034C18.8528 12.6765 18.8091 12.873 18.7796 12.9933C18.7504 13.1135 18.6934 13.2711 18.609 13.4661C18.5244 13.6612 18.4238 13.8171 18.3067 13.9341C18.0923 14.1486 17.7641 14.5386 17.322 15.104C17.0034 15.52 16.6752 15.9132 16.3372 16.2837C15.9991 16.6543 15.7522 16.8461 15.5962 16.8591C15.4338 16.872 15.2941 16.9387 15.177 17.059C15.06 17.1792 15.0015 17.3206 15.0015 17.4831V23.7328C15.0015 23.9018 15.0632 24.0464 15.1867 24.1666C15.3102 24.287 15.4564 24.3503 15.6254 24.3568C15.8529 24.3634 16.3664 24.5062 17.166 24.786C17.6664 24.9547 18.058 25.0833 18.3407 25.1709C18.6234 25.2585 19.0185 25.3528 19.5252 25.4537C20.0322 25.5544 20.5002 25.6049 20.929 25.6049H21.0948H21.8359H22.1868C23.0515 25.592 23.6915 25.3384 24.1076 24.8445C24.4845 24.3959 24.6437 23.8077 24.5854 23.0797C24.8388 22.8392 25.0145 22.5338 25.1118 22.1632C25.2222 21.767 25.2222 21.3867 25.1118 21.0227C25.4108 20.6262 25.5505 20.181 25.5309 19.687C25.5317 19.4788 25.4831 19.2318 25.3854 18.9457ZM10.9463 16.8692H13.7542C13.9232 16.8692 14.0694 16.931 14.1929 17.0545C14.3163 17.178 14.3781 17.3242 14.3781 17.4932V23.7334C14.3781 23.9023 14.3164 24.0485 14.1929 24.1722C14.0693 24.2955 13.9231 24.3573 13.7542 24.3573H10.9463C10.7773 24.3573 10.631 24.2955 10.5074 24.1722C10.3839 24.0485 10.3221 23.9022 10.3221 23.7334V17.4932C10.3221 17.3242 10.3839 17.178 10.5074 17.0545C10.6309 16.931 10.7771 16.8692 10.9463 16.8692ZM12.1942 23.1092C12.3632 23.1092 12.5094 23.0491 12.6329 22.9289C12.7565 22.8086 12.8182 22.6608 12.8182 22.4853C12.8182 22.3162 12.7564 22.1699 12.6329 22.0465C12.5094 21.923 12.3632 21.8612 12.1942 21.8612C12.0186 21.8612 11.8708 21.923 11.7505 22.0465C11.6303 22.17 11.5702 22.3163 11.5702 22.4853C11.5702 22.6608 11.6303 22.8086 11.7505 22.9289C11.8707 23.0491 12.0186 23.1092 12.1942 23.1092Z" fill="#C6C6C6"/>
</svg>
