<svg width="32" height="32" viewBox="0 0 32 32" fill="none" xmlns="http://www.w3.org/2000/svg">
<g clip-path="url(#clip0)">
<path d="M30.7324 21.1505C31.5779 19.9066 32.0003 18.5707 32.0003 17.142C32.0003 15.6775 31.5534 14.3077 30.6608 13.034C29.7679 11.7604 28.5534 10.7007 27.0179 9.85547C27.2914 10.7482 27.4284 11.653 27.4284 12.5698C27.4284 14.1649 27.0301 15.6768 26.2319 17.1056C25.4343 18.5339 24.2914 19.7957 22.8034 20.8911C21.4224 21.8911 19.851 22.6587 18.0889 23.1946C16.3274 23.7301 14.488 23.9982 12.5713 23.9982C12.2143 23.9982 11.6904 23.9746 11 23.9271C13.3927 25.4981 16.2024 26.2841 19.4284 26.2841C20.4523 26.2841 21.4998 26.1887 22.5714 25.9982C24.0475 27.0462 25.7024 27.8077 27.5356 28.2842C27.9642 28.3916 28.4761 28.4866 29.0714 28.5699C29.2142 28.5818 29.3454 28.5401 29.4643 28.4449C29.5834 28.3497 29.6609 28.2191 29.6964 28.0526C29.6908 27.9811 29.6964 27.9419 29.7143 27.9362C29.7319 27.9305 29.7289 27.8916 29.7053 27.8203C29.6818 27.7488 29.6698 27.7131 29.6698 27.7131L29.6253 27.624C29.6129 27.6005 29.5928 27.5675 29.5628 27.526C29.533 27.4847 29.5093 27.4545 29.4913 27.4367C29.4738 27.419 29.4472 27.389 29.4112 27.3477C29.3757 27.3064 29.3518 27.2794 29.3398 27.2674C29.2803 27.1959 29.1434 27.0472 28.9292 26.8209C28.7147 26.5949 28.5602 26.4194 28.465 26.2944C28.3697 26.1694 28.2358 25.9969 28.0632 25.7764C27.8907 25.5564 27.7417 25.3271 27.6167 25.089C27.4917 24.8509 27.3697 24.5889 27.2507 24.3034C28.7269 23.4455 29.8873 22.3949 30.7324 21.1505Z" fill="#B2B8BE"/>
<path fill-rule="evenodd" clip-rule="evenodd" d="M23.4645 17.1598C22.3455 18.5648 20.8185 19.6748 18.8842 20.4903C16.9498 21.3059 14.8454 21.7133 12.5714 21.7125C11.5477 21.7125 10.5 21.6173 9.4287 21.4268C7.95256 22.4743 6.29766 23.2366 4.46432 23.7126C4.03582 23.8198 3.52382 23.915 2.9287 23.9983H2.8751C2.744 23.9983 2.6221 23.9508 2.50908 23.8558C2.396 23.7601 2.32758 23.6353 2.30375 23.4808C2.29161 23.4449 2.28573 23.4063 2.28573 23.3648C2.28573 23.3233 2.28873 23.2843 2.29474 23.2488C2.30062 23.2129 2.31275 23.1777 2.33039 23.1418L2.37511 23.0528L2.43766 22.9545C2.47931 22.889 2.50314 22.8592 2.50915 22.8657C2.51502 22.8713 2.54179 22.8417 2.58952 22.7762C2.63718 22.7107 2.66101 22.6837 2.66101 22.6957C2.72042 22.6244 2.8574 22.4756 3.07174 22.2494C3.28615 22.0236 3.44089 21.8476 3.53615 21.7227C3.63146 21.5981 3.76525 21.4256 3.93788 21.2051C4.11063 20.9847 4.2593 20.7557 4.38439 20.5177C4.50942 20.2792 4.63145 20.0177 4.75041 19.7317C3.27433 18.8747 2.11354 17.8209 1.26843 16.5712C0.423247 15.3212 0 13.9873 0 12.5708C0 10.9159 0.559596 9.38634 1.6786 7.98137C2.79748 6.5766 4.32428 5.46647 6.25876 4.65088C8.19342 3.83559 10.2975 3.42773 12.5713 3.42773C14.8453 3.42773 16.9494 3.83534 18.8839 4.65088C20.8185 5.46654 22.3452 6.57666 23.464 7.98137C24.5833 9.38609 25.1427 10.9159 25.1427 12.5707C25.1427 14.2255 24.5833 15.7552 23.4645 17.1598ZM3.04761 12.1904C3.04761 11.2761 3.65713 10.6666 4.57142 10.6666C5.33332 10.6666 6.09523 11.2761 6.09523 12.1904C6.09523 13.1047 5.4857 13.7142 4.57142 13.7142C3.65713 13.7142 3.04761 13.1047 3.04761 12.1904ZM13.7143 12.1904C13.7143 11.2761 13.1048 10.6666 12.1905 10.6666C11.2762 10.6666 10.6667 11.2761 10.6667 12.1904C10.6667 13.1047 11.2762 13.7142 12.1905 13.7142C12.9524 13.7142 13.7143 12.9523 13.7143 12.1904ZM21.3333 12.1904C21.3333 13.1047 20.7238 13.7142 19.8095 13.7142C18.8952 13.7142 18.2857 12.9523 18.2857 12.1904C18.2857 11.2761 18.8952 10.6666 19.8095 10.6666C20.7238 10.6666 21.3333 11.2761 21.3333 12.1904Z" fill="#B2B8BE"/>
</g>
<defs>
<clipPath id="clip0">
<rect width="32" height="32" fill="white"/>
</clipPath>
</defs>
</svg>
