<svg width="37" height="37" viewBox="0 0 37 37" fill="none" xmlns="http://www.w3.org/2000/svg">
<path d="M18.9011 36.1721C9.23608 36.1721 1.40112 28.3396 1.40112 18.6721C1.40112 9.00964 9.23617 1.17212 18.9011 1.17212C28.5661 1.17212 36.4011 9.00964 36.4011 18.6721C36.4011 28.3396 28.5662 36.1721 18.9011 36.1721Z" fill="white" stroke="#8596A6"/>
<g clip-path="url(#clip0)">
<path d="M18.9011 3.67212C10.6298 3.67212 3.90112 10.4008 3.90112 18.6721C3.90112 26.9435 10.6298 33.6721 18.9011 33.6721C27.1725 33.6721 33.9011 26.9435 33.9011 18.6721C33.9011 10.4008 27.1725 3.67212 18.9011 3.67212ZM26.0349 26.4308C25.7912 26.6745 25.4712 26.7972 25.1512 26.7972C24.8312 26.7972 24.511 26.6745 24.2675 26.4308L18.0174 20.1809C17.7823 19.9472 17.6512 19.6295 17.6512 19.2972V11.1721C17.6512 10.4809 18.211 9.9222 18.9011 9.9222C19.5912 9.9222 20.151 10.4809 20.151 11.1721V18.7797L26.0349 24.6633C26.5236 25.1522 26.5236 25.9421 26.0349 26.4308Z" fill="#8596A6"/>
</g>
<defs>
<clipPath id="clip0">
<rect width="30" height="30" fill="white" transform="translate(3.90112 3.67212)"/>
</clipPath>
</defs>
</svg>
