<svg width="16" height="16" viewBox="0 0 16 16" fill="none" xmlns="http://www.w3.org/2000/svg">
<g clip-path="url(#clip0)">
<path d="M15.2651 14.6L11.6989 10.6C12.6373 9.4 13.1066 8 13.1066 6.4C13.1066 2.9 10.385 0 7.10022 0C3.81549 0 1 2.9 1 6.5C1 10.1 3.72164 13 7.10022 13C8.32027 13 9.54031 12.6 10.5727 11.8L14.1389 15.8C14.3266 16 14.5143 16.1 14.702 16.1C14.8897 16.1 15.0774 16 15.2651 15.9C15.5467 15.5 15.5467 14.9 15.2651 14.6ZM7.10022 1.7C9.54031 1.7 11.605 3.8 11.605 6.5C11.605 9.2 9.63416 11.3 7.10022 11.3C4.56628 11.3 2.59544 9.2 2.59544 6.5C2.59544 3.8 4.56628 1.7 7.10022 1.7Z" fill="white"/>
</g>
<defs>
<clipPath id="clip0">
<rect width="16" height="16" fill="white"/>
</clipPath>
</defs>
</svg>
