<svg width="17" height="17" viewBox="0 0 17 17" fill="none" xmlns="http://www.w3.org/2000/svg">
<path d="M16.3371 14.7812L12.3778 10.7812C13.4198 9.58115 13.9407 8.18115 13.9407 6.58115C13.9407 3.08115 10.9192 0.181152 7.27245 0.181152C3.62575 0.181152 0.5 3.08115 0.5 6.68115C0.5 10.2812 3.52156 13.1812 7.27245 13.1812C8.62695 13.1812 9.98144 12.7812 11.1275 11.9812L15.0868 15.9812C15.2952 16.1812 15.5036 16.2812 15.712 16.2812C15.9204 16.2812 16.1287 16.1812 16.3371 16.0812C16.6497 15.6812 16.6497 15.0812 16.3371 14.7812ZM7.27245 1.88115C9.98144 1.88115 12.2737 3.98115 12.2737 6.68115C12.2737 9.38115 10.0856 11.4812 7.27245 11.4812C4.45928 11.4812 2.27126 9.38115 2.27126 6.68115C2.27126 3.98115 4.45928 1.88115 7.27245 1.88115Z" fill="#666666"/>
</svg>
