<svg width="24" height="24" viewBox="0 0 24 24" fill="none" xmlns="http://www.w3.org/2000/svg">
<path d="M20.8165 23.7548H3.18389C1.56757 23.7548 0.245117 22.4324 0.245117 20.8161V3.1834C0.245117 1.56708 1.56757 0.244629 3.18389 0.244629H20.8165C22.4329 0.244629 23.7553 1.56708 23.7553 3.1834V20.8161C23.7553 22.4324 22.4329 23.7548 20.8165 23.7548Z" fill="#D4D7DB"/>
<path fill-rule="evenodd" clip-rule="evenodd" d="M19.2734 10.7456C19.4953 10.7456 19.7519 10.9111 19.7766 11.1311C19.8431 11.7238 19.8423 12.3223 19.7732 12.9106C19.7461 13.1398 19.5397 13.3127 19.3151 13.2945L19.2183 13.2919C18.5265 13.2919 17.8833 13.7181 17.6174 14.3528C17.3346 15.027 17.5112 15.8119 18.0559 16.305C18.2265 16.4596 18.247 16.7204 18.1025 16.8998C17.7303 17.3634 17.3046 17.7845 16.8365 18.1516C16.6563 18.291 16.4006 18.2705 16.2459 18.1022C15.7801 17.5909 14.9517 17.3984 14.3077 17.6614C13.6415 17.9341 13.2105 18.6049 13.2367 19.3303C13.2444 19.5578 13.0764 19.7534 12.8495 19.7785C12.5631 19.8104 12.2767 19.826 11.9904 19.826C11.6887 19.826 11.3879 19.8087 11.0887 19.7737C10.86 19.7475 10.6912 19.5468 10.7048 19.3164C10.7463 18.5833 10.3213 17.9006 9.64578 17.6179C9.0009 17.3472 8.1631 17.5389 7.69482 18.0567C7.53934 18.2281 7.27846 18.2483 7.09908 18.1039C6.64217 17.7359 6.22466 17.3145 5.86123 16.8513C5.7199 16.6726 5.74129 16.4156 5.90868 16.2618C6.44384 15.7709 6.61984 14.9935 6.34644 14.3264C6.07168 13.6585 5.41766 13.2368 4.73602 13.2541C4.5117 13.2541 4.2475 13.09 4.2228 12.8691C4.1566 12.2765 4.15734 11.6773 4.22611 11.0896C4.25353 10.8639 4.43013 10.6972 4.67828 10.7052C5.44298 10.7052 6.11101 10.2907 6.38109 9.6473C6.66397 8.97243 6.48831 8.1879 5.94348 7.69451C5.77378 7.54011 5.75246 7.27964 5.89684 7.09992C6.26737 6.6376 6.69389 6.21623 7.16285 5.8482C7.34229 5.70828 7.59958 5.72899 7.75344 5.89768C8.21895 6.40975 9.05106 6.6003 9.6908 6.33895C10.3579 6.06569 10.7879 5.39494 10.7625 4.66924C10.755 4.4418 10.9232 4.24638 11.1499 4.22133C11.7362 4.15628 12.326 4.15825 12.9106 4.22594C13.1401 4.25268 13.3086 4.45283 13.2948 4.68318C13.2531 5.41606 13.6782 6.09885 14.3518 6.38227C14.9993 6.65242 15.8373 6.46045 16.3037 5.94384C16.4584 5.77266 16.7203 5.75275 16.8985 5.89572C17.3541 6.26063 17.7712 6.68173 18.1383 7.14785C18.2794 7.32668 18.2589 7.58431 18.0906 7.73817C17.5563 8.22831 17.3805 9.00614 17.653 9.67323C17.9199 10.3247 18.5563 10.7456 19.2734 10.7456ZM11.9999 16.6956C14.5932 16.6956 16.6955 14.5933 16.6955 11.9999C16.6955 9.40658 14.5932 7.30427 11.9999 7.30427C9.40654 7.30427 7.30422 9.40658 7.30422 11.9999C7.30422 14.5933 9.40654 16.6956 11.9999 16.6956Z" fill="#34495E"/>
</svg>
