<svg width="27" height="45" viewBox="0 0 27 45" fill="none" xmlns="http://www.w3.org/2000/svg">
<path d="M1.28629 23.6532C1.28548 23.6524 1.28468 23.6517 1.28387 23.651C0.788177 23.202 0.500001 22.6385 0.500001 22.0339C0.500001 21.4284 0.789117 20.864 1.28629 20.4147L22.557 1.19079C23.5155 0.324566 24.9583 0.20466 25.7498 1.22399C26.2249 1.66777 26.5 2.21932 26.5 2.81004C26.5 3.41392 26.2125 3.97687 25.7178 4.4256L6.77043 22.2836L25.7178 40.1416C26.2125 40.5903 26.5 41.1532 26.5 41.7571C26.5 42.3627 26.2109 42.927 25.7137 43.3764C24.755 44.2429 23.3116 44.3626 22.5202 43.3423L1.28629 23.6532Z" fill="white" fill-opacity="0.2" stroke="#C6C6C6"/>
</svg>
