<svg width="16" height="16" viewBox="0 0 16 16" fill="none" xmlns="http://www.w3.org/2000/svg">
<g clip-path="url(#clip0)">
<path d="M11.5695 0H4.43059C3.89887 0 3.46631 0.432531 3.46631 0.964V1.6H12.5335V0.964C12.5335 0.432531 12.101 0 11.5695 0ZM9.33353 1.33334H6.66687C6.51968 1.33334 6.40022 1.21387 6.40022 1.06669C6.40022 0.9195 6.51968 0.800031 6.66687 0.800031H9.33353C9.48072 0.800031 9.60019 0.9195 9.60019 1.06669C9.60019 1.21387 9.48072 1.33334 9.33353 1.33334ZM11.2002 1.33334H10.9335C10.7863 1.33334 10.6669 1.21387 10.6669 1.06669C10.6669 0.9195 10.7863 0.800031 10.9335 0.800031H11.2002C11.3474 0.800031 11.4668 0.9195 11.4668 1.06669C11.4669 1.21387 11.3474 1.33334 11.2002 1.33334Z" fill="#53606F"/>
<path d="M8.33109 14.1338H7.66896C7.55749 14.1338 7.46655 14.2244 7.46655 14.3362V14.465C7.46655 14.5765 7.55721 14.6671 7.66896 14.6671H8.33109C8.44255 14.6671 8.53321 14.5765 8.53321 14.465V14.3362C8.53349 14.2244 8.44255 14.1338 8.33109 14.1338Z" fill="#53606F"/>
<path d="M12.5335 2.13379H3.4668V12.8004H12.5335V2.13379Z" fill="#53606F"/>
<path d="M3.4668 13.334V15.0366C3.4668 15.5681 3.89933 16.0006 4.4308 16.0006H11.5697C12.1012 16.0006 12.5337 15.5681 12.5337 15.0366V13.334H3.4668ZM9.0668 14.4652C9.0668 14.8708 8.73692 15.2006 8.33133 15.2006H7.6692C7.26361 15.2006 6.93348 14.8708 6.93348 14.4652V14.3364C6.93348 13.9308 7.26361 13.6006 7.6692 13.6006H8.33133C8.73692 13.6006 9.0668 13.9308 9.0668 14.3364V14.4652Z" fill="#53606F"/>
</g>
<defs>
<clipPath id="clip0">
<rect width="16" height="16" fill="white"/>
</clipPath>
</defs>
</svg>
