<svg width="43" height="43" viewBox="0 0 43 43" fill="none" xmlns="http://www.w3.org/2000/svg">
<g clip-path="url(#clip0)">
<path d="M35.9615 11.0876L37.4155 9.63367L38.8581 11.0763L40.6397 9.29462L35.9729 4.62782L34.1913 6.40951L35.6339 7.85215L34.1799 9.30613C30.9851 6.49694 27.0058 4.84863 22.7603 4.57592V2.5196H27.2116V0H15.7894V2.5196H20.2407V4.57584C15.5776 4.87542 11.2348 6.83331 7.90072 10.1673C4.26814 13.7999 2.26758 18.6297 2.26758 23.767C2.26758 28.9043 4.26814 33.7341 7.90072 37.3667C11.5334 40.9993 16.3632 42.9999 21.5005 42.9999C26.6378 42.9999 31.4677 40.9994 35.1003 37.3667C38.7328 33.7341 40.7334 28.9043 40.7334 23.767C40.7333 19.0521 39.0469 14.5968 35.9615 11.0876ZM21.5004 38.0676C13.6151 38.0676 7.19994 31.6524 7.19994 23.7671C7.19994 15.8818 13.6152 9.46654 21.5004 9.46654C29.3858 9.46654 35.8009 15.8818 35.8009 23.7671C35.8009 31.6524 29.3858 38.0676 21.5004 38.0676Z" fill="white"/>
<path d="M33.2111 22.5107C32.6246 17.0189 28.2493 12.6436 22.7574 12.057V14.6609H20.2378V12.057C14.746 12.6436 10.3707 17.0188 9.78418 22.5107H12.3881V25.0303H9.78418C10.3707 30.5221 14.746 34.8975 20.2378 35.484V32.8801H22.7574V35.484C28.2493 34.8975 32.6246 30.5222 33.2111 25.0303H30.6072V22.5107H33.2111ZM21.4975 25.9515C20.295 25.9515 19.3166 24.9731 19.3166 23.7705C19.3166 23.6451 19.3278 23.5224 19.3482 23.4028L15.9119 19.9665L17.6935 18.1848L21.1297 21.6211C21.2494 21.6007 21.3721 21.5895 21.4975 21.5895C22.7001 21.5895 23.6786 22.5678 23.6786 23.7704C23.6786 24.973 22.7002 25.9515 21.4975 25.9515Z" fill="white"/>
</g>
<defs>
<clipPath id="clip0">
<rect width="43" height="43" fill="white"/>
</clipPath>
</defs>
</svg>
