<svg width="15" height="15" viewBox="0 0 15 15" fill="none" xmlns="http://www.w3.org/2000/svg">
  <path d="M8.00002 0.23923L9.50002 5.03923H14.5C14.7 5.03923 14.9 5.23923 14.9 5.43923C14.9 5.53923 14.8 5.63923 14.7 5.73923L10.6 8.73923L12.2 13.5392C12.3 13.7392 12.2 13.9392 12 14.0392C11.9 14.0392 11.7 14.0392 11.6 13.9392L7.50002 10.9392L3.40002 13.9392C3.20002 14.0392 3.00002 14.0392 2.90002 13.8392C2.80002 13.7392 2.80002 13.6392 2.80002 13.5392L4.40002 8.73923L0.300024 5.73923C0.100024 5.63923 0.100024 5.33923 0.200024 5.23923C0.300024 5.13923 0.400024 5.03923 0.500024 5.03923H5.50002L7.10002 0.23923C7.20002 0.0392303 7.40002 -0.0607695 7.60002 0.0392305C7.90002 0.0392305 7.90002 0.13923 8.00002 0.23923Z" fill="white"/>
</svg>