<svg width="16" height="15" viewBox="0 0 16 15" fill="none" xmlns="http://www.w3.org/2000/svg">
<path d="M8.1097 0.703975L9.6097 5.45544H14.6097C14.8097 5.45544 15.0097 5.65342 15.0097 5.8514C15.0097 5.95039 14.9097 6.04938 14.8097 6.14837L10.7097 9.11804L12.3097 13.8695C12.4097 14.0675 12.3097 14.2655 12.1097 14.3644C12.0097 14.3644 11.8097 14.3644 11.7097 14.2655L7.6097 11.2958L3.5097 14.2655C3.3097 14.3644 3.1097 14.3644 3.0097 14.1665C2.9097 14.0675 2.9097 13.9685 2.9097 13.8695L4.5097 9.11804L0.409704 6.14837C0.209704 6.04938 0.209704 5.75241 0.309704 5.65342C0.409704 5.55443 0.509704 5.45544 0.609704 5.45544H5.6097L7.2097 0.703975C7.3097 0.505998 7.5097 0.407008 7.7097 0.505997C8.0097 0.505997 8.0097 0.604987 8.1097 0.703975Z" fill="#778A95"/>
</svg>
