<svg width="16" height="15" viewBox="0 0 16 15" fill="none" xmlns="http://www.w3.org/2000/svg">
<path d="M8.1097 0.389251L9.6097 5.14071H14.6097C14.8097 5.14071 15.0097 5.33869 15.0097 5.53667C15.0097 5.63566 14.9097 5.73465 14.8097 5.83364L10.7097 8.80331L12.3097 13.5548C12.4097 13.7528 12.3097 13.9507 12.1097 14.0497C12.0097 14.0497 11.8097 14.0497 11.7097 13.9507L7.6097 10.9811L3.5097 13.9507C3.3097 14.0497 3.1097 14.0497 3.0097 13.8517C2.9097 13.7528 2.9097 13.6538 2.9097 13.5548L4.5097 8.80331L0.409704 5.83364C0.209704 5.73465 0.209704 5.43769 0.309704 5.3387C0.409704 5.23971 0.509704 5.14071 0.609704 5.14071H5.6097L7.2097 0.389251C7.3097 0.191273 7.5097 0.0922794 7.7097 0.191268C8.0097 0.191268 8.0097 0.290262 8.1097 0.389251ZM9.0097 5.63566L7.7097 1.6761L6.4097 5.63566C6.4097 5.83364 6.2097 5.93263 6.0097 5.93263H1.9097L5.3097 8.30836C5.4097 8.40735 5.5097 8.60533 5.4097 8.70431L4.1097 12.5649L7.4097 10.1891C7.5097 10.0902 7.7097 10.0902 7.9097 10.1891L11.3097 12.5649L10.0097 8.70431C9.9097 8.50634 10.0097 8.40735 10.1097 8.30836L13.5097 5.93263H9.4097C9.2097 5.93263 9.0097 5.83364 9.0097 5.63566Z" fill="#778A95"/>
</svg>
