<svg width="14" height="13" viewBox="0 0 14 13" fill="none" xmlns="http://www.w3.org/2000/svg">
<path fill-rule="evenodd" clip-rule="evenodd" d="M6.80371 13C10.3936 13 13.3037 10.0899 13.3037 6.5C13.3037 2.91015 10.3936 0 6.80371 0C3.21386 0 0.303711 2.91015 0.303711 6.5C0.303711 10.0899 3.21386 13 6.80371 13ZM7.68476 1.75293V5.5771C7.68476 5.9827 7.66279 6.38049 7.61885 6.77049C7.57491 7.16048 7.51632 7.57387 7.44309 8.01067H6.22007C6.14684 7.57387 6.08825 7.16048 6.04431 6.77049C6.00037 6.38049 5.9784 5.9827 5.9784 5.5771V1.75293H7.68476ZM5.70012 10.5115C5.70012 10.3733 5.7282 10.2419 5.78434 10.1171C5.84049 9.99227 5.91861 9.8853 6.01869 9.79616C6.11878 9.70702 6.23718 9.6357 6.37388 9.58222C6.51059 9.52873 6.65705 9.50199 6.81329 9.50199C6.96464 9.50199 7.10867 9.52873 7.24537 9.58222C7.38208 9.6357 7.49925 9.70702 7.5969 9.79616C7.69455 9.8853 7.77266 9.99227 7.83125 10.1171C7.88984 10.2419 7.91913 10.3733 7.91913 10.5115C7.91913 10.6541 7.88984 10.7867 7.83125 10.9093C7.77266 11.0319 7.69455 11.1377 7.5969 11.2269C7.49925 11.316 7.38208 11.3862 7.24537 11.4375C7.10867 11.4887 6.96464 11.5144 6.81329 11.5144C6.65705 11.5144 6.51059 11.4887 6.37388 11.4375C6.23718 11.3862 6.11878 11.316 6.01869 11.2269C5.91861 11.1377 5.84049 11.0319 5.78434 10.9093C5.7282 10.7867 5.70012 10.6541 5.70012 10.5115Z" fill="#F69C00"/>
</svg>
