<svg width="14" height="14" viewBox="0 0 14 14" fill="none" xmlns="http://www.w3.org/2000/svg">
<circle cx="7.31152" cy="7" r="6.5" fill="#D70C17"/>
<path fill-rule="evenodd" clip-rule="evenodd" d="M4.7251 3.37997C4.87719 3.25746 5.04383 3.14107 5.225 3.03081C5.40618 2.92054 5.60189 2.82457 5.81214 2.7429C6.02239 2.66122 6.25054 2.5969 6.49657 2.54994C6.74261 2.50297 7.00878 2.47949 7.29508 2.47949C7.68427 2.47949 8.03879 2.5285 8.35864 2.62651C8.67849 2.72452 8.95248 2.86439 9.18063 3.04612C9.40878 3.22785 9.58548 3.44735 9.71073 3.70463C9.83599 3.96192 9.89862 4.24982 9.89862 4.56836C9.89862 4.87873 9.84941 5.14724 9.75099 5.37389C9.65258 5.60054 9.52844 5.79758 9.37858 5.96502C9.22872 6.13246 9.06656 6.27743 8.89209 6.39995C8.71763 6.52246 8.55211 6.63783 8.39554 6.74605C8.23897 6.85427 8.10365 6.96045 7.98958 7.06459C7.87551 7.16872 7.80729 7.28613 7.78492 7.41681L7.63059 8.31117H6.49657L6.3825 7.31268C6.37803 7.29226 6.37579 7.2749 6.37579 7.26061C6.37579 7.24631 6.37579 7.22896 6.37579 7.20854C6.37579 7.02885 6.425 6.87265 6.52342 6.73992C6.62183 6.6072 6.74485 6.48264 6.89247 6.36625C7.0401 6.24987 7.1989 6.13654 7.36889 6.02628C7.53888 5.91601 7.69769 5.79656 7.84531 5.66792C7.99294 5.53928 8.11595 5.39329 8.21437 5.22994C8.31279 5.06658 8.36199 4.87465 8.36199 4.65412C8.36199 4.5071 8.3318 4.3754 8.27141 4.25901C8.21101 4.14262 8.12714 4.04257 8.01978 3.95885C7.91241 3.87513 7.7838 3.81081 7.63394 3.76589C7.48408 3.72097 7.32192 3.69851 7.14746 3.69851C6.89247 3.69851 6.67663 3.72403 6.49993 3.77508C6.32323 3.82613 6.17337 3.8833 6.05035 3.9466C5.92733 4.0099 5.82332 4.06707 5.73833 4.11812C5.65333 4.16917 5.57729 4.19469 5.51018 4.19469C5.34914 4.19469 5.23283 4.13343 5.16126 4.01092L4.7251 3.37997ZM5.99268 10.6029C5.99268 10.4763 6.0184 10.3559 6.06984 10.2415C6.12129 10.1272 6.19286 10.0292 6.28457 9.94748C6.37627 9.86581 6.48475 9.80047 6.61001 9.75146C6.73527 9.70245 6.86947 9.67795 7.01262 9.67795C7.15129 9.67795 7.28326 9.70245 7.40852 9.75146C7.53377 9.80047 7.64113 9.86581 7.7306 9.94748C7.82007 10.0292 7.89164 10.1272 7.94533 10.2415C7.99901 10.3559 8.02585 10.4763 8.02585 10.6029C8.02585 10.7336 7.99901 10.8551 7.94533 10.9674C7.89164 11.0797 7.82007 11.1767 7.7306 11.2584C7.64113 11.3401 7.53377 11.4044 7.40852 11.4513C7.28326 11.4983 7.15129 11.5218 7.01262 11.5218C6.86947 11.5218 6.73527 11.4983 6.61001 11.4513C6.48475 11.4044 6.37627 11.3401 6.28457 11.2584C6.19286 11.1767 6.12129 11.0797 6.06984 10.9674C6.0184 10.8551 5.99268 10.7336 5.99268 10.6029Z" fill="white"/>
</svg>
