<svg width="25" height="24" viewBox="0 0 25 24" fill="none" xmlns="http://www.w3.org/2000/svg">
<g clip-path="url(#clip0)">
<path fill-rule="evenodd" clip-rule="evenodd" d="M24.0625 12C24.0625 8.13401 20.9285 5 17.0625 5H7.0625C3.19651 5 0.0625 8.13401 0.0625 12V12C0.0625 15.866 3.19651 19 7.0625 19H17.0625C20.9285 19 24.0625 15.866 24.0625 12V12Z" fill="#AAAAAA"/>
<path fill-rule="evenodd" clip-rule="evenodd" d="M7.05957 17C4.29815 17 2.05957 14.7614 2.05957 12C2.05957 9.23858 4.29815 7 7.05957 7C9.82099 7 12.0596 9.23858 12.0596 12C12.0596 14.7614 9.82099 17 7.05957 17Z" fill="#F8F4F4"/>
</g>
<defs>
<clipPath id="clip0">
<rect x="0.0625" width="24" height="24" fill="white"/>
</clipPath>
</defs>
</svg>
