<svg width="25" height="25" viewBox="0 0 25 25" fill="none" xmlns="http://www.w3.org/2000/svg">
<g clip-path="url(#clip0)">
<path fill-rule="evenodd" clip-rule="evenodd" d="M0.901367 12.4429C0.901367 8.57688 4.03537 5.44287 7.90137 5.44287H17.9014C21.7674 5.44287 24.9014 8.57688 24.9014 12.4429C24.9014 16.3089 21.7674 19.4429 17.9014 19.4429H7.90137C4.03537 19.4429 0.901367 16.3089 0.901367 12.4429Z" fill="#D4D7DB"/>
<path fill-rule="evenodd" clip-rule="evenodd" d="M17.9043 17.4429C20.6657 17.4429 22.9043 15.2043 22.9043 12.4429C22.9043 9.68145 20.6657 7.44287 17.9043 7.44287C15.1429 7.44287 12.9043 9.68145 12.9043 12.4429C12.9043 15.2043 15.1429 17.4429 17.9043 17.4429Z" fill="#F1F3F4"/>
</g>
<defs>
<clipPath id="clip0">
<rect width="24" height="24" transform="matrix(-1 0 0 1 24.9014 0.442871)" fill="white"/>
</clipPath>
</defs>
</svg>
