<svg width="16" height="16" viewBox="0 0 16 16" fill="none" xmlns="http://www.w3.org/2000/svg">
<path d="M10.1591 12.9455C10.3237 12.9455 10.4882 12.7933 10.4882 12.6411V6.402C10.4882 6.24983 10.3237 6.09766 10.1591 6.09766C9.99462 6.09766 9.83008 6.24983 9.83008 6.402V12.6411C9.83008 12.7933 9.91236 12.9455 10.1591 12.9455Z" fill="#666666"/>
<path d="M5.96181 12.9455C6.12635 12.9455 6.2908 12.7933 6.2908 12.6411V6.402C6.2908 6.24983 6.12635 6.09766 5.96181 6.09766C5.79728 6.09766 5.63273 6.24983 5.63273 6.402V12.6411C5.55046 12.7933 5.71501 12.9455 5.96181 12.9455Z" fill="#666666"/>
<path d="M14.1916 3.73913C14.1093 3.13044 13.5331 2.67392 12.8747 2.67392H11.064V2.29349C11.064 1.91305 10.8994 1.6087 10.6525 1.38043C10.4056 1.15217 9.99407 1 9.66485 1H6.53722C6.12569 1 5.79651 1.15217 5.5496 1.38043C5.30268 1.6087 5.13807 1.98914 5.13807 2.29349V2.67392H3.3273C2.66886 2.67392 2.09274 3.13044 2.01044 3.73913C1.92813 4.34783 2.33962 4.95653 2.99806 5.1087V13.25C2.99806 13.7065 3.16275 14.163 3.49197 14.4674C3.82119 14.7717 4.31502 15 4.72654 15H11.4755C11.9694 15 12.3809 14.8478 12.7101 14.4674C13.0393 14.163 13.2039 13.7065 13.2039 13.25V5.1087C13.8624 4.95653 14.2739 4.42392 14.1916 3.73913ZM5.79645 2.29349C5.79645 2.14131 5.87882 1.98913 5.96112 1.83696C6.12573 1.68479 6.29032 1.68479 6.45493 1.68479H9.58247C9.74708 1.68479 9.91177 1.76087 10.0764 1.83696C10.241 1.98913 10.2409 2.14131 10.2409 2.29349V2.67392H5.71417V2.29349H5.79645ZM12.4631 13.25C12.4631 13.8587 11.9694 14.3152 11.3932 14.3152H4.64416C4.06802 14.3152 3.57425 13.8587 3.57425 13.25V5.18478H12.4631V13.25ZM12.8747 4.5H3.24501C2.91579 4.5 2.58653 4.27174 2.58653 3.89131C2.58653 3.51087 2.83349 3.28261 3.24501 3.28261H12.8747C13.2039 3.28261 13.5331 3.51087 13.5331 3.89131C13.5331 4.27174 13.2039 4.5 12.8747 4.5Z" fill="#666666"/>
<path d="M8.01853 12.9455C8.18306 12.9455 8.34751 12.7933 8.34751 12.6411V6.402C8.34751 6.24983 8.18306 6.09766 8.01853 6.09766C7.854 6.09766 7.68945 6.24983 7.68945 6.402V12.6411C7.68945 12.7933 7.854 12.9455 8.01853 12.9455Z" fill="#666666"/>
</svg>
