<svg width="16" height="15" viewBox="0 0 16 15" fill="none" xmlns="http://www.w3.org/2000/svg">
<path d="M1.67432 1.49287L1.66895 4.69287L4.86895 4.69825L4.87432 1.49825L1.67432 1.49287Z" fill="#F05A28"/>
<path d="M10.5132 1.56172L10.5078 4.76172L13.7078 4.76709L13.7132 1.56709L10.5132 1.56172Z" fill="#F05A28"/>
<path d="M6.14405 1.47773L6.13867 4.67773L9.33867 4.68311L9.34405 1.48311L6.14405 1.47773Z" fill="#F05A28"/>
<path d="M1.68995 5.86299L1.68457 9.06299L4.88457 9.06836L4.88995 5.86837L1.68995 5.86299Z" fill="#F05A28"/>
<path d="M10.4292 5.93135L10.4238 9.13135L13.6238 9.13672L13.6292 5.93672L10.4292 5.93135Z" fill="#F05A28"/>
<path d="M6.05909 5.94697L6.05371 9.14697L9.25371 9.15235L9.25909 5.95235L6.05909 5.94697Z" fill="#F05A28"/>
<path d="M1.70557 10.2321L1.7002 13.4321L4.9002 13.4375L4.90557 10.2375L1.70557 10.2321Z" fill="#F05A28"/>
<path d="M10.4448 10.301L10.4395 13.501L13.6395 13.5064L13.6448 10.3064L10.4448 10.301Z" fill="#F05A28"/>
<path d="M6.07569 10.3166L6.07031 13.5166L9.27031 13.522L9.27569 10.322L6.07569 10.3166Z" fill="#F05A28"/>
</svg>
